<svg xmlns="http://www.w3.org/2000/svg" width="817.333" height="505.333" viewBox="0 0 613 379"><path d="M267.6 9.6c-.9.8-1.6 2.9-1.6 4.5 0 1.7-.5 4-1.1 5.2-.7 1.2-1.4 8.4-1.6 16.1-.3 7.7-.8 14.7-1.3 15.6-.7 1.3-3.8 1.9-13.7 2.9-7 .7-16.1 1.7-20.1 2.2-11.3 1.4-13 1.2-13.8-1.4-1.2-3.6-.8-10.9 1-16 3-8.9 1.2-16.7-3.8-16.7-.8 0-1.8-.9-2.1-2-1.4-4.4-6.6-6.5-10.4-4.1-2 1.3-3.3 9.4-3.8 24.1-.5 15.5-2.3 20.5-8.1 21.8-16.1 3.9-31.6 7.1-32 6.7-.3-.3-.6-5.9-.7-12.4-.1-9.3-.5-12.5-1.8-14.5-.9-1.4-1.7-3.2-1.7-4.1 0-2.3-3.7-5.5-6.5-5.5-3.5 0-6.7 3.5-6.3 7 .2 2.1-.5 3.5-2.5 5.4-3.2 2.9-3.5 6.3-.9 9.7 3.2 4.1 3.6 12.2.7 15.3-1.3 1.4-2.6 3.4-3 4.5-.4 1.3-2.7 2.7-7.3 4.2-3.7 1.2-8.7 3.1-11.1 4.1-5.5 2.3-5.8 2-3.6-3.9 5.1-13.3-5.3-33.1-14.4-27.4-1.8 1.2-3.1 8.6-4 23.6-.9 13.5-2.1 19.2-3.1 14-.3-1.7-.1-5 .4-7.6 1.3-6.5-3.9-15.8-9-15.9-3.7 0-5.9 2.5-6.1 7.2-.9 17-2 27.6-3.1 29.5-.6 1.2-1.2 4.8-1.2 8 0 5.3-.3 6.1-3 8.5-1.6 1.4-3 3.5-3 4.6 0 1.4-1.3 2.4-4.8 3.6-2.6 1-6.7 2.6-9.1 3.6-3.4 1.4-5 1.5-6.7.8-1.8-.9-3.4-.6-7.6 1.5-3.4 1.6-7.6 2.7-11.8 3-11.9.8-16 2.5-16 6.4 0 1.8.5 3.3 1 3.3.6 0 1 .5 1 1.1 0 .5-.4.7-1 .4-.6-.4-1 1-1 3.3 0 4.1 1.6 5.7 4.5 4.6 2.2-.9 2-8.1-.3-8.7-1.6-.4-1.6-.5.1-.6.9 0 1.7-.6 1.7-1.1 0-.6.9-1 1.9-1 1.1 0 2.6-.6 3.3-1.3 1.7-1.7 9.6-1.6 12.6.1 2.6 1.5 4.2.8 4.2-1.8 0-1.8 5.7-5.6 6.8-4.5.3.3.4 3.4.3 7-.1 4.3.2 6.5.9 6.5.8 0 1.1-2 .9-5.8-.3-5.7-.3-5.7 2.9-6 1.8-.2 3.2-.6 3.2-1 0-.9 3.4-2.3 12.3-5.3 6.4-2.2 6.8-2.5 6.3-4.9-.4-2 .1-3 2.5-4.5 2.8-1.9 2.9-2.3 2.8-8.8-.1-5.3.2-7.2 1.6-8.7 1.5-1.7 1.9-4 2.1-12.3.2-11.8.2-11.6 1.2-9.9.5.7.7-1.7.5-5.3-.2-4.1 0-6.5.7-6.5.5 0 1 1.1 1 2.4 0 1.4.5 2.8 1 3.1.6.4.8 1.1.4 1.6-.3.5-1 .6-1.6.3-.7-.4-.8-.2-.4.5.4.6 1.6.9 2.7.6 2.2-.7 2.3-.2.8 2.6-.5 1.1-1.4 1.7-2 1.4-.5-.4-.9.5-.9 1.9s.4 2.7.8 3c.5.3.7 2 .5 3.8-1.3 10.1-.4 11.7 5.4 9.2 2.6-1.2 4.4-2.7 5.2-4.8.7-1.7 1.8-4.2 2.4-5.5.7-1.5 1.1-6.6 1-13.6-.3-10.1-.1-11.4 1.7-13 1.9-1.8 2-1.7 2 .8 0 1.4.3 3.3.7 4.3.4 1.1.3 1.5-.4 1.1-1.7-1.1-2.3 1.8-2.2 10.1 0 7 .2 7.4 1.2 4.7.7-1.7 2.1-3.1 3.2-3.3 1.4-.2 1.6 0 .7.6-.8.5-1 1.6-.5 2.8.6 1.6.5 1.7-.9.6s-1.7-.9-2.1 1.5c-1.1 6.1-.8 7.4 1.4 6 1-.6 1.7-1.7 1.5-2.4-.8-1.9.6-2.4 1.9-.6 1.1 1.5 1.6 1.4 6.1-.3 2.7-1 5.5-1.7 6.1-1.6.7.2 1.3-.1 1.3-.7 0-1.2 6-3.2 7.3-2.4.6.4.7.1.2-.7-.6-1-.3-1.2 1.3-.8 1.4.4 2 .2 1.6-.4-.5-.7.2-.9 2-.4 1.6.4 2.5.3 2.2-.2s.6-1.4 1.9-2c1.4-.7 2.5-2 2.5-3.1s1.2-3.2 2.6-4.6c3.4-3.5 3.1-15.5-.6-20.2-2-2.5-2-2.7-.3-3.7 1-.5 2.4-1.6 3.1-2.3 2-2 3.2-1.6 3.2 1.1 0 1.3.6 2.6 1.4 2.9 1.2.5 1.2 0 .5-2.6-1.1-3.9-1.1-3.7 0-3.7.5 0 1.3 1.2 1.9 2.8 1.2 3.4-.1 7.4-2.2 6.6-3.7-1.4-4.3 8-.8 12 .9 1.1 1.1 1.6.5 1.2-.7-.4-1.3-.2-1.3.4 0 .7.8.9 1.9.5 1.9-.6 4.1 2.8 2.7 4.2-.3.4-.6-.1-.6-.9 0-1.1-.6-1.4-2-1.1-1.5.4-2 1.4-2 4.1 0 2.8.3 3.3 1.2 2.4 3-3 5.4.6 2.6 3.7-1 1.1-1 1.3 0 .7.9-.5 1.2.6 1.2 4.5 0 5.2.7 6.3 1.3 2 .5-3.5 3.4-6.1 6.7-6.1 1.9 0 3-.5 3-1.4 0-1.4 2.1-2.6 4.6-2.6 1.9 0 3.5 4.2 2 5.3-1.2 1 7.5.1 14.7-1.4 4.3-1 4.7-1.3 4.7-4 0-2-.5-2.9-1.6-2.9-1.4 0-1.4-.3-.4-1.5 1.6-1.9.8-1.9-8.1.1-5.7 1.3-6.9 1.9-6.9 3.6 0 1.1-.5 1.8-1.2 1.5-.7-.2-1.2-1-1.1-1.6.2-.6.2-1.1 0-1.1-.1 0-3.6.9-7.7 2-9.2 2.4-9 2.4-9 .1 0-1.5 1.1-2.1 5.3-2.9 2.8-.6 7.7-1.7 10.8-2.5 3.1-.7 7-1.3 8.7-1.3 1.7.1 2.8-.2 2.6-.5-.2-.4.5-.9 1.6-1.2s2.3-.1 2.6.4 1.1.9 1.7.9c.9 0 .8-.3-.1-.8-.8-.6.7-1.3 4.3-2.1 4.9-1.1 5.7-1.7 7-4.7 1.4-3.4 2.2-3.8 5.9-3.4 1.7.1 1.8-.2 1.1-3.2-.5-1.8-.8-6.3-.8-10.1.1-3.8-.3-6.5-.8-6.1-.5.3-.9-2.1-.9-5.5 0-3.3.5-6.3 1-6.6.6-.3 1-.2 1 .4s1.1.6 3.2 0c5.5-1.5 7.1-.4 6.4 4.4-1.1 6.7-3 7.8-4.4 2.4-.6-2.3-1.4-3.2-3-3.3-2.6-.1-2.6.1-.4 4.7 1.3 2.9 1.6 5.4 1.2 12.3-.4 6.6-.2 8.5.7 8.2.7-.3 1.2.2 1.1 1.2-.3 3.8.3 5.2 2.1 5.2 1.1 0 2.2.6 2.5 1.2.5 1 .7 1 1.2 0 .3-.6 2-1.2 3.7-1.2 1.8 0 5-.5 7.2-1 2.2-.4 7.9-1 12.7-1.2 4.9-.2 8.8-.6 8.8-1.1 0-.4 1.5-.7 3.3-.7 2.4 0 2.8.3 1.7 1s-.6 1 2 .9c2.9 0 3.2-.2 1.5-1-1.5-.7-.8-.8 2.8-.6 2.6.1 4.7-.1 4.7-.5 0-.5.9-.8 2-.8 1.3 0 2-.7 2-1.9 0-1.1.6-2.6 1.3-3.3 3.9-4.1 6.1-18 2.8-17.3-1.3.2-1.6-.7-1.5-5.4.1-4.3.5-5.7 1.8-5.9.9-.2 1.6-.8 1.6-1.3 0-.6-.5-.7-1.1-.3-.7.4-1-.1-.7-1.2.4-2.4 4.8-3.2 4.8-1 0 .9-.4 1.6-1 1.6-1.8 0-2.4 6.9-.7 8.8.8.9 1.7 2.8 1.9 4.1.1 1.4.9 2.6 1.7 2.9q1.35.45.6-.9c-.6-1-.5-1.1.4-.3.8.8.9 1.8.1 3.8-.7 1.9-.6 3.2.3 4.7.9 1.4.9 2.2.1 2.7s-.8 1.8 0 4.7c1.2 4 1.2 4 12.6 4.6 6.3.3 10.7.6 9.7.7s-1.5.6-1.2 1.2c.4.6-2.5 1-7.9 1-9.3 0-11.4 1.7-8.6 6.9 1 2.1-.1 2.8-3.4 2.2-.5-.1-.6.5-.3 1.3s-.1 1.7-1 2c-.9.4-1.3.9-1 1.3.4.3 1.3 0 2.1-.6.9-.8 2.7-1 4.5-.6 2.2.5 3.2.2 4-1.2.6-1 1.1-1.2 1.1-.6 0 1.5 7.1 1.8 8.6.3.6-.6 2.4-.4 4.9.4 2.2.8 4.2 1.1 4.5.8.3-.4 6.6-.7 14-.7 13.5 0 13.5 0 13.8-5.8.3-6.4 2.3-5.9-24.3-5.9-4.9 0-7.6-.3-6-.6 3-.5 3-.5.5-1.2-1.4-.5 5.9-.8 16.2-.9 18.6-.1 18.6-.1 19.7-3.2.7-2.1 1.4-2.8 2.3-2.2 1.1.6 3.5 1 9.6 1.5.6.1 1.2.9 1.2 1.9 0 2.4 2.7 4.9 5.3 4.9 1.8 0 1.9-.2.7-1-1.1-.7-.5-.8 2-.4 6.1 1.1 5.7 2.4-.8 2.4-3.7 0-6.2.4-6.2 1.1 0 .5-.4.8-.8.5-1-.6-.9 4.5.1 6.1 1.4 2.3-.4 4.3-3.3 3.8-1.6-.3-3.2-.1-3.5.5-.4.6 1 1 3.4 1 2.3 0 4.1-.4 4.1-.8 0-.5.7-.9 1.5-.9s1.2.3 1 .7c-.2.3 2.2.7 5.3.8s6 .8 6.4 1.5c.5.8.8.7.8-.5 0-2.1 2-2 3.6.1.7.9 1.3 1.1 1.8.3.4-.7 1.7-.8 3.9-.1 4.2 1.2 10.7 1.2 10.7-.1 0-1.6 2.7-1.2 3.4.6.3.8 1 1.3 1.4 1 .8-.5 5.5.4 9.9 1.8 2.1.7 2.2.5 2-7.4-.2-7.2.5-10 1.5-6.8.3.7 1 .8 1.7.4 1-.6 1-1 .2-1.6-.8-.4-.5-1.4.9-3.2 1.1-1.5 2-3.2 2.1-4 .1-.7.4-.2.8 1.2.5 1.8 1.5 2.6 3.6 2.8 1.7.1 3.8.3 4.7.4 1.8.2 4.2 5.1 3.1 6.2-.4.3.1.6 1 .6s1.9.4 2.2 1c.4.6-.1.7-1 .3-1-.3-2.1 0-2.6.8-.7 1.1-.9 1.1-.9-.4 0-1.6-.8-1.9-6.7-2-1.2-.1-1.9-.5-1.6-1s0-.8-.8-.5c-.9.3-1.4 2.1-1.4 5.3 0 5.2-.7 4.7 8 5.8 2 .3 3.1 1.1 3.3 2.3.2 1.1 0 1.5-.5.9-1.4-1.8-10.9-3-11.8-1.5-.8 1.4.8 1.8 8.5 2.5 3.6.3 9 1 12 1.5 3 .6 7.3 1.3 9.5 1.6s5.7.9 7.8 1.5c2 .5 4.2.7 4.7.4.6-.3 1-.1 1 .4 0 .6.8 1.1 1.8 1.1 1.4 0 1.5-.2.2-1-.8-.5-1-1-.4-1s1.7.6 2.3 1.4c.6.7 2.6 1.7 4.4 2.1 1.7.4 2.7.9 2.2 1.1-.6.2-6.5-.7-13-2.1-6.6-1.4-18.7-3.5-27-4.7-16.5-2.3-16.7-2.4-16-8.5.4-3.6.2-4.1-1.1-3.6-1.2.4-1.5 1.6-1.1 5 .4 4.4.4 4.4-4.7 3.9-26.3-2.8-52.1-4.1-49.6-2.6 1.2.8 1 1-.8 1-1.3 0-2.1.4-1.7.9.3.5 2.4.9 4.8.9 4.7-.1 12.2.5 34.7 2.7 34.4 3.4 60.2 7.8 86 14.6 6.3 1.7 12.2 3.2 13 3.4 2.4.5 21.8 7.1 30.2 10.3 8.1 3.1 28.3 13.5 30.7 15.8 2.9 2.7.3 2.4-3.6-.5-5.4-3.9-10.2-6.3-11.2-5.6-.5.2-.8 4.2-.7 8.6.1 8.2.1 8.2 4.8 9.4s4.7 1.2 5.1-4.4c.3-5.6.3-5.6.5.7.1 4.2.6 6.1 1.3 5.7.6-.4.9-2.6.7-4.9-.2-2.2.1-4.1.6-4.1s.9 2.2.8 5c-.1 4.7 0 4.8.8 1.6.4-1.9.6-4 .3-4.7-.2-.6 0-1.5.6-1.9.7-.4 1.2 1.2 1.2 4.7.1 2.9.4 4.1.6 2.5.2-1.5.9-2.7 1.4-2.7s.7 1.1.3 2.4c-.3 1.3-.1 2.7.5 3 .7.5 1.1-.8 1.1-3.8 0-2.5.4-4.6.9-4.6.4 0 .6 2.2.3 5-.3 3.3-.1 5 .7 5 .7 0 1-1.5.8-4.1-.2-2.2 0-4.2.5-4.5.4-.3.9 1.9 1 4.8.1 5.3.1 5.3.5.8.3-2.5.8-4.9 1.3-5.4.6-.6.8 1 .6 4.2-.2 2.9 0 5.2.5 5.2s.9-1.8.9-3.9c0-2.2.4-4.2.8-4.5.5-.3.7 1.7.4 4.4-.3 3.6-.1 5 .8 5s1.1-1 .7-3.3c-.3-1.9-.1-4 .4-4.8.7-.9.9.5.7 4.6-.4 7.3 2.5 9.1 3 2 .5-6.3 2-6.4 1.8-.1-.2 3.8.1 5.6.9 5.6s1-.9.7-2.5c-1-5.6.7-11.5 3.4-11.3 1.3.1 2.4.8 2.4 1.6 0 .7-.4 1-1 .7-.6-.4-1 1.6-1 5.2 0 5.9 0 5.9 3.8 7.2 2 .8 4.3 1.6 5 1.8 1.8.7 1.5-5.7-.3-7.8-1.5-1.5-1.4-1.7 1-2.3 1.4-.4 2.5-1.1 2.5-1.6 0-1.8 11-1.2 12.8.7 1.6 1.6 1.7 1.5 2-1.7.4-4.3-.8-5-9-5-5 0-7.6-.5-10-2-2.1-1.3-5.1-2-8.2-2-6.8 0-19.6-4.8-19.6-7.3 0-1.1-1.5-3.3-3.2-4.9-3-2.8-3.3-3.6-3.3-9.2 0-4.5-.6-7.1-2.2-9.9-1.9-3.1-2.3-5.7-2.7-16.5-.6-14.6-.9-16-4.2-16.8-7.4-1.9-10.4 2.8-10.4 16.3 0 8.8 0 8.8-2.1 5.3-2.2-3.5-2.4-5.6-2.8-28.6-.1-8.8-7.3-10.2-12.5-2.4-1.2 1.9-1.6 5-1.6 14 0 6.3-.4 12-.8 12.6-.5.8-4.2-.2-11.9-3.1-13.2-5.1-13.3-5.1-13.3-7.4 0-1-.8-2.9-1.9-4.2-3.2-4.1-3.5-8.2-1.1-14.9 2.3-6.4 2-9.4-1-11-1.4-.8-1.7-1.8-1.3-4.8 1-7.8-4.7-9.4-12.1-3.5-5.6 4.6-7.5 9.8-5.6 15.1.8 2.3 1 6 .5 11.4-.7 7.5-.8 7.9-2.9 7.3-1.1-.3-8.5-1.9-16.3-3.5-7.7-1.7-14.7-3.2-15.5-3.5-2.3-1-4.7-7.8-4.7-13.5 0-15.6-.2-17.4-2-20.9-1.1-2-2.2-4.8-2.5-6.3-1.1-5.1-10-5.1-11.2 0-.4 1.5-1.5 3.6-2.5 4.7-2.9 3.2-4.2 8-3 10.4.6 1.1 1.1 3.7 1.1 5.8.1 2.1.7 5.4 1.3 7.3 3.2 8.8 1.7 9.3-19.8 7.1-6.6-.7-14.8-1.5-18.1-1.7-13-.8-16.1-5.9-14-23.1.7-6.5.6-7.7-1.3-10.9-1.2-1.9-2.1-4.4-2.1-5.4s-.7-2.6-1.6-3.4c-3.7-3.8-10.4-.3-10.4 5.4 0 1.7-.9 5.7-2 8.9-1.7 5.1-1.8 6.9-1 14.9 1.3 12.2 1.6 11.8-8.2 11.2-8.2-.5-8.2-.5-8.4-6.8-.4-9.3-4.2-13.7-10.3-11.7-2.8.8-3.3 3.6-2.3 11.8.8 6.8.8 6.8-11.6 6.5l-12.5-.3.2-14.2c.2-14.3-.4-17.8-3.5-19.6-.8-.4-1.4-1.7-1.4-2.7 0-4.8-7.1-7.8-10.4-4.4m5.4 5.9c0 1.4-.4 2.5-.8 2.5s-.9-1.1-1-2.5.3-2.5.8-2.5c.6 0 1 1.1 1 2.5m74 1.8c0 2 .8 3.9 2 5 1.1.9 2 2.6 2 3.8 0 1.6-.3 1.9-1.3 1.1-2-1.7-4.4.2-2.8 2.2.8.9 1 1.6.5 1.6s-.2.5.6 1c1.3.9 1.3 1 0 1-.9 0-2.1-.5-2.8-1.2-1.2-1.2-1.4-.9-1.4 2.7 0 2.9.2 3.5 1.6 3.5 1.9 0 3.3 1.9 4.1 5.5.7 3 .7 3-2.3-.4-2.8-3.3-4.6-1.8-1.9 1.6.6.9.6 1.3-.2 1.3-.6 0-1.1.9-1.1 2s-.5 2-1.1 2c-.7 0-.9-1-.7-2.5.3-1.4.2-2.7-.2-3-.4-.2-.5-2.6-.2-5.3.2-3.1 0-5.2-.7-5.6-.6-.4-1.1-1.2-1.1-1.8 0-.7.4-.7 1.3 0 1 .9 1.3.1 1.3-3.8 0-3.3.6-5.5 1.8-6.9 1.5-1.7 1.6-2.4.7-3.5-1.3-1.5-.7-3.6 1-3.6.5 0 .9 1.5.9 3.3M205 23c0 3.2-1.4 4-2.4 1.4-1-2.7-.7-4.4.9-4.4q1.5 0 1.5 3m212 .9c0 1.7-.6 3.1-1.6 3.5-1.5.6-1.5.8.2 2.7 1.4 1.5 1.5 2.2.6 2.8-1.6 1-1.7 3.3-.4 9.1 1 4.5 1 4.5 1.1.2.1-5.1 2.1-4.8 2.1.3 0 1.9.4 3.6.9 3.9 1.9 1.2 1.2 10.6-.9 10.6-3.1 0-3.6-3.8-.8-6.7 2.1-2.3 2.1-2.5.4-2.2-1.1.2-1.8.7-1.5 1 .7 1-2.3 3.9-3.3 3.3-.5-.4-.7-2-.5-3.8.3-1.7.1-4-.4-5.1-.7-1.6-.8-1.3-.4 1.3.3 2 .1 3.1-.5 2.7-.6-.3-1-2.6-1-5.1s-.7-5.8-1.5-7.3c-1.4-2.8-1.3-3 2-6.4 2.4-2.5 3.2-4.1 2.8-5.6s-.1-2.1 1.1-2.1c1.1 0 1.6.9 1.6 2.9m-141.3 5.3c-.2 1.3-.4.5-.4-1.7-.1-2.2.1-3.2.4-2.3.2 1 .2 2.8 0 4m200.4 10.2c-1.4 1.5-1.9 2.9-1.5 4.1.5 1.3.4 1.6-.4 1.1-1.9-1.1-1.4.5.6 2 1.1.9 1.3 1.3.4 1.4-.7 0-1 .4-.7 1 .3.5.2 1-.4 1-.5 0-1.2-.6-1.4-1.3q-.6-1.35-.6 0c-.1.6.4 1.5.9 1.8.6.3.9 3 .8 5.8-.1 5.2-.1 5.2-.7.7s-.6-4.5-1.4 1.9c-1 9.1-.9 13.4.3 10.3.5-1.2 1.2-2.2 1.5-2.2.4 0 .4.4 0 .9-.3.5-.1 1.2.5 1.6s.8 1 .6 1.4c-.9 1.3.9 2.8 4.2 3.4 2.1.4 3.1.3 2.7-.3-.3-.6-.2-1 .3-1 .9 0 2.6 5.5 2.3 7.2 0 .4.6.5 1.4.2.9-.4 2.1-.2 2.8.4.6.5 2.5 1.2 4 1.6 1.7.4 2.5 1.1 2.1 1.8-.5.7.1.9 2 .4s2.8-.2 3.3.9c.3.9 1.2 1.4 1.9 1.1 2-.8 4.5.4 3.7 1.7-.4.7 0 .8 1.3.3 1.4-.5 1.6-.4.8.4-1.3 1.3-4.6.2-3.7-1.3.4-.6 0-.8-1-.4-.9.3-5.4-.7-9.9-2.3s-8.4-2.7-8.6-2.5c-.3.3-1-.2-1.6-1s-2.6-1.9-4.3-2.4c-3.3-1-3.3-1-3.3 3.2 0 5.3.7 6.1 5 6.5 3.9.4 6 2.5 3.2 3.1-1 .2.1.9 2.8 1.7 4 1.1 23.6 8 28.3 9.9 3.2 1.3 2.4-9.2-.8-10.7-2.5-1.1-2.5-1.1.2-2.9 3.6-2.4 4.1-4.2 4.2-17.6.1-12.4.5-13.4 3.9-9.2 2 2.5 2.1 3 .8 3.5-1.8.7-2.1 4-.6 8 .7 1.8.7 3 0 3.9-1.2 1.5-1.1 10.3.2 11.1.4.3.6 1 .3 1.5s.1.6 1 .3c.9-.4 1.5-.3 1.4.2-.3 1.9.2 2.8.9 1.7.5-.8 1.1-.3 1.9 1.7 1.1 3 1.1 3-1.7 1.5-4.6-2.4-5.1-2-4.6 3.7.7 7.6.7 7.6-14.9 1.7-5.1-1.9-19.8-6.3-31.5-9.5-6.6-1.8-6.6-1.8-6.5-8.2 0-7.5.8-6.8-12.9-9.8-4.5-.9-7.3-2-6.6-2.4.9-.6.9-.9-.1-1.3-.8-.4 0-.4 1.6 0 1.7.3 3.4.9 3.9 1.4.5.4 1.6.5 2.5.2 1.4-.4 1.4-.3.1.6-1.2.9-1.1 1.1.8 1.1 1.3 0 2.1-.4 1.8-.8-.3-.5 1-.4 2.9.2 1.8.6 3.1 1.4 2.9 1.8-.3.4.2.8 1.1.8s1.4-.4 1.1-.9 0-1.1.8-1.4c1.7-.7 2.3-25.1.6-26.2-1.6-1-1.2-2.5.8-2.6 1 0 1.2-.3.5-.6-1.9-.7-1.6-3.3.5-4 .9-.4 2.8-1.8 4.1-3.2 1.7-1.8 2.6-2.2 2.9-1.3.2.8-.5 2.4-1.7 3.6m-207.4 5.8c-.2 1.3-.4.5-.4-1.7-.1-2.2.1-3.2.4-2.3.2 1 .2 2.8 0 4m81.9 4.5c-.5.4-1.1.2-1.4-.6-.4-1.1-.6-1.1-1.3 0s-.9 1-1-.4c-.2-2.6-.4-3.1-1.3-4.7-.5-.8.6-.1 2.5 1.7 1.8 1.8 2.9 3.6 2.5 4m-201.3 6.6c-.2.4-.3 1.3-.3 2s-.9 1.3-2 1.3c-1.3 0-1.9-.5-1.5-1.4.3-.7.5-1.7.5-2.2 0-.4.8-.7 1.8-.6.9.2 1.6.6 1.5.9m328.5 4.1c0 1.9.3 4.9.7 6.8.6 3.3.6 3.3-.9.5-.8-1.5-1.3-3.4-.9-4.2.3-.8 0-1.5-.6-1.5s-1.1-1.6-1.1-3.6c0-3 .2-3.4 1.4-2.5.8.7 1.4 2.7 1.4 4.5m45.2-3c0 .8-.4 1.8-1 2.1-.5.3-1-.3-1-1.4 0-1.2.5-2.1 1-2.1.6 0 1 .6 1 1.4m-416.4 7.8c.4.7.3.8-.4.4-.8-.5-1.2.5-1.2 3.3 0 3 .4 4.1 1.5 4.1.8 0 1.5.4 1.5 1 0 .5-.4 1-1 1-.5 0-1 .7-1 1.6 0 .8-.4 1.2-1 .9-1.1-.7-1.4-11.8-.3-12.8.9-.9 1.1-.9 1.9.5M321 68c0 1.5-2.7 2.3-4.7 1.6-1.5-.6-1.5-.8-.3-1.6 2-1.3 5-1.2 5 0m220.6 4.4c.1.9-.5 1.2-1.7.9-1.5-.4-1.7-.8-.8-1.9 1.3-1.6 2.2-1.2 2.5 1M440 76.1c1.1.6.9.8-1 .9-3.4 0-7-1.1-7-2.1 0-.9 5.6-.1 8 1.2m98.3-.5c-.4 1.1-.1 1.5 1.2 1.2 2.1-.4 4.7 3.2 2.8 3.9-.7.3-1.3 1.9-1.3 3.7s-.5 3.7-1.2 4.4c-.9.9-.9 1.2 0 1.2.7 0 1.2-.5 1.2-1.1 0-.5.5-.7 1-.4.6.3 1 2.2 1 4.1s-.4 3.4-1 3.4c-.5 0-1 .5-1 1.1 0 .5.5.7 1 .4.6-.4 1 .6 1 2.4 0 3.6.9 6.1 2.2 6.1.5 0 .7-.4.3-.9-.3-.5-.1-1.2.4-1.5s1.1.8 1.3 2.4c.4 2.9-.5 4-1.7 2-1.5-2.4-2.6-.6-2.4 3.9.2 4.1.5 4.8 2.1 4.3 1-.2 1.8.1 1.8.7 0 .7 1.5 2.6 3.3 4.3 3.2 3 3.2 3-2.5 0-3.1-1.6-6.2-3.5-7-4.1-.7-.6-2.2-1.9-3.3-2.7-1.1-.9-1.4-1.3-.7-.9.9.5 1.2-.8 1.2-5 0-3.7-.4-5.7-1.3-6.1-1.1-.4-1.1-2.3-.2-10.2.7-5.3 1-11.2.8-13s-.1-3.8.2-4.3c1-1.5 1.5-1 .8.7m-6.7 35.1c1.9.9 3.4 2 3.4 2.5s-1.8-.1-4.1-1.2c-2.3-1.2-4.3-1.9-4.6-1.6-.7.6-3.2-2.4-3.3-3.9 0-.5.5-.4 1.2.3 2 2 2.8 1.4 3-2.1.1-3 .2-3 .5.6.4 3.2 1 4.1 3.9 5.4m38.4 31.8c-.7 5-.7 5-.9.4 0-2.5.2-4.9.6-5.2 1-1.1 1.1-.5.3 4.8"/><path d="M470 84c0 3.3.4 6 1 6s1-2.7 1-6-.4-6-1-6-1 2.7-1 6m4.2 6.5c1 1.1 6.8 2.3 6.8 1.5 0-.4-1-1-2.2-1.4-2.9-.7-5.3-.8-4.6-.1m43.8 4c-.5 3.7-.4 10.5.1 10.5 1.1 0 1.8-7.1.9-9.3-.5-1.2-.9-1.8-1-1.2m21.6 10.7c-.9 3.6-.7 9.8.4 9.8.6 0 1-2.7 1-6 0-6.4-.4-7.4-1.4-3.8M272.9 44.5c-.1 1.1-.3 2.7-.5 3.5-.1.8-.2 2-.3 2.6-.1.7-1.1 1.5-2.3 1.9-2.1.6-2.1.8-.4 1.2 1 .3 2.2 0 2.6-.6.3-.7 1.4-.9 2.2-.6 1.4.6 1.5.1.7-3.7-1.3-5.8-1.7-6.7-2-4.3m13.9 14.2c1.7.2 4.7.2 6.5 0 1.7-.2.3-.4-3.3-.4s-5 .2-3.2.4m36.5 0c1.5.2 3.7.2 5 0 1.2-.2 0-.4-2.8-.4-2.7 0-3.8.2-2.2.4M274 60c-2.4.8-2.3.8.8.9 1.7.1 3.2-.4 3.2-.9 0-1.1-.5-1.1-4 0m67.2 5.4c0 3.5-.3 6.9-.6 7.5-.5.7.4 1.1 2.3 1.1 3.2 0 4.4-1.9 1.4-2.1-1 0-.3-.5 1.5-1 1.7-.5 3.2-1.4 3.2-1.9 0-.6.7-1 1.5-1s1.5-.5 1.5-1c0-.6-.5-1-1.1-1-.5 0-.8-.4-.5-.9s-.1-1.2-1-1.5c-.8-.3-1.2-1-.9-1.6.4-.6-.6-1-2.4-1-1.7 0-3.1-.5-3.1-1 0-.6-.4-1-.9-1s-.9 2.9-.9 6.4m-5 .6c-.1 3.2.3 6.2.8 6.5.6.4 1-1.9 1-5.9 0-8.2-1.5-8.8-1.8-.6m-86.5-3.3c-.9.2-1.5.9-1.2 1.4.4.5-.4.9-1.7.9-1.5 0-1.9-.3-1.1-.8 1.5-1-9.5-.5-19.7.8-4.1.6-10.3 1.1-13.7 1.1-4.7.1-6 .5-5.7 1.5 1.4 4.6 1.3 4.5 3.4 3.4s2.6.2 2.2 5.2c-.1 1 .5 1.8 1.4 1.8.8 0 1.2-.5.9-1-.3-.6.1-1 .9-1 .9 0 1.6-.6 1.6-1.3.1-.7.6-.4 1.5.7s1.8 1.5 2.7 1c.7-.5 2.6-.7 4.1-.5 1.5.1 3.5-.3 4.4-1.1 1.3-1 1.7-1 2-.1.6 1.7 3 1.7 4 0 1.5-2.5 11.3-4 14.1-2.1 1.3.9 2.2 1.2 1.8.6-.3-.6 1.3-1.3 3.9-1.6 4.1-.7 4.5-1 4.5-3.6 0-5.8-2.8-7.2-10.3-5.3m29 1.3c-.3 1.3 0 2 .9 2 .8 0 1.4-.9 1.4-2s-.4-2-.9-2-1.1.9-1.4 2m-12.5 1.6c.2 2 .8 2.8 1.8 2.5.8-.2 3-.3 4.8-.2 4.4.1 3.7-2.2-.9-3-1.9-.3-4-.9-4.8-1.3-.9-.6-1.2-.1-.9 2m-68.9 2.1c-.8.3-1.3 2.3-1.3 5.1 0 3.3.3 4.3.9 3.2.6-.8.7-1.8.4-2.3s.4-.4 1.6.2c1.2.7 2.1.8 2.1.2 0-.5.3-1.6.6-2.5.4-1.1.1-1.6-1.1-1.6-1.1 0-1.5-.5-1.1-1.5.6-1.5.1-1.7-2.1-.8m7.1 2.8c.3.9 0 1.5-.9 1.5-.8 0-1.5.6-1.5 1.3 0 2.8 3.7 1.3 3.8-1.5 0-1.5-.4-2.8-1-2.8-.5 0-.8.7-.4 1.5m77.6 5.3c-3.5.3-4.1.6-2.5 1.2 1.4.6.3.8-3.5.8-4.7 0-5.1-.2-2.5-.9 2.3-.6 2-.7-1.5-.3-2.5.3-5.7.6-7.2.7-1.4.1-2.4.5-2.1.9.2.5-.5.8-1.7.8s-1.8-.5-1.5-1c.7-1.1-4.4-1.4-7.1-.3-1.6.6-1.6.7.2 1.4 1.6.6 1.6.8.2.8-.9.1-2-.4-2.3-.9-1-1.6-3.5-1.2-3.5.6 0 1.5 1 1.6 7.8 1 18.8-1.6 55.8-2.5 76.1-1.7 9.5.3 17.8.3 18.5-.1.6-.4-2-.8-5.9-.9-6.3-.2-6.5-.3-2.5-.8 3.5-.5 4-.8 2.3-1.3-2.4-.6-53.6-.7-61.3 0M200.5 78c.4 1.3.2 2-.6 2-.7 0-1 .3-.6.6.9.9 6.8-.7 6.1-1.7-.3-.5-1-.7-1.5-.4-.5.4-1.4.3-2.1-.1-.8-.5-.6-1 .8-1.5 1.7-.7 1.7-.8-.4-.8-1.9-.1-2.2.3-1.7 1.9m-54.3 4c0 2.2.3 4 .9 4 1.2 0 1.2-6.7 0-7.4-.5-.3-.9 1.2-.9 3.4m88.1-3.1c-6.3 1.1-6.1 1.8.2 1.3 3-.2 6.1 0 6.7.6.8.5 2.2.6 3.3.1 1.3-.5 1.5-.8.5-.8-1.3-.1-1.3-.2 0-1.1 1.8-1.1-3.9-1.2-10.7-.1M217 81c-.8.5-2.4.7-3.6.4s-2.7.1-3.5.8-3.4 1.4-5.9 1.5c-12.3.7-15.3 1.1-16 2.3-.5.7-3.7 1.4-8.1 1.6-4 .2-9.8 1.1-12.8 2-3.1 1-6.8 1.8-8.3 2-1.5.1-3.5.7-4.5 1.3-3 1.7 2 1.4 11.7-.8 7.3-1.6 17-3.3 26.9-4.6 1.4-.2 6.9-1.1 12.1-1.9 5.2-.9 11.5-1.6 14-1.6 3.3 0 5-.5 6.3-2 1.4-1.7 1.4-2 .2-2-.8 0-1.5.4-1.5 1 0 .5-1.2 1-2.6 1s-2.3-.4-1.9-1c.8-1.3-.5-1.3-2.5 0m126.1 1.4c.7.7 13.9 1 14.6.3.3-.4-2.9-.7-7.2-.7s-7.6.2-7.4.4m2.2 2.3c-4.3.4-4.3.4-4.3 5.9 0 5.4 0 5.4 6 5.4 3.3 0 6 .4 6 .9s.9 1.1 2 1.4c4.5 1.2 1.8 2.7-4.7 2.6-4.7 0-6.2-.3-4.8-.9 1.6-.7 1.3-.9-1.7-.9-4.1-.1-3.9-.3-4.2 7.1-.1 4.2 0 4.3 3.4 4.6 9.7.7 12 1.3 12 3.3 0 1.4.7 1.9 2.8 1.9 2.7 0 2.7 0 2.2-7.1-.5-6.7-.4-7.2 2.3-10.2 1.6-1.8 2.5-2.4 2.2-1.5-.6 1.6 0 1.8 6.7 1.8 4.1 0 7.8.4 8.3.9.6.5 1.9 1.1 3 1.4s.3.5-1.8.6c-2.1 0-3.6-.2-3.4-.7.3-.4-2.6-.8-6.5-1-7-.3-7-.3-6.6 8.2.3 8.5.3 8.5-3.2 8.9-3.3.3-3.2.4.8.5 2.3.1 4.2-.2 4.2-.7s2.5-.7 5.6-.4c3.8.3 5.4.1 4.9-.6-1-1.7 1.1-1.3 2.5.4 1.9 2.3 9 2 9-.4 0-1 .7-2.4 1.5-3.1 1.3-1.1 1.4-.8 1.1 1.9-.2 2.2.1 3.1 1.1 3.1.8 0 1.3-.6 1.2-1.3-.1-.6.1-2 .6-3 .4-1 .5-3.4.2-5.3-.4-2.4-.2-3.4.6-3.1 1 .3 1.1 10.2.1 11.9-.8 1.2 1.6 2 6.1 2 2.5 0 4.5.3 4.5.6 0 .4 3.3.7 7.3.8 3.9 0 10.2.3 14 .6 3.9.4 6.7.3 6.7-.3 0-.5-.7-.9-1.5-.9-1.2 0-1.5-1.3-1.5-6.1 0-5 .3-6 1.5-5.5.9.3 1.5 0 1.5-.8 0-2.5 3.4-5.8 5.3-5.1.9.4 1.4 1.1 1.1 1.6s1.1.9 3 .9c2 0 3.6-.5 3.6-1 0-.6.5-1 1.1-1s.9.7.5 1.5q-.6 1.5 1.5 1.5c1.2 0 1.9.5 1.7 1.2-.6 1.8-2.4 2-3.9.5-.8-.7-2.6-1.2-4.1-1s-2.9-.1-3.3-.7c-1.6-2.6-2.4-.4-2.7 7.4-.3 8.4-.3 8.4 6 9.1 3.4.4 6 1.1 5.7 1.6-.4.5-.1.9.4.9.6 0 1.1-.5 1.1-1.1 0-.7 1.1-.8 3.1-.4 1.9.4 2.9.3 2.6-.2-1.7-2.7-1-15.4.9-16.7 1.5-1.1 2-1.1 2.9-.1.5.7 3.6 1.5 6.8 1.9 5.7.6 5.7.6 5.7-2.3 0-1.7-.4-3.3-1-3.6-.5-.3-1 .4-1 1.6 0 1.8-.2 1.9-1.5.9-.8-.7-1.3-1.6-1-2 .7-1.2-1.7-2.7-5.5-3.4-1.9-.3-4.6-.8-6-1.1-8.7-1.9-12.3-2.4-12.9-2.1-.4.3-2.5 0-4.7-.5-2.1-.6-5.6-1.2-7.8-1.3-2.1-.2-4.2-.9-4.6-1.6-.4-.6-3.5-1.8-6.9-2.5-6.3-1.3-6.3-1.3-5.9 6.1.2 6.1 0 7.4-1.2 7.4s-1.5-.9-1.2-3.8c.2-2-.2-5.1-.9-6.7-1.3-2.9-1.3-2.9-1.9 3.5s-.7 6.4-.8 1.4c-.3-7.5-1.4-8.1-15.7-8.8-27.4-1.5-39.7-2.9-40.3-4.7-.2-.5-.7-.8-1-.7-.4.1-2.6.3-4.9.5m78.5 12.8c.3.3-1.1.5-3.1.5-2.5 0-3.7-.4-3.7-1.4 0-1.4 5.2-.7 6.8.9m-38.2 13.6c.1 6.4.1 6.4-.3.6-.2-3.1-.8-5.7-1.3-5.7-.6 0-1-.5-1-1.1s.6-.9 1.3-.7c.8.3 1.2 2.7 1.3 6.9m5.1-3c.1 1.9-.1 2.5-.4 1.4s-.9-2.4-1.4-3c-1.3-1.3-1.1-2.7.4-2.3.6.3 1.3 2 1.4 3.9m9.5 3.8c-.3 4.7-.7 5.9-1.8 5.4-1.7-.6-1.9-2.3-.3-2.3.8 0 1-1.7.7-4.9q-.45-4.95.6-4.5c.7.3 1 2.7.8 6.3m4.7-3.2c0 1.6-.3 2.2-.6 1.3-.3-.8-1-2.1-1.6-2.8-.7-.8-.5-1.2.7-1.2 1.1 0 1.6.8 1.5 2.7m4.4-2.1c.4.4.3 1.2 0 1.7-.4.6-.6 3-.4 5.4.1 2.4-.2 4.3-.7 4.3-1 0-2.1-9-1.4-11 .4-1.1 1.6-1.3 2.5-.4m4.7 6c0 4.1-.4 5.4-1.5 5.4-1.5 0-2.3-9.9-.9-11.3 1.5-1.5 2.4.8 2.4 5.9m4.4-1c-.4 2.9-.1 5 .6 5.9 1 1.3.8 1.5-1.3 1.5-2.4 0-2.5-.1-1.6-4.2.6-2.3 1.2-4.5 1.4-4.9.3-.4 0-.9-.7-1.1-.6-.2-.8-1-.4-1.6 1.5-2.4 2.6 0 2 4.4m4.8 2.4c-.2 3.3-.8 6-1.3 6-.6 0-.7-.5-.4-1 .4-.6.1-1.8-.7-2.7-1.1-1.4-1.1-1.7.1-2.1 1.1-.4 1.1-.6 0-1.3s-1.2-1.1-.1-1.7c.7-.5 1-1.6.6-2.5-.4-1.2-.2-1.6.7-1.2 1 .4 1.3 2.1 1.1 6.5m-42-1c.3 1.6.1 3-.4 3-.4 0-.8-1.4-.8-3 0-1.7.2-3 .4-3s.6 1.3.8 3m46.8 5.6c0 .8-.4 1.4-1 1.4-.5 0-1-.9-1-2.1 0-1.1.5-1.7 1-1.4.6.3 1 1.3 1 2.1M265.5 86.8c.3.8.5 3.2.5 5.4 0 4.1 0 4.1 5 3.6 2.7-.3 4.7-.1 4.4.4-.7 1.1-10.1 1-10.9-.2-.9-1.5-2.5-1.2-2.5.4 0 1 2 1.4 7.5 1.5 4.7.1 7.5-.2 7.5-.8s.5-1.1 1.2-1.1c.6 0 .8.3.5.7-.4.3 0 1.1.8 1.7 1.2.8-.7 1-7.5.8-9-.3-9-.3-9 8.3s0 8.7 2.3 8.1c1.2-.3 2.6-.6 3-.6.5 0 .5-.5.2-1-.4-.6 1.3-1 4.5-1s4.9.4 4.5 1-.3 1 .2.9c.4-.1 1.6.1 2.6.6 1 .4 4.1.5 7 .1s5.7-.7 6.4-.8 1-.5.7-1c-.3-.4.1-.8.8-.8.9 0 .9-.3-.2-1-1.3-.8-1.2-1 .3-1 .9 0 1.7.4 1.7.9s.3 1.6.6 2.4c.4 1.1-.2 1.7-2.3 2-1.5.2 4.8.5 14.1.6 16.1.1 20.2-.3 12.7-1.1-3.1-.4-5.9-2.8-3.2-2.8.6 0 1-.3 1-.8-.4-2.2.3-2.4 1.4-.3.6 1.4 1.9 2.6 2.7 2.8q1.35.3.3-.3c-1.5-.7-1.7-3.4-.3-3.4.6 0 1-1.8 1-4s-.5-4-1.1-4c-.5 0-.7-.5-.3-1.1 1.3-2.1 2.3.7 2.5 6.8.2 6.5.4 6.9 2.8 5.4 1.1-.7 1.3-2.4.8-7.2-.3-3.9-.2-5.7.4-4.8.5.8.9 3.8.9 6.6 0 4.6.3 5.3 2 5.3 2.3 0 3-8.6.9-10.7-.8-.8-.4-1.6 1.5-2.8 2.2-1.5 2.6-2.5 2.6-6.4 0-7.7-1.9-8.7-2.1-1.1-.2 6.5-.2 6.5-.8 1.1-.9-8.3-3.3-8.8-30-6.8-19.8 1.4-22.5 1.3-25.1-1.3-1.3-1.3-15-.5-14.5.8m61.3 4.2c1.2 0 2.2.4 2.2 1s-3 1-7 1c-3.8 0-7-.4-7-.9 0-1.5 2.2-2.1 6-1.6 1.9.3 4.5.5 5.8.5m-26.5 1.7c-2.3.2-6.4.2-9 0s-.7-.3 4.2-.3c5 0 7.1.1 4.8.3m31.5 7c-1.6.2-4 .2-5.5 0-1.6-.2-.3-.4 2.7-.4s4.3.2 2.8.4m-39.8 3.4c0 .5-.7.9-1.5.9s-1.5-.7-1.5-1.5c0-.9.6-1.2 1.5-.9.8.4 1.5 1 1.5 1.5m10 0c0 .5-.7.9-1.5.9s-1.5-.7-1.5-1.5c0-.9.6-1.2 1.5-.9.8.4 1.5 1 1.5 1.5m5 .4c0 2.4-1.2 4.5-2.2 3.9-.5-.3-.4-1.1.3-2 .8-1 .8-1.4 0-1.4-.6 0-1.1-.7-1.1-1.5 0-.9.6-1.2 1.5-.9.8.4 1.5 1.2 1.5 1.9m-15 6.2c0 5.6-.6 5.4-1.4-.5-.3-2.4-.1-4.2.4-4.2.6 0 1 2.1 1 4.7m-10.2 2c.9 2.6.8 3.1-.4 2.6-.8-.3-1.4-1.8-1.4-3.6 0-3.5.3-3.4 1.8 1m24.4-.2c.4 1.7.1 2.5-.8 2.5-1.4 0-1.9-3.1-.7-4.3.9-1 1-.9 1.5 1.8m-4.4.5c1.1 1.8 1 2-.8 2-1.3 0-2-.7-2-2 0-1.1.3-2 .8-2 .4 0 1.3.9 2 2m11.8 1c.8 0 1.3-.4.9-.9-.3-.5-.1-1.2.4-1.5 1.4-.9 2.2 2.3 1.1 4.2-.5 1-1 1.2-1 .4 0-1.3-2.1-1.2-3.1.2-1.5 1.9-2.7-.4-1.6-2.9.8-1.7 1.3-2 1.5-1 .2.8 1 1.5 1.8 1.5m100-25c1.1.4 5.2 1.1 9 1.4 6.9.5 6.9.5.9-.9-6.8-1.6-13.5-2-9.9-.5M252 90.7c-5.9.3-21.9 2.2-29.5 3.5-8.3 1.5-12.5 1.2-14-.9-1.2-1.5-1.7-1.6-4.7-.5-1.9.6-4.4 1.2-5.5 1.2-1.8 0-2.2.7-2.5 5.4-.3 5.4-.3 5.4 5.7 5 4.7-.2 4.1 0-3 1-12.9 1.9-13.8 2-15.9 1.1-1.2-.5-2.1-.3-2.8.6-.7 1-1.1 1.1-1.4.3-.3-.7-1.4-.9-2.5-.7-1.6.5-1.8.8-.7 1.4 1 .7.9.9-.4.9-.9 0-1.8-.5-2-1.1-.3-.9-1-.9-2.6 0-2.8 1.5-3.4 15.1-.7 15.1.8 0 1.5-.5 1.5-1.1s.9-.8 2-.4 2 .2 2-.4 1.7-1 3.8-1c3.7.2 3.7.2.2.9s-3.5.7.8.9c4.2.1 4.2.1 4.2-6.4 0-7.7 1.8-8.8 2.2-1.3.3 5.9 2.7 8.1 2.9 2.6.1-3.3.1-3.3.8-.4 1 4.7 2.6 2.6 2.5-3.2-.1-3.8.2-5.2 1.2-5.2s1.4 1.6 1.4 6c0 5.4 1.8 8.9 2.1 4 .1-1.1.2-2.9.3-3.9.2-3.6 1.4-3.2 2.1.6 1 5.4 1.7 5.6 11.3 3.7 2.2-.4 3.5-7.4 1.3-7.4-1.3 0-2-3.6-1-5.1 1.4-2.2 2.9.8 2.9 5.7 0 5.8 2.9 8.3 3.2 2.8.1-3.7.1-3.7.5-.7.3 1.9 1 3.3 1.8 3.3.9 0 1.2-.9 1-3-.3-2.2 0-3 1.1-3 .8 0 1.3.4.9 1-.3.5-.3 2.1.1 3.5.6 2.4 1 2.6 5.8 2.3 5.9-.3 7.6-1.6 7.5-5.5-.1-2.8-.1-2.8-1 .4-1.3 4.4-5.9 5-5.1.7.5-2.7.5-2.7 1.8-.3 1.3 2.3 1.4 2.1 1.2-2.1-.2-3.6-.7-4.5-2-4.4-1 .1-1.8-.5-1.8-1.3 0-.7.6-1.3 1.3-1.2 2.4.3 3.7-.1 3.7-1.2 0-.6-1.3-.8-3.2-.5-1.8.2-7.8.7-13.3 1-12.5.6-4.1-.8 10.7-1.9 8.7-.6 9.7-.9 10.2-2.8.4-1.6.8-1.9 1.4-.9.6.9 3.1 1.3 8.1 1.1 4-.1 7.6.2 8.2.8s-1.3.8-5.3.7c-4.8-.2-5.6-.1-3.3.5 3 .9 3 .9-.2 1-1.7 0-3.4-.5-3.7-1.2-.5-1-.7-1-1.2 0-.3.7-1.2 1.3-2 1.3-1.1 0-1.4 1.5-1.4 6.4 0 6.4 0 6.4 7.5 6 4.6-.2 7.5 0 7.5.6 0 .5 1 1 2.3 1 2.1 0 2.2-.3 1.8-6.2-.1-3.5-.8-6.6-1.5-7-.7-.5-.5-.8.5-.8 2.1 0 2.9-2 2.9-7 0-4.2-.7-4.6-8-4.3m-25 15.4c0 .5-.7.9-1.5.9-1.5 0-2-1.2-.9-2.3.8-.8 2.4.1 2.4 1.4m-18 1.8c-.1 2-1.8 3.2-2.4 1.6-1-2.6-.7-3.5.9-2.9.8.4 1.5.9 1.5 1.3m-5 .8c0 2.5-2 5.5-2 3.1 0-.9-.3-2.3-.6-3.2-.4-1.1-.1-1.6 1-1.6.9 0 1.6.8 1.6 1.7m47.9 1.2c.9.6 1 1.1.2 1.5-1.3.8-3.1-.1-3.1-1.5 0-1.1 1.1-1.1 2.9 0m-24.7 5.8c-.7 2-2.2 1.5-2.2-.6 0-3.9 1.3-5.9 2-3.1.4 1.4.5 3.1.2 3.7m-18.2.8c0 .8-.7 1.5-1.5 1.5-1.6 0-2-1.2-.8-2.3 1.1-1.2 2.3-.8 2.3.8m-58.4-22.3c.5.8.2.9-.9.5-.9-.3-1.9-.1-2.3.4-.4.7.3.9 1.7.7 2.3-.3 4-2.8 1.9-2.8-.6 0-.8.5-.4 1.2m-5.7 1.2c-.2.3-1.6.7-2.9 1-3 .6-10.8 3.4-9.7 3.5 2 .2 13.7-3.2 13.7-4 0-1-.4-1.1-1.1-.5m-44.8 5.5c.1 2.7.6 4.8 1.1 4.5 1.2-.8 1-8.2-.3-8.9-.6-.5-.9 1-.8 4.4M475 98.8c0 1 9.3 4.2 12 4.2 2.5 0-.2-1.8-4.4-2.9-2.4-.6-5.1-1.3-6-1.7-.9-.3-1.6-.1-1.6.4"/><path d="M182.6 101.9c-.4.6-1.3.8-2.2.4-.9-.3-1.4 0-1.2.8.7 3.3 9.1 3.9 8.6.6-.3-2.3-4.1-3.7-5.2-1.8m291.8 4.2c-.5 4.1-1 4.9-2.3 4.4-.9-.4-4.2-.8-7.3-1-5.8-.4-5.8-.4-5.8 7 0 4.1.5 7.7 1 8 .6.3 1-.1 1-1 0-1.6.5-1.6 8.7.5 3.2.8 3.2.8 3.5-4.3.2-2.8.8-5.2 1.4-5.4 1.4-.5 1.3 10.9-.1 11.9-.5.4.4.7 2 .7 1.7 0 2.5-.3 1.8-.5-.8-.4-.9-1.4-.2-3.7.5-1.8.6-4.5.3-6.1-.4-2-.3-2.6.6-2.1.7.4 1 2.6.9 5.4-.3 4.6 0 5.1 2.4 5.1.9 0 .8-.3-.2-.9s-1-1.3-.3-2.8c.6-1.1.8-2.9.5-4.1-.3-1.3-.1-2.2.6-2.2 1.9 0 1.2 11.8-.8 12.3-.9.3-.4.5 1.2.6 2.7.1 2.7 0 2.7-5.9 0-3.7.4-6 1.1-6s.9 2.2.7 6.4c-.3 5-.1 6.3 1 5.9.9-.4 1.3-2.1 1.2-5.2-.2-6.4-.1-7.3.9-6.7.4.3.7 3.5.7 7.1-.1 4 .2 6.4.9 6.2.5-.2 1.1-2.8 1.1-5.8.1-3 .5-5.4.9-5.4.5 0 .8 1.8.8 4-.1 5.7 1.2 8.5 3.9 8.5 2.2 0 2.3-.3 2-6-.3-3.9 0-6 .7-6s.9 1 .5 2.5c-.8 3.2.4 9.5 1.7 9.5.7 0 1-2 .7-5.3-.1-2.9.1-5.2.6-5.2s.8 2.4.7 5.4c-.2 3.6.2 5.7 1.1 6.2 3 1.9 3.8.9 3.8-4.5 0-3 .5-5.8 1-6.1.6-.4 1 1.5 1 4.9 0 3.1.3 5.6.8 5.6.4 0 .7-2.9.8-6.5.1-3.9-.3-6.5-.9-6.5s-.3-.6.7-1.3c1.6-1.2 1.4-1.5-2.2-3.1-2.2-1-4.6-1.5-5.3-1.1-.7.5-1 .4-.6-.2.6-.9-8.8-4.4-13.3-4.9-3.1-.4-4.5-1-6-2.6-.8-.9-3.9-2.3-6.7-3.2-5.2-1.5-5.2-1.5-5.9 3.5m24.6 17.4c0 3-.4 5.5-.9 5.5s-.9-2.5-.9-5.5c.1-3 .5-5.5 1-5.5.4 0 .8 2.5.8 5.5m10.5 2.5c0 3.3-.3 6-.7 6-.5 0-.8-2.7-.8-6s.4-6 .8-6 .8 2.7.7 6m-349.2-19.1c.4 1.6-.3 2-5.1 2.6-8.2 1-8 .7-7.9 9.1 0 4.5.3 7 .8 6.2.5-.7.9-2 .9-2.9 0-1 1.2-1.9 3.2-2.3 1.7-.3 3.9-1.3 4.9-2.2 1.5-1.3 1.7-1.3 2.2.6.3 1.3 0 2.3-.9 2.7-.8.3-1.4 1-1.4 1.5 0 .6.7.8 1.5.4.8-.3 1.5-.1 1.5.4 0 .6.5 1 1 1 .6 0 1-3.1 1-7.4 0-7.4 0-7.4 3-8 1.7-.3 3-1 3-1.6 0-.5-1.3-.7-3-.4-1.9.4-3 .2-3-.5 0-.6-.5-1.1-1.1-1.1s-.9.9-.6 1.9m-3.7 7.3c-1.1.6-3.3 1.2-5 1.4-3.1.2-3.1.2-.1-1.1 3.9-1.8 8.1-2.1 5.1-.3m-14.3-4.4c-4 1.6-7.6 4.2-4.1 2.9.9-.3 3.5-1.1 5.8-1.7 2.2-.6 3.8-1.5 3.5-2-.4-.6-.7-1-.8-.9-.1 0-2.1.8-4.4 1.7m289.5 2.4c-.2 1.3-.1 3.4.3 4.8.5 1.9.7 1.4.8-2.3.1-5-.4-6.2-1.1-2.5m-91.3 1.8c-.7 1.1 3.3 2 9 1.9 4.1 0 4.6-.2 2.7-1-1.3-.5-2.7-.7-3.1-.5-.4.3-2.4.1-4.4-.4-2-.4-3.9-.4-4.2 0m-215.3 2c-12.4 2.2-17.4 3.8-16.6 5.2.4.7.9.7 1.3 0 1.1-1.7 9.6-1.9 9.7-.2.1.8.3 3.3.4 5.5.2 3.8.2 3.9 1 1.2.9-2.8.7-5.8-.5-7.7-.7-1.2 4.2-3.3 5.6-2.4.5.3.9 2.5.9 4.9s.5 4.7 1.1 5.1c.9.5 1-.9.7-5-.4-4.2-.1-5.6.9-5.6.9 0 1.3 1.6 1.3 5.5 0 3.4.4 5.5 1.1 5.5.8 0 1-1.9.6-6.1-.4-4.3-.2-5.9.6-5.6.7.2 1.3 2.7 1.5 5.5.2 2.9.8 5.2 1.4 5.2.7 0 .8-1.9.4-5.9-.6-5.5-.5-5.9 1.2-5.4 1.1.2 2.3 0 2.6-.6 1-1.5-2.8-1.3-15.2.9m393.5 6.9c.2 4.7.3 9.1.3 9.7s1.5 1.4 3.3 1.7c1.7.3 4.7.9 6.5 1.3 3.2.6 3.2.6 3.2-5.8 0-5.9-.2-6.6-2.6-7.9-2.6-1.4-2.6-1.4.2-2.5 2.8-1.2 2.8-1.2-1.4-3.3-5-2.5-7-2.8-5.2-.6 1.6 1.9.1 1.9-2.5.1-1.9-1.3-2-1.1-1.8 7.3m-417.9.4c-.1 4.8-.3 5.8-.5 2.9-.4-4-.6-4.2-3.1-3.6-6.3 1.4-6.2 1.3-6.2 6.5 0 5.5 1.5 6.3 7 3.4 2.7-1.4 3-1.4 3 .1 0 .8.6 1.4 1.3 1.1.8-.2 1.2-2.6 1.2-7.1 0-4.3.4-6.9 1.3-7.5.9-.5.5-1.1-1.3-1.9-2.5-1.2-2.5-1.2-2.7 6.1m191.9-4.6c-.4.3-7.1.5-15 .4-7.8-.1-21.4.3-30.2.9-8.8.7-18.5 1.3-21.5 1.5-3 .1-10.9.8-17.5 1.4s-14.2 1.3-16.9 1.5c-2.6.2-5.1.8-5.5 1.4-.3.5-1.5 1.2-2.6 1.5-4 1 4.2.7 22.5-.8 10.2-.9 19.2-1.8 20-2.2 1.7-.7 2.8-.9 8.5-1.7 2.8-.5 3.6-.3 2.5.4-1.9 1.3-.5 1.3 23.5-.1 21-1.2 70.8-1.1 96.5.1 11.3.6 16.7.5 17.1-.2.4-.6 1.9-.8 3.3-.6 1.5.3 2.9.1 3.2-.3.3-.5.2-.9-.3-1-.4 0-2.5-.2-4.6-.5-9.6-1.2-26.9-1.8-34.1-1.3-4.4.3-10 .2-12.5-.2-5.7-1-35.5-1.1-36.4-.2"/><path d="M123.8 124.1c-.2 2.2 0 4.3.4 4.5.4.3.8-1.5.8-4 0-5.7-.7-6-1.2-.5m-38.9-2.5c-.1.5-.2 1.3-.4 1.9-.1.5-.3 3.2-.4 6-.3 4.1-.4 4.6-1.1 2.5-.8-2.4-.8-2.4-.9-.3-.1 1.6-.7 2.3-2.1 2.3-1.1 0-2 .5-2 1.1 0 .7 1 .9 2.6.5 1.5-.4 3.2-.2 4 .5 1.2 1 1.4 0 1.4-5.9 0-5.7.3-7 1.4-6.6.8.3 1.7.1 2.1-.5.3-.6.2-1.1-.4-1.1-.5 0-1.6-.3-2.5-.6s-1.7-.2-1.7.2m31.1 3.8c0 2.5.5 4.6 1 4.6.6 0 1-1.8 1-3.9 0-2.2-.4-4.3-1-4.6-.6-.4-1 1.2-1 3.9m271-3.4c0 .5-1.5 1-3.2 1.1-6.6.2 1.4 1.6 12.8 2.3 6 .4 12.9.9 15.4 1.1 9.5 1 33.9 2.7 42.1 3 4.7.2 10.6 1 13.1 1.8 2.5.9 8.1 1.8 12.5 2 4.4.3 8.9 1 10.1 1.6 2.6 1.4 5.5 1.4 4.7.1-.9-1.4 7.8 0 8.8 1.4.5.8 1 .6 1.7-.4.8-1.3-.6-1.8-8.8-3.2-15-2.6-37.5-5.8-39.7-5.7-1.1.1-4.5-.4-7.5-.9-10.8-2.1-52.3-4.7-52.8-3.4-.4 1.4-5.2 1.6-5.2.3 0-.6.9-.8 2-.6s2 0 2-.6c0-.5-1.8-.9-4-.9s-4 .4-4 1m-275.5 1c-.3.5-1.2.7-2 .3-.8-.3-1.5 0-1.5.7 0 .6-.4.8-1 .5-.6-.4-.9 1-.8 3.7.1 3.7.2 3.8.5 1 .5-3.4 2.3-3.5 2.3-.1 0 3 2 1.2 2.1-1.9 0-2.4.1-2.5.8-.7.5 1.1.7 2.3.5 2.7-.3.4 0 .9.6 1.3s1-1.1 1-3.9c0-4.3-1.1-5.9-2.5-3.6m38.9 1.6c-1.7 1.4-1.7 1.5-.1 1 1-.3 2.8-.6 4-.6 1.8 0 1.9-.2.7-1-2-1.3-2.3-1.3-4.6.6m117.6 2.3c0 .6.9.9 2 .8s2-.5 2-.9-.9-.8-2-.8-2 .4-2 .9m70-.1c0 .4.9.8 2 .9s2-.2 2-.8c0-.5-.9-.9-2-.9s-2 .4-2 .8m-181.4 1.4c-5.6.6-8.3 1.4-9.2 2.6-1.7 2.3-1.5 2.3 3.6.6 2.5-.9 7.8-1.8 11.8-2.1s7.5-1 7.8-1.4c.6-1.1-3.2-1-14 .3M372 128c0 .5 1.1 1 2.5 1s2.5-.5 2.5-1c0-.6-1.1-1-2.5-1s-2.5.4-2.5 1m17 1c0 .5.9 1 2 1s2-.5 2-1c0-.6-.9-1-2-1s-2 .4-2 1m16.5 1c.3.5 1.5 1 2.6 1 1 0 1.9-.5 1.9-1 0-.6-1.2-1-2.6-1s-2.3.4-1.9 1m-265.8.6c-.3.3-3 1-5.9 1.5-5.3.8-5.3.8.6.4 5.6-.4 7.5-.9 6.4-2-.2-.3-.7-.2-1.1.1m167.8.1c17.1.7 35.3.7 34.8 0-.2-.4-9.7-.6-21.1-.5s-17.5.3-13.7.5m37.4.4c-.9.5 1.4.9 6.2.9 4.2 0 13.8.3 21.5.6 7.6.4 13.6.4 13.2 0-.3-.4-5.7-.9-12-1.2-6.2-.2-15-.6-19.4-.8-4.5-.2-8.7 0-9.5.5m85.1.9c0 .5.9 1 2.1 1 1.1 0 1.7-.5 1.4-1-.3-.6-1.3-1-2.1-1s-1.4.4-1.4 1"/><path d="M387.5 133c-.2.4 7.6 1.2 17.3 1.8 27.4 1.9 30.9 2.2 43.7 3.8 6.6.8 16 1.9 20.8 2.5 11.8 1.4 19.9 3.1 11.7 2.4-3-.2-10.9-1.1-17.5-1.9-14.5-1.9-40.3-4.3-54-5.1-5.5-.3-11.1-.8-12.5-1-11.7-1.9-117.7-2.8-143-1.2-54 3.5-113.5 11.4-111.4 14.8.2.4-.7.6-2.1.3-4.8-.9-25.3 4.5-46.5 12.1-10 3.7-23 10.1-23 11.4 0 .4-1.2 1.2-2.7 1.9-2.2.9-2.3 1-.4.6 1.3-.4 2.9-.7 3.5-.8s1.6-.4 2.1-.8c.6-.3 4.1-.9 7.8-1.2 6.9-.6 6.9-.6 6.2 2.2-.7 3.2 1.4 5.8 3.9 4.9 1.9-.7 1.8-6.7-.1-6.7-3.1 0-1-1.9 2.9-2.6 5.9-1.1 6.3-1.1 6.4.6.1.8.2 2.5.2 3.7.1 1.3.9 2.3 1.7 2.3 2.8 0 1.6 3-1.5 3.6-1.6.4-3.5 1.3-4.1 2-1.1 1.3-1.9 97.3-1.1 128.6.2 7 .1 13.1-.1 13.6-1.3 1.9 1.3 3.5 5.7 3.4 2.5-.1 4.6.3 4.6.8 0 .6 1 1 2.3 1 2.3 0 2.3 0 2.2-65.8-.1-67.1-.6-79.5-3.9-83.1-.9-.9-1.6-3-1.6-4.5s-.4-3.5-.9-4.5c-1.8-3.3.4-4.1 18-6.7 24.3-3.6 22.4-3.6 22.1.8-.3 2.8.1 3.9 1.7 4.7 2.4 1.3 5.4-1 4.4-3.5-.5-1.4-.3-1.4 1.4-.6 1.1.6 2.5.7 3.3.2 1.8-1.1-.6-3.6-4.1-4.3-2.3-.4-2.3-.4.3-.6 1.5 0 3.9-.6 5.4-1.1 3.1-1.2 4.8.3 3.5 2.9-.5.9-.5 2.5-.1 3.6.7 1.9.7 1.9 1.8-.1.6-1.1.9-3 .6-4.2-.4-1.3 0-2.4 1.3-3 1.6-.9 1.8-.6 1.8 3.6s.3 4.7 2.4 5c2.4.4 4.4-1.4 3.7-3.3-.2-.6 1-1 2.7-1 1.6 0 3.2-.6 3.4-1.3.3-.8-.1-1-1.3-.5-1.2.4-1.5.3-1-.5s-.6-1.2-3.6-1.3c-4.3-.2-4.3-.2.2-.9 2.5-.4 5.7-1 7.3-1.4 2.7-.8 2.7-.8 2.7 3.9 0 3.8.3 4.6 1.5 4.1 2.1-.7 1.9.7-.3 2.7-2.5 2.3-9.7.5-8.7-2.1.4-1.2.3-1.4-.5-.6-1.2 1.2-.3 4.4 1.2 4.4.7 0 .6.5-.1 1.3-.6.7-1.1 2.7-1.1 4.3s-.3 11-.6 20.9c-.8 31.5-1 68.5-.4 84.5.3 8.5.3 17.9-.1 20.9-.4 3.9-.2 5.4.8 5.8 1.2.5 1.2 2.5-.1 12.8 0 .5-.5 1.3-.9 1.6-.5.3-.5 1.8-.1 3.2.6 2.5 1.1 2.7 5.8 2.8 5.1.1 5.1.1 0 1.1-7.4 1.3-7 3.8.6 3.8 3.2 0 7.3.3 9.1.7 3.3.6 3.3.5 1.7-1.3-2.8-3.2-2.7-59.8.1-58.9 1.1.3 2.2.2 2.5-.3 1.6-2.7 3-75.2 1.4-75.2-.6 0-.6-.6.2-1.5 2.4-2.9.4-3.7-2.7-1.1-3 2.6-3 2.6-3.7-8.9-.4-6.3-.5-11.9-.2-12.4s-.3-4-1.3-7.9-1.5-7.5-1.2-8c.8-1.3 49.7-5.3 51.1-4.1.2.2.3 1.2.2 2.3-1 5.6 5.1 10 6.5 4.6.4-1.4 1.3-2 3.2-1.9 2.5 0 2.5 0 .4.9-2.3 1-3.3 5-1.2 5 .9 0 .9.4 0 1.4-1.3 1.5-2.1 33.7-1.2 48.4.3 5 .2 9.2-.2 9.2-.5 0-.6 3.9-.3 8.7.8 14.7 1.8 20.7 3.5 22 1.4 1.1 1.3 1.3-.6 1.9-3.9 1.1-3.2 7.1 1 8.3 2.8.8 2.9.9.7 1-2.4.1-2.5.3-2.1 6.3.1 3.5.8 6.6 1.5 7 .8.6.7.8-.2.8-1 0-1 .5-.1 2.2.8 1.6.9 2.3.1 2.6-.6.2-.9.9-.6 1.7.3.7.1 1.6-.5 2-.8.4-.8 1.2-.1 2.5s.6 2.1-.5 3c-1.8 1.5-1.7 9.9.1 11.8.8.7 1.4 1.9 1.3 2.5 0 .9-.2.8-.6-.1-.2-.6-.9-1.2-1.4-1.2-1.1 0 0 9 1.3 10.7q.9 1.2-1.2 3.3c-1.2 1.2-1.9 2.4-1.6 2.7.3.4.1 1.2-.5 2-.9 1.1.3 1.3 7 1.3 4.5 0 8-.4 7.7-.8-.3-.5-.6-36.5-.7-80-.1-50.7-.5-79-1.1-78.6-.5.3-1.6-.3-2.4-1.5s-2.1-2.1-2.9-2.1c-2 0-2.4-2.2-.9-5.1 1.7-3.5 1.2-3.9-6-4-6.1-.2-6.1-.2.9-.9 3.9-.4 7.8-1.1 8.8-1.5 2.1-.9 2.5 3.3.5 5.4-1.1 1.1-1 1.3.3.8 1.3-.4 1.5-.1 1.2 1.4-.3 1 0 1.9.6 1.9 1.1 0 1.3-.7 1.5-6.5.1-2 .7-3.1 2-3.3 1.6-.3 1.7.1 1.1 3.5-1 6.2 5 9.2 6.6 3.3.4-1.4.7-1.9.8-1.2s.6 1 1.1.7c.6-.3 1-.2 1 .4 0 .5-.5 1.1-1 1.3-2.6.8-1.9 4.8.8 4.9s2.7.1.2 1-2.5.9-2.3 14.1c0 7.3.4 15.5.8 18.3.3 2.7.6 5.4.5 6-.9 10.2-1.5 43.2-.8 50.3.1 1.6.7 2.1 2 1.6 2.1-.6 2.5 1.1.4 1.9-1.9.8-2.6 5.5-.9 6.1.8.3 1.2 1 .9 1.5s-.8 4.1-1.1 8.1c-.5 8.2-1.5 16.3-2.1 16.9-.1.2.4 1 1.2 1.8 1.3 1.3 1.3 1.8.1 3.7-2.1 3.2-2.6 8.4-.9 9.1 1.1.4 1.1.9.3 1.8-.7 1-.7 1.7 0 2.4.6.6 1 3.2.8 5.7-.3 2.5 0 4.6.4 4.6.5 0 .6.4.3.9-1.5 2.4 1.9 6.1 5.7 6.1 2.3 0 3.6.4 3.2 1-.3.6-2 1-3.8 1-4 0-2.5 1.4 3.3 2.9 4.5 1.2 4.6 1.3 4.2 4.8-.3 2.4-.7 3.1-1.3 2.2-.5-.8-.9-.9-.9-.3 0 1-4.4 2.6-7.9 2.8-.8.1-1.6.8-1.8 1.6-.4 1.2-.3 1.2.5.1.7-.9 1.2-1 1.6-.2.4.6.4 1.1-.1 1.2-.4 0-1.6.2-2.6.4-1.5.3-1.8-.1-1.3-1.8.5-2.1.4-2.1-.9-.4-1 1.5-2.8 1.9-7.7 2-3.5.1-6.6.6-6.9 1-.9 1.2-3.9-.3-3.9-1.9 0-.8-.7-1.4-1.6-1.4-.8 0-1.2.4-.9 1 .3.5-.1 1-.9 1-1.9 0-2.2 3.5-.4 4.6.8.5.9.2.5-1-.5-1.4-.2-1.6 2.1-1.2 1.5.2 3.8.5 5.2.7 1.6.1.9.5-2 .9-4.5.7-4.5.7-.1.8 2.9.1 4.8-.3 5.5-1.3 1.1-1.5 4-1.8 14.3-1.2 4.6.3 5.1.1 4.2-1.4-1.2-2.3-1.1-2.9.2-2.9.5 0 .8.3.6.7-.3.5.2 1.5 1.1 2.3 1.4 1.3 1.5 1.2.9-.3-.3-.9-.2-1.9.3-2.2.9-.6 1.5 1.7 1.1 3.9-.1.5.4.4 1.1-.1 1.4-1.2 5.4.8 4.1 2-.3.4.8.7 2.6.7 2 0 3 .4 2.6 1.1-.4.6-1.2.8-1.9.6-.6-.2-2-.1-3.1.4-1.6.6-1.3.8 1.5.9 8.7.4 24.6-.2 26-1 1-.6.4-.8-1.9-.5-1.8.2-3 .1-2.6-.3.6-.6 8.4-1.1 19.5-1.1 2.4-.1 4.9.4 5.5 1 .7.7.5.8-.6.4-1-.4-1.9-.2-2.3.3-.6 1 3 .9 4-.1.3-.3 1.5 0 2.5.6 1.5.9 2.1.9 2.7 0 .9-1.5 7.2-1.3 7.2.2 0 .5.6.3 1.3-.5 1.2-1.5 1.9-1.6 11-.7 1.7.2 3.8-.1 4.6-.7 1.1-.8 1.3-.8.7.2-.4.6-.2 1.2.3 1.2.6 0 1.1-.5 1.1-1 0-.6.5-1 1-1 .6 0 1.9-.9 3-2 2-2 2-2-1.5-2-2.7 0-3.5.4-3.5 1.7-.1 1.7-.2 1.7-1.4 0-.8-1-2.9-2-4.6-2.2-3.8-.5-5.3-1.5-2.4-1.6 1.6 0 1.5-.2-.5-1-1.4-.6-2.7-.6-3-.1-.6.9-2.5.9-5.1-.2-.9-.4-2.9.4-4.7 1.7-3 2.2-12.1 2.8-10.8.7.3-.5 1.4-.6 2.5-.3 2.3.6 2.8-1.2.6-2-2.1-.8-35.1-.7-42.6.1-6.5.8-6.5.8-6.2-2.5.3-1.9-.2-4.1-.9-5-1.2-1.5-1.2-1.6.4-1 2.5.9 2.1-.6-.5-1.8-2.8-1.3-3.5-3.5-1.1-3.5 1.7-.1 1.7-.1.1-1.1-1.6-.9-1.8-2.7-1.8-14.1 0-7.2.2-12.9.5-12.6s.6 6.3.6 13.4c.1 8.1.4 11.9.9 10.2 1.1-3.7 4.7-8.2 5.2-6.6.4 1 .9.8 2.1-.4 1.7-1.7 2.3-5.9 1-7.2-.4-.4-.8-4.8-.9-9.8-.3-13.3-.9-15.8-3.9-15.8-1.4 0-2.5-.5-2.5-1 0-.6.6-1 1.3-1 .8 0 .8-.3.2-.8-2.2-1.5-.5-15.2 1.9-15.2.6 0 .3-.5-.7-1.1-1.6-1-1.7-1.2-.3-2.2 1-.8 1.6-3.3 1.8-7.7.2-5.2.6-6.5 2.1-6.8 1.4-.3 1.6 0 .8 2.1-1.1 2.9 0 5 2.1 4.2q1.65-.6 2.1 1.2c.4 1.7.5 1.7.6-.1.1-2.3 3-.3 3.2 2.3.1.9.5.2.8-1.4.4-1.7.3-3.5-.1-4.2-.5-.6-.5-1.4.2-1.8.6-.3.8-1.1.5-1.6-.4-.5-.1-.9.4-.9.6 0 1.1 1.8 1.1 4.1 0 2.4.4 3.8 1 3.4.6-.3 1-1.5 1-2.6 0-1.6.7-1.9 3.9-1.9 4.6 0 7.3-.9 6.5-2.1-.3-.5.2-.9 1-.9.9 0 1.6.7 1.6 1.5 0 1.1 1.2 1.5 4.5 1.5 4.4 0 4.4 0 4.4-29.5 0-30.8-.2-32.7-4.6-38.2-1-1.2-2.7-2.4-3.8-2.6-1.1-.1-2.6-.6-3.3-1.1-.7-.4-4.1-.6-7.5-.5-7.2.4-11.6 3-14.2 8.4-3.1 6.7-7.1 4.3-5.7-3.5.8-4.5.8-4.5-3.3-6.1-4-1.7-4-1.7-4.1-7.8-.1-5.2.1-5.8 1.2-4.3.7.9 1.4 1.2 1.4.6 0-1.8-3.7-4.7-4.5-3.5-1.2 2.1-4 1.1-5.8-2-1.1-2-1.3-2.9-.5-2.6.7.2 2.1-.5 3.1-1.7 1.1-1.2 1.4-2.2.8-2.4-1.7-.6-1.3-1.9.8-2.5 1.7-.4 2 .2 2.6 4.4.4 2.7 1.2 4.9 1.7 4.9.7 0 .9-1.6.5-4-.7-5.2-2.1-4.9 30.5-5.2 26.6-.3 26.6-.3 26.2 3.5-.6 4.8 1 7.1 4.3 6.2 2.2-.5 2.3-.4 1.3 1.5-.9 1.7-.8 2 .7 2 1.1 0 1.4.3.7.8-.6.4-1 3.8-.9 7.7 0 3.8-.4 8.5-.9 10.2-.7 2.4-.4 5.3.9 10.8 1.6 6.5 1.7 8 .6 10.8-1.3 3.4-1.9 14.7-.7 16.5.3.6.2 1.3-.4 1.7-.5.3-1 2.3-1 4.4 0 4.6 2.4 7.1 7.1 7.2 3.4.1 3.4.1-.7 1-4.2 1-4.2 1-4.2 5.9 0 2.8-.5 5.6-1.1 6.4-.9 1.1-.6 1.5 1.4 2 2.3.6 2.4 1 2 4.8-.3 2.3-1.1 4.8-1.7 5.5-.7.9-.7 1.7.1 2.6.6.8.8 1.7.4 2-.3.4-.1.7.6.7 1.2 0 .5 4.8-1 6.5-1.4 1.4-1.1 2.5.6 2.5 2 0 1.6 2.8-.7 5.2-4 4-1.5 11.8 3.7 11.8 1.9 0 3.5.4 3.5 1 0 .5-1.5.7-3.2.5-4.4-.6-6.8.2-6.1 2.1.3.7 0 1.4-.6 1.4-1.6 0-1.3 3.6.4 5.4.8.8 1.5 1.9 1.5 2.5 0 .5.8 1.2 1.8 1.4 1.6.4 1.6.5 0 .6-1.9.1-2.6 2.1-.8 2.1.7 0 .7.6.1 1.7-.5 1-.7 3.3-.5 5.2.2 2-.2 4.4-1.1 5.8-1.8 2.7-.3 4 3.5 3 1-.3 2.4.1 3.1.9 1.2 1.5 6.4 2 5.5.5-.3-.5-.6-26.5-.6-57.7 0-79.3-.7-103.5-3.2-104.2-1.9-.5-2.4-3.7-.9-6.1.5-.8 1.8-1.2 2.9-.9 1.5.4 1.8.1 1.5-1.3-.4-1.5-1.5-1.9-5.1-1.9-5.7 0-5.2-.6 1.3-1.3 5.1-.6 5.1-.6 5.2 3.4.2 2.8-.1 3.8-1 3.2-.7-.4-.6.1.2 1.1 1.8 2.2 3.3.2 2.4-3.2-.6-2.4 1.1-5.2 3.3-5.2 1 0 1.2 1.1.8 4.3-.7 4.6 1.2 7.5 4 6.4q1.5-.6.9.9c-.3 1 .2 1.4 1.8 1.4 2.4.1 2.4.1-.1 1.5-4.6 2.5-3.9 51.5.7 51.5 1.3 0 1.4 4.2.2 5.6-.8 1-.1 1.5 2.8 2 3.7.7 3.7.7 1.3 1.8-3.4 1.4-3.4 1.4-2.3 2.8 1.9 2.4 2.1 6.6.4 7.1-1.1.3-1.8 1.7-1.9 4.2-.2 2-.3 4-.4 4.4-.3 2.4.4 4.1 1.3 3.5 1.2-.7 5.9 1.4 5.9 2.7 0 .4-1.4.2-3-.4-4.4-1.7-7.3 4.6-3.8 8.1 1 1 .9 1.8-.4 4-.9 1.5-1.6 5.2-1.7 8.4-.1 5.7-.1 5.7 3.7 6.4 2 .4 3.1.9 2.5 1.1-.7.3-1.3 1.1-1.3 1.8s-1.5 1.8-3.2 2.5c-3.3 1.1-3.3 1.1-.9 3.1 1.2 1 2.8 1.6 3.4 1.2.6-.3.7-.1.3.5-.4.7-1.5 1.2-2.4 1.2-1.2.1-1 .5.8 1.5 1.4.8 2 1.4 1.4 1.5-.6 0-2.5 1.3-4.2 3-3 2.8-3 3-1.6 6 .9 1.6 1.9 2.8 2.3 2.6.4-.3.8.4.8 1.5.1 1-.2 1.9-.6 1.9-1 0-3.1 6.2-3.1 9.2 0 2.1.4 2.5 2 2.1 1.4-.4 2 0 2 1.1 0 .9-.6 1.6-1.3 1.4-1.3-.3-1.6.7-1 3.3.4 1.2 1.8 1.7 5.5 1.8 2.7 0 5.4.4 6 .7.7.5.9.1.5-.9s-.1-1.7.5-1.7c.9 0 .9-.3 0-1.2-1.4-1.4-1.6-7.8-.2-7.8.6 0 1-2.4 1-5.3 0-3.7-.3-4.8-1-3.7-.8 1.2-1 .9-1-1.3 0-1.5.5-2.7 1-2.7.6 0 .9-2 .9-4.3-.1-2.4.1-4.9.5-5.5.3-.6.1-1.4-.5-1.8-.8-.5-.9-.3-.4.7s.5 1.1-.3.4c-1.3-1.3-2.3-45.5-.9-45.5.4 0 .8 1.5.6 3.2-.1 1.8.1 4 .4 4.8s.8 2.4 1 3.5c.4 1.5.5 1.3.6-.7 0-1.5.6-3 1.2-3.4.8-.5.8-.9-.1-1.4-.6-.4.2-.7 1.9-.8 1.7 0 3.1.4 3.1.9 0 .6-.4.8-.9.4-1.5-.8-4.1 2.4-4.1 5.1 0 1.3-.4 2.4-1 2.4-.5 0-1 .4-1 1 0 2.6 4.1.9 4.7-2 .6-3.1 2.3-4.2 2.3-1.4 0 2.1 2.3 1.3 2.6-1 .5-3.6 1.6-3 1.2.6-.5 4.4.8 5.1 1.9 1 .6-2.7.6-2.7 1.9.3.7 1.6 1 3.3.7 3.7-.2.5.1.8.7.8.7 0 1-.7.6-1.5-.4-1 .1-1.5 1.4-1.5q1.95 0 1.8-1.8c-.3-4 .3-6.2 1.7-6.2.8 0 1.5-.5 1.5-1.1 0-.8.4-.8 1.3-.1.7.6 2.3 1 3.5.9 2.5-.1 2.5-.7 2.4-15.7 0-4.7-.1-16.4-.2-26-.1-16.1-.3-17.6-2.1-19-1.1-.9-2.1-2.5-2.2-3.7 0-1.2-.5-1.9-1-1.6s-2.1-.7-3.7-2.2c-3.2-3.1-10-4.2-14.6-2.5-2.8 1.1-2.8 1.1-.9-1 1.5-1.7 1.6-2.1.5-1.9-.8.2-3.2 0-5.2-.4-3.8-.8-3.8-.8-3.8-7.7 0-5.5-.3-6.8-1.4-6.4-.8.3-1.7 0-2.1-.6-.8-1.3.3-6.5 1.2-5.7.5.6 3.3-1.7 3.3-2.7 0-.3-2.5-.6-5.7-.6-7.3 0-6.5-.6 1.7-1.3 6.5-.6 6.5-.6 6.5 2.1 0 1.5-.3 3.2-.7 3.7-.4.6-.3 1.7.2 2.5 1.2 2 2.2-.7 1.8-4.6-.3-2.9-.3-2.9 9.7-2.8 5.5.1 17.5.7 26.7 1.4 16.7 1.3 16.7 1.3 16.3 5.1-.4 3-.1 4.1 1.6 5.3 1.2.8 1.8 1.9 1.4 2.5-.4.7.7 1.1 3.2 1.2 2.1.1 2.9.3 1.8.6-7.4 1.5-6.7.2-6.2 12.4.3 7.9.8 11.4 1.8 12 .7.4 1.1 1.1.7 1.4-.3.4.2 1.5 1.3 2.6 2 2 2.6 4.5.9 3.4s-.7 8.8 1 10.2c.8.7 1 1.3.4 1.3-1.2 0-1.3 9.2 0 10.1.5.4-.1 2-1.3 3.7-2.3 3.2-3 11.2-1 11.2.8 0 .8.4.1 1.3-1.2 1.4-.4 9.7.8 9.7.5 0 .6.9.3 2s-1.2 2-1.9 2c-1.1 0-1.2.4-.3 1.9.9 1.3.9 2.6.2 4.8-.9 2.5-.8 3.2.8 4.4 1.9 1.3 1.9 1.4.2 2.7-2.4 1.7-2.7 11.6-.4 10.7 1.1-.4 1-.1-.2 1.3-1.9 2-2.4 9.2-.6 9.2.6 0 .3.8-.7 1.7-1.6 1.6-1.5 1.8 1.2 2.7 2.9 1 2.9 1 .4 1.6-1.6.4-2.4 1.2-2.2 2.2.1.9-.1 1.9-.6 2.1-1.4.9-.1 8.7 1.5 8.7 1 0 1.2.6.7 2.2-1.1 3.3-1.2 10.8-.2 10.8.4 0 .6 1.1.2 2.4-.4 1.8-.1 2.7 1.4 3.5 2.3 1.2 8.6 1.5 7.9.3-.3-.4-.8-23.1-1.1-50.4-.6-47-.6-49.7 1.1-50.7 3-1.7 3.4-44.6.4-43.6-2 .6-2.1.3-2.1-5.2 0-3.3-.5-6.4-1.1-7-1.4-1.4-.8-5.5.9-6.1.6-.2 1.2.4 1.2 1.3 0 1-.5 1.3-1.2.9s-.8-.3-.4.4c1.1 1.8 3.6 1.4 3.7-.6 0-1.5.1-1.5.8.2.9 2.4 2.3.6 2.1-2.7-.1-1.2-.2-2.8-.1-3.5.1-1.4 4.7-1.6 5.6-.2.4.6.1.9-.6.8-1.9-.5-2.1 1.8-.3 3.7 1.5 1.4 1.5 1.8.3 2.6-1 .6-1.1 1.1-.3 1.6 1.9 1.3 2.7 5.3 1.1 5.3-1.2 0-1.5 2.1-1.5 11.5 0 9.8.3 11.5 1.6 11.5s1.3.2-.2 1.3c-1.9 1.4-1.5 7.7.5 7.7.5 0 .9 1.1.9 2.5 0 1.3.8 2.8 1.7 3.3 1.4.8 1.5 1.4.4 3.8-.6 1.6-1 4.9-.7 7.4.2 2.4-.1 5.2-.8 6.2-.8 1.4-.8 2.3.2 3.8 1 1.6 1 2 0 2-.9 0-.8.3.2 1 .9.6 1.1 1.3.5 1.7-.6.5-1.1 4.3-1.1 8.5-.1 7.3 0 7.8 2 7.8 1.1 0 2.8.5 3.6 1.1 1.2.9 1.1 1-.7.6-2.7-.6-3.2.1-3.8 4.7-.4 2.8-.1 3.5 1.8 4.1 2.2.8 2.2.8 0 1.2-1.3.3-2 1-1.7 1.8.3.7 0 1.6-.5 2-.6.3-.9 1-.6 1.5s.1 1.1-.5 1.5-.5 1.8.5 4.1c.7 1.8 1.1 3.4.7 3.4s-.1.4.7.9c1.2.8 1.2 1.1 0 2.4-.8.8-1.4 3.1-1.4 5.1.1 2-.2 3.6-.7 3.6-1.7 0-.7 2.1 1.5 3 1.2.5 1.6.9.8.9-.8.1-1.1.4-.8.7.4.4-.3 1.5-1.5 2.5-1.1 1.1-1.6 1.9-.9 1.9.8 0 1 .7.6 1.9-.3 1.2 0 2.1 1 2.5 1.6.6 2.1 4.6.6 4.6-1.4 0-.7 14.6.8 16.4.7.9 2.6 1.6 4.1 1.6 2.7 0 2.7 0 2.6-21.2l-.1-21.1h8.5c8.5 0 8.5 0 1-.7-7.5-.6-7.9-1.4-.7-1 2.1.1 4.4-.4 5.2-1s2-.8 2.7-.4c.9.5 1 .4.3-.4-1.4-1.6-10.6-2.4-12.1-1.1-.8.7-1.5.6-2-.3-.6-.9-1-.6-1.5 1.2-.6 2.1-.7 1.8-.8-1.5 0-2.2.3-3.5.7-3 .4.6 3.3 1.2 6.5 1.4 6.9.4 9-1.3 7.7-6-.6-1.9-.4-3 .3-3.3.7-.2-.3-.5-2-.5-3-.1-3.3.2-3.3 2.9 0 2.3-.6 3.3-2.2 3.9-3.1 1.2-3.5.8-3.2-3.8.2-3.6-.1-4.1-2-4.1-1.7 0-1.8.2-.6 1 1.3.9 1.3 1.1 0 2-1.8 1.1-2.8-3.8-2.9-14 0-5.9.1-6.3 1.4-4.6 1.5 1.9 1.5 1.9 1.5.1 0-1.7.2-1.7 1.4-.5 2.2 2.2.9 7.2-1.5 6.5-2.3-.8-2.3-.5-.2 4.5 1.6 3.7 4.3 5.9 2.9 2.5-.3-.8-.2-1.4.2-1.4 2.9.5 4.2-.3 4.2-2.6 0-3.1-1.7-3.3-2.4-.2-.3 1.2-.3-.2-.1-3.2.5-6.3.9-6.9 2.9-4.8 1.4 1.3 1.4 1.6-.2 2.2s-1.6.7 0 1.6c.9.5 1.4 1.7 1.2 2.6-.4 1.4.1 1.8 2.1 1.9 2.5.2 2.5.2 2.5-28.8-.1-16-.4-30.4-.7-31.9-.9-4.4-2.2-3.4-1.6 1.1.4 2.6.2 4-.6 4-.6 0-1.1-1.8-1.1-4.6 0-4-.2-4.5-1.9-3.9-1.7.5-2 0-2.3-3.2-.3-4.1-2.1-5.2-2.6-1.6-.5 3.4-2.2 2.8-2.2-.7 0-2.1-.5-3-1.6-3s-1.5-.6-1.1-2c.3-1.1.1-2.3-.5-2.6-.5-.3-.9-2.9-.7-5.8.1-2.8-.1-5.9-.5-6.9l-1.1-3.3c-.3-1.1-1.2-1.4-2.5-1.1-1.1.3-2 .1-2-.5s1.3-.8 3.4-.4c2 .4 3.7.2 4.1-.4 1-1.7 3.5-1.1 3.4.7 0 1.1-.3 1.3-.6.5-.2-.6-.9-1.2-1.4-1.2-.4 0-.6.7-.3 1.5.4.8.1 1.5-.6 1.5-.6 0-.9.4-.5 1 1.4 2.3 5-.7 5-4.4 0-2-.3-3.6-.7-3.6s-.8.4-.8 1-.9.6-2.6 0c-1.4-.6-4.2-1-6.1-1-2 0-3.3-.3-3-.7 1.4-1.3 23.7 1 44.9 4.8 3.1.5 7.2 1 9.2 1.1 4 .1 4.2.3 2.1 2.4-.8.9-1.5 2.1-1.5 2.7 0 .8.3.7.9-.2 1.2-1.9 2.2 1.4 1.6 5.1-.4 1.9-.1 2.8 1.2 3.1 1.4.4 1.3.5-.4.6-3.1.2-3.3.6-3.3 13.7-.1 40.4.6 52 3.3 55.3 1.1 1.4 1.5 13.8.7 24-.1 1.3.5 2.8 1.3 3.3 1.2.6 1.4 1.5.7 3.7-.4 1.6-.6 3.2-.2 3.5.3.3 0 .6-.6.6-.7 0-1.2 1.8-1.1 4.7 0 6.3-.5 8.6-1.9 9.1-1.8.6-1.6 10.8.3 11.6 1.6.6 2 12.2.4 13.2-2.4 1.4-.9 5.4 2 5.4 1.6 0 3.5.2 4.3.5 1.1.4 1.3-4.7 1.1-28.7-.4-66.9-1.2-121.4-1.8-122.9-.4-1 0-1.9.9-2.2 1.9-.8 4.6.1 4.6 1.5 0 .5-.4.6-1 .3-.5-.3-1-.1-1 .4 0 2 2 1.1 3-1.2.8-2 .9-2 .9-.3.1 1.6.4 1.7 1.3.8 1.5-1.5-1.9-5-6-6.2-2.1-.7-1.6-.8 2.6-.8 4.7.1 5.2.3 4.6 2-.3 1-.1 2.5.5 3.2.8 1 .8 2.2.1 4.1-.8 2.2-.8 3 .2 3.7 1 .6.9.8-.4.8-.9 0-2 .6-2.5 1.2-.9 1.5-1.2 20.9-.4 22.3.3.5.4 7.9.1 16.3-.3 8.3-.3 15.2 0 15.2s.5 12.3.6 27.2c0 20.1.4 27.9 1.3 29.7.8 1.4.9 2.6.4 3-1.3.8-1.3 4.3-.1 5.8.5.7.7 2.1.3 3.3-.4 1.4-.1 2.2 1 2.6 1.3.6 1.4.9.3 1.6-1 .7-.9 1.2.7 2.4s1.7 1.6.6 2.3c-1.9 1.2-2.3 6.1-.6 6.7.8.3 1.1 1.2.9 1.9-.3.7.7 1.9 2.3 2.7 2.8 1.4 2.8 1.4 2.7-17.9 0-19.3 0-19.3 2.8-19.3 2.6 0 2.8-.3 2.8-3.9 0-2.2-.4-4.3-1-4.6-.5-.3-1-2.4-1-4.6 0-3.2-.3-3.9-2-3.9-1.1 0-2-.5-2-1.1s.7-.9 1.5-.5c1.2.4 1.5-.4 1.5-4 0-2.7-.6-5.2-1.5-6-1.2-1.3-1.5-5.1-1.6-20.7 0-24.9-.8-54.1-1.4-59.1-.6-4-.6-4 1.4-2.2 1.7 1.6 2.3 1.7 3.6.6s1.3-1.5.3-2.2c-1-.8-1-1.1 0-1.5 2.1-.9 1.3-2.2-2-3.2-9.7-2.8 3-.6 16.6 2.9 14.7 3.8 20.5 6.2 17.3 7.3-.9.3-1.2 11.5-1 51.3.1 28 .2 60.4.2 72 .1 21.1.1 21.1 3.8 21.7 4.4.8 4.3.9 4.5-3.6.1-2.5.5-3.4 1.5-3 .7.3 1 .9.7 1.4s.9.9 2.5.9c2.4 0 3.1-.4 3.1-2 0-1.7-.7-2-4-2-3.6 0-4-.3-4-2.5 0-2.5 2.3-3.5 3.5-1.5.3.6-.1.7-.9.4-.9-.3-1.6-.1-1.6.5 0 .7 2.8 1.1 8 1.1 7.3 0 8-.2 8-2s-.7-2-8.4-2c-8.4 0-8.4 0-8.7-7.8-.6-13 0-21.2 1.7-20.5.8.3 1.2.9.9 1.3-.6 1 9.1 1.9 13.3 1.3 3.2-.5 4.3-2.6 2-3.7-1-.5-1-.7-.1-1.2.9-.4 1.2-12.7 1.3-52.5V181h-5.9c-3.3 0-6.3.4-6.6 1-.3.5-.1 1 .5 1 .9 0 .9 3.9.1 6.8-.3 1-7.1-7.4-7.1-8.7 0-1.5 1.2-1.6 9.5-1.3 9.5.4 9.5.4 9.5-4.2s0-4.6-9.6-4.6c-8 0-9.5-.2-9.1-1.4.4-1-.5-1.8-2.9-2.6-2-.7-3.3-1.4-3.1-1.6s2.3.2 4.5 1c2.3.9 4.2 1.1 4.2.6s-1.2-1.3-2.7-1.6c-1.6-.4-4.1-1.5-5.8-2.4-1.6-.9-3.5-1.5-4.2-1.3-.6.2-1.4 0-1.7-.6-.4-.6-1.3-.8-2-.5s-1.8-.2-2.5-1c-.6-.7-2.1-1.2-3.1-.9-1.1.3-2 .1-2-.5s-.8-.8-1.9-.5c-1 .3-2.2 0-2.5-.6-.4-.6-1.8-1.1-3.1-1.1s-2.5-.5-2.7-1.2c-.3-.9-.6-.9-1.1-.1-1 1.6 1.1 2.5 11.3 5.3 8 2.1 15.7 4.9 13.5 5-.5 0-3.9-.9-7.5-2-12.4-3.8-36.5-9.8-39.5-9.8-3.4 0-10.5-2.3-10.5-3.4 0-.4.7-.5 1.5-.2 1.1.5 1.3.2.9-1-.4-1.1-1.3-1.5-2.6-1-1 .3-2.5.1-3.2-.5s-3.7-1.3-6.7-1.6c-6-.6-10.6-1.4-12.9-2.2-.8-.3-2.7-.5-4.2-.4-1.6.2-2.8-.3-2.8-.9s-.8-.9-1.8-.6c-1 .4-7.9-.2-15.3-1.3-7.4-1-14.1-1.9-14.9-1.9-.8-.1-3.5-.4-6-.8s-6-.6-7.8-.5c-1.9.1-3.9-.2-4.5-.6-.7-.4-2.6-.6-4.4-.4-1.8.1-3.3-.1-3.3-.6 0-.4-5.2-.9-11.6-1s-12-.5-12.3-1c-.7-.9-21-1.3-21.6-.3m-99.6 4.4c-.2.2-3.3.6-6.9.9-4 .4-5.7.2-4.5-.3 1.9-.8 12.3-1.4 11.4-.6m31.1.6c0 2.9-20.8 3.2-21.8.2-.3-.9 2.4-1.2 10.7-1.2 6.4 0 11.1.4 11.1 1m-61 .7c-.1 2.3-2 3.8-2.9 2.3-.5-.8-.7-1.8-.5-2.2.6-1 3.4-1.1 3.4-.1m86.6.9c-.9.8-1.6 2.6-1.6 4 0 1.7-.6 2.4-1.9 2.4-1.1 0-2.5.2-3.3.5-1 .4-1.3-.6-1.3-4 0-4.5 0-4.5 4.8-4.5 4.4 0 4.7.1 3.3 1.6M236 143.2c-1.3 1.2-2 2.8-1.7 3.9.5 2-1.1 2.9-5.5 2.9-2.3 0-2.9-.4-2.4-1.6.3-.9.6-3.1.6-4.9 0-3.4 0-3.4 5.3-3.7 5.9-.3 6.9.5 3.7 3.4m199.9.4c2.9.6 3.1.9 3.1 5 0 4.4 0 4.4-5.4 4.4-7.8 0-8.2-.3-7.8-5.5.4-4.9 2-5.5 10.1-3.9m-244.6 4.6c.7 5.1 1.1 4.6-3.8 4.8-8.6.4-8.7.4-8.3-3.8.3-3.5.5-3.7 4.3-4.3 7.4-1.1 7.2-1.2 7.8 3.3m267.8-2.2c1.5 0 1.9.8 1.9 4.1 0 3.6-.2 3.9-1.5 2.6-.8-.9-2.9-1.8-4.7-2.2-6-1.2-6.8-1.6-6.8-3.7 0-1.9.4-2 4.6-1.4 2.6.3 5.5.6 6.5.6m48.7 1.1c1.9.6 1.1.7-2.6.3-2.9-.3-6.5-1-8-1.5-1.9-.6-1.1-.7 2.6-.3 2.9.3 6.5 1 8 1.5m-338.5 1.2c.6 1.7-4.2 6.4-6.9 6.7-3.6.4-4.4 0-4.4-2.4 0-2.8.9-3.6 5.4-4.7 4.7-1.1 5.3-1 5.9.4m308.5.3c1.9.5 2.2 1.3 2.2 5.1 0 3.7-.3 4.4-1.6 3.9-.9-.3-3.1-.6-5-.6-3.4 0-3.4 0-3.4-4.5 0-4.8 1.5-5.6 7.8-3.9m40.7.4c1.3.6.5.7-2.5.3-2.5-.3-4.7-.7-4.9-.9-.9-.8 5.5-.2 7.4.6M140 152.6c0 .2-1.4.4-3.1.4-1.6 0-2.8-.4-2.5-.9.5-.8 5.6-.3 5.6.5m360-.7c2.2.6 2.3.8.7 1.4-2.2.8-6.7-.1-6.7-1.4 0-1 2.3-1 6 0M140 155c-3.6 1.2-6 1.2-6 0 0-.6 1.9-1 4.3-.9 3.6.1 3.8.2 1.7.9m375.9-.4c2.8.6 3.1 1 3.1 4.6 0 3.9 0 3.9-3.7 3.6s-3.8-.4-3.8-4.5c0-2.4.3-4.3.6-4.3.4 0 2.1.3 3.8.6m-386.5 2c.8 2.2.8 2.2-5.4 3.4-6.8 1.3-7 1.3-7-.5 0-.8 1.7-1.9 4.3-2.5 2.3-.6 4.7-1.3 5.2-1.5 1.9-.7 2.3-.5 2.9 1.1m410.1 3.5c10.6 2.6 9.3 1.9 10.1 5.7.7 3.6-.1 3.6-14.1.2-6.7-1.6-7-1.8-7.3-4.8-.4-3.9-.4-3.9 11.3-1.1m-165.5 0c0 .4-1.1.9-2.5 1.1-1.5.3-2.5.1-2.5-.6s1.1-1.2 2.5-1.2 2.5.3 2.5.7m79.8.1c-.3.7-.8 1.2-1.1 1-.4-.1-1.9-.3-3.4-.3-2.8-.1-2.8-.1.2-.9 4.4-1.1 4.7-1.1 4.3.2m119.5 12.9c-.4 2.1-.9 2.5-2.9 2.1-3.1-.6-3.1-1.8.1-2.6 1.4-.4 2.5-1.2 2.5-1.8s.2-.9.4-.7.2 1.6-.1 3M374 179.6c0 4.6-.4 7.4-1 7.2-.5-.2-1-.6-1-1.1v-7.2c0-3.7.4-6.5 1-6.5s1 3.2 1 7.6m69.7 5.6c-.2 1.8-.4.6-.4-2.7s.2-4.8.4-3.3.2 4.2 0 6m-130-.2c4.8 1.7 6.9 5.5 7.7 13.8.6 6.9.5 7.3-1 5.7-1.2-1.1-2.6-1.5-4.3-1-3 .7-3.2.7-8.7-.1-4.9-.7-7.4 1.2-7.4 5.6 0 1.9-.7 3.3-2.1 4-2 1.1-2 1-1.4-10.2.4-6.2 1.2-12.4 1.8-13.7 2.1-4.3 9.3-6.2 15.4-4.1m88.7 7.2c2.5 2.9 4.5 5.5 4.3 5.8s-1 1.9-1.7 3.7c-.8 1.8-2.4 3.4-3.7 3.8-4 1-4.3 8.7-.3 10 1.5.5 1.8 1.6 1.8 7.3-.1 8.2 1.5 17.5 3 18 .7.2 1.2 1.3 1.2 2.5 0 2.1-.5 2.2-9.5 2.3-8.5.1-9.5-.1-9.5-1.7 0-1-.7-2.4-1.5-3.3-2.2-2.1-1.9-7.3.4-8.6 1.1-.5 2.3-1.9 2.6-3s1.2-2 1.8-2c3.7-.1 4.1-1.7 4.3-16.2.2-7.9.5-15.7.9-17.5.4-2.1.1-3.6-1-4.7-1.5-1.5-1.5-1.6.4-1.6 1.1 0 3.9 2.2 6.5 5.2m200.5 49.6c.1 18.6-.3 33.1-.8 32.8-.4-.3-.6-1.7-.3-3.1.4-2.4.2-2.5-3.9-2.5-2.4 0-5.1-.5-5.9-1s-1-1-.4-1c.7 0 1.4-1 1.7-2.1.6-2.1.6-2.1 3.3 0 3.7 2.9 6.8 2.8 3.4-.1-2.4-2.1-2.4-2.1-.2-1.5 2.2.5 2.2.5 2.2-12.9 0-13.5 0-13.5-4.4-13.3-3 .2-4.2.6-3.9 1.5s-.2 1.1-1.7.7-1.8-.8-1-1.3c.9-.6.7-1.1-.6-1.9-2.7-1.6-.1-3.1 5.4-3.1 3.5 0 4.2-.3 4.2-2 0-1.1.5-2 1-2 .6 0 1-1.6 1-3.5 0-3.5 0-3.5-5.2-3.4-2.9.1-5.9.6-6.5 1.2-.9.7-1.3.5-1.3-.8 0-1.1-.5-1.5-1.5-1.1-.9.3-1.5 0-1.5-.9 0-.8.9-1.5 2-1.5 1.3 0 2-.7 2-2 0-1.2.7-2 1.8-2 .9 0 1.3.4.7.8-1.4 1-1.8 4.2-.5 4.2.5 0 1-.7 1-1.5 0-2.1 3-3.1 4.2-1.4.7 1.1 1.1 1.1 1.5.1.2-.6 1-1.2 1.7-1.2 1 0 1.2-2.4 1-9.8-.2-8.5-.1-9 .6-3.7.4 3.3.8 21 .9 39.3m-14.8-40.9c.7-1.1.9-.9.9.7 0 1.5.8 2.4 2.4 2.8 2.3.6 3.6 5.6 1.5 5.6-.9 0-1.3-1.4-1-3.6.1-.7-.8-1.4-1.9-1.7-1.3-.3-2 0-2 .9 0 .8.4 1.4 1 1.4.5 0 .7.7.4 1.5-1.6 4-3.4 1.4-3.3-4.8.1-3.4.4-5.1.6-3.8.4 1.9.7 2.1 1.4 1M480 203.5c0 1.9-.4 3.5-1 3.5-.5 0-1-1.6-1-3.5s.5-3.5 1-3.5c.6 0 1 1.6 1 3.5m-291.3 13.7c-.2 1.8-.4.4-.4-3.2s.2-5 .4-3.3c.2 1.8.2 4.8 0 6.5m291.3-3.7c0 1.9-.4 3.5-1 3.5-.5 0-1-1.6-1-3.5s.5-3.5 1-3.5c.6 0 1 1.6 1 3.5M322 218c0 5.9-.1 6-2.1 5-2.8-1.6-6.6-.5-7.4 2.1-1.7 5.3 2.6 10.1 7.1 8 2.4-1.1 2.4-1.1 2.4 5.8s0 6.9-4.2 5.4c-2.3-.8-6.9-1.4-10.2-1.3-12.6.3-11.6.8-11.6-6.3 0-6.9 2.3-10.8 4.8-8 2.9 3 10.2-.1 10.2-4.3 0-.8.7-2.3 1.6-3.1.9-1 1.4-2.7 1.2-4.3-.4-2.3-.1-2.6 2.3-2.2 1.6.2 3.2-.2 4-1.2.8-.8 1.5-1.5 1.7-1.6.1 0 .2 2.7.2 6m158 3.5c0 1.9-.4 3.5-1 3.5-.5 0-1-1.6-1-3.5s.5-3.5 1-3.5c.6 0 1 1.6 1 3.5m-374.1 8.2c0 6.5-.2 7.3-1.1 5-.6-1.6-2-3-3.4-3.3-1.9-.5-2.4-1.3-2.4-3.9 0-2.8.3-3.2 1.9-2.8 1 .2 2.5-.2 3.2-1.1.8-.8 1.5-1.5 1.7-1.6.1 0 .2 3.5.1 7.7m170.1-2.2c0 3.8-.3 4.5-2 4.5-2 0-3.1-6.6-1.3-8.3 1.9-2 3.3-.5 3.3 3.8m104.5 7.4c.2 6.1-.1 11.3-.6 11.6-.5.4-.9-4.4-.9-11.6 0-15.1 1.1-15 1.5 0m99.5-5.4c0 1.9-.4 3.5-1 3.5-.5 0-1-1.6-1-3.5s.5-3.5 1-3.5c.6 0 1 1.6 1 3.5m-5 10c0 1.9-.4 3.5-1 3.5-.5 0-1-1.6-1-3.5s.5-3.5 1-3.5c.6 0 1 1.6 1 3.5m5 0c0 1.9-.4 3.5-1 3.5-.5 0-1-1.6-1-3.5s.5-3.5 1-3.5c.6 0 1 1.6 1 3.5m-8 8.6c0 1.6-.4 2.9-1 2.9-.5 0-1-1.6-1-3.6 0-2.1.4-3.3 1-2.9.6.3 1 1.9 1 3.6m-289-.6c0 2.1-.5 2.5-3 2.5-2.3 0-3-.5-3-1.9 0-1.8.6-2.1 5.3-3 .4 0 .7 1 .7 2.4m292 .5c0 1.6-.4 3-1 3-.5 0-1-1.4-1-3 0-1.7.5-3 1-3 .6 0 1 1.3 1 3m5 0c0 1.6-.4 3-1 3-.5 0-1-1.4-1-3 0-1.7.5-3 1-3 .6 0 1 1.3 1 3m111.5-.8c.6 1.3 1.6 2.2 2.3 2 .7-.1 1.2.2 1.2.8 0 .5-1.3 1-3 1-2.7 0-3-.3-3-3 0-3.6 1.1-3.9 2.5-.8m1.9 7.7c.4.5-.4.7-1.6.3-1.4-.3-1.9-.1-1.4.6.5.8.2 1-.8.6-.9-.3-1.6-1-1.6-1.5 0-1.2 4.7-1.2 5.4 0m-410.4 5c0 .5-1.3 1.1-3 1.3q-3 .45-3-.9c0-.8 1.2-1.3 3-1.3 1.7 0 3 .4 3 .9m-77.2 4.9c.2.8-.9 1.2-3.2 1.2-3.2 0-3.6-.3-3.6-2.5 0-2.4.1-2.5 3.2-1.2 1.7.7 3.3 1.8 3.6 2.5M599 271c0 .5-.7.7-1.5.4-1.1-.5-1.3-.2-.9 1 .5 1.3-.1 1.6-3.6 1.6-2.6 0-3.9-.4-3.5-1.1.4-.6.9-.8 1.2-.6.2.3 1.6-.1 3.1-.9 3.2-1.6 5.2-1.8 5.2-.4m-3.9 12.8c-.6.2-.9.7-.7 1 .2.4-1.6.8-4 .9s-4.4 0-4.4-.2c0-3 2.6-4.4 3.3-1.8.4 1.4.5 1.2.6-.5s.7-2.2 2.6-2.2c1.4 0 2.6-.6 2.6-1.3.1-.6.4-.1.6 1.3.3 1.3 0 2.6-.6 2.8m-413 12.2c.5 0 .9.6.9 1.4 0 1.9-3.7.9-4.4-1.1-.5-1.1-.2-1.3 1-.9.8.3 2 .6 2.5.6m104.7 15.1c-1.8 1.1-2.3-.7-.6-2.5 1.1-1.2 1.3-1.2 1.6.1.2.9-.2 1.9-1 2.4m28.6 35.5c2.5 1 1.9 1.9-1.4 1.9-1.6.1-3-.2-3-.6 0-.3-1.2-.4-2.6-.1-1.9.3-2.5.1-2-.7.8-1.2 6.4-1.5 9-.5m37.6 1.6c0 .5-3.7.8-8.2.8-5.4 0-7.8-.4-6.9-.9 1.7-1.1 15.1-.9 15.1.1m-58 2.8c0 .5-.9 1-2.1 1-1.1 0-1.7-.5-1.4-1 .3-.6 1.3-1 2.1-1s1.4.4 1.4 1m6 0c0 .5-.6 1-1.4 1s-1.8-.5-2.1-1c-.3-.6.3-1 1.4-1 1.2 0 2.1.4 2.1 1M72 135.6c0 1.4.4 2.3 1 1.9.6-.3 1-1.5 1-2.6 0-1-.4-1.9-1-1.9-.5 0-1 1.2-1 2.6m388-.6c0 .5.9 1 2.1 1 1.1 0 1.7-.5 1.4-1-.3-.6-1.3-1-2.1-1s-1.4.4-1.4 1m48 .9c0 2.1 18.5 7.1 26.1 7.1 2.6 0 1.8-3-1-3.6-1.4-.3-3.3-.8-4.1-1-6.4-2.1-21-3.8-21-2.5m29.2 5.1c.6 2 5.2 4.1 9.9 4.6 2.1.2 6.4 1.3 9.6 2.5 12.9 4.7 16.9 5.7 15.8 3.9-1-1.6 2.9.2 4.1 1.9.7.8 2.2 1.6 3.5 1.7s4.1.9 6.2 1.8c10.4 4.5 10.7 4.6 10.7 3.1 0-2.5-20.1-10.2-36.5-14-3.4-.8-8.1-2.2-10.6-3-2.4-.9-5.6-1.5-7-1.3-1.5.1-3.5-.4-4.4-1.2-1.6-1.3-1.8-1.3-1.3 0m-453.7 1.7c-4 1.3-4 1.3 0 .7 3.9-.6 5.2-1.1 4.4-1.7-.2-.2-2.2.2-4.4 1m508.2 1c-.4.3-.7 2.6-.7 5 0 2.3-.5 4.3-1.1 4.3-.5 0-.7.4-.4 1 .3.5 1.1 1 1.6 1 .6 0 .8-.4.5-.9-.8-1.2 10.1-1.9 12-.8 1.1.6 1.4-.2 1.4-4.1 0-4.3-.3-5-2.2-5.6-3.1-.8-10.3-.8-11.1.1m-575.8 1.1c-.3 5.2-.1 11.4.4 11.8.8.8 1.8-5.5 1.4-8.9-.4-2.8-1.6-4.9-1.8-2.9m3.1 5.1c0 5.5 1.2 8.3 2.8 6.6.3-.3 0-1-.8-1.5-1.7-1.1-1.7-1.1 2.3-1.4 1.6-.1 3.1.2 3.3.6 1.4 2.3 3.3-.8 3.2-5.3 0-4.9 0-4.9-5.4-4.9s-5.4 0-5.4 5.9"/><path d="M526.2 148.8c-1 .7 5 2.4 22.8 6.6.3 0 .5-.4.6-.9 0-.6-.7-.9-1.7-.7-.9.2-2-.1-2.3-.7-.4-.5-3.1-1.3-6.1-1.6-3-.4-5.5-1.1-5.5-1.5s-1.1-.5-2.5-.2c-1.5.2-2.5 0-2.5-.7 0-1.3-1-1.4-2.8-.3M8 156.2c0 .4 1.4.8 3 .8 1.7 0 3-.2 3-.4s-1.3-.6-3-.8c-1.6-.3-3-.1-3 .4m0 4.3c0 1 1.8 1.3 6.5 1.4 4.7 0 6.5-.3 6.5-1.3 0-.9-1.9-1.3-6.5-1.4-4.8 0-6.5.3-6.5 1.3m2.3 10.2c-3.2.6-3.5 9.3-.4 9.3 1.1 0 2.2.4 2.5.9.3.4-.6.6-1.9.3-2.4-.4-2.5-.3-2.5 5.6 0 3.9.4 6.2 1.3 6.5q1.5.6 0 .6c-3.4.2-1.2 4 2.5 4.4s3.7.4 0 .5c-3.7.2-3.7.2-3.7 18.3 0 17.2.1 18.1 1.9 18.6 2.6.7 2.6 2.3 0 2.3-1.9 0-2 .7-2 15.5 0 11.4.3 15.5 1.2 15.5s.9.3 0 1.2c-.7.7-1.2 2.9-1.2 5.1 0 3.8 0 3.8 4.8 3.5 4.7-.3 4.7-.3 4.8-42 .2-41.7.2-41.7-2.5-42.1-2.3-.4-2.2-.4.7-.6 1.7 0 3.2-.6 3.2-1.2s.7-.8 1.6-.5 1.2.2.9-.5c-.4-.6-1.3-.8-2-.5-2.3.8-6.9-11.8-6.3-17.6.2-2.1.1-3.7-.2-3.7-.3.1-1.5.4-2.7.6m141.2 2.3c-.3.5.2 1 1.2 1 1.1 0 1.4.3.7.8-.8.5-1.1 9.4-1.1 29.2 0 15.7-.1 38.4-.2 50.4-.2 17.1.1 22.1 1.1 22.8 1 .6 1 1-.2 1.8-.8.5-1 1-.4 1 1.9 0 2.3 7.3.6 8.6-1.9 1.4-.8 4.6 1.3 3.8 1-.4 1.5 0 1.5 1.5 0 1.4-.6 2.1-1.9 2.1-1.7 0-1.9.8-1.9 7.5 0 4.1.4 7.7.8 8 .5.3.4 2-.1 3.7-1 3.5-.2 10.5 1.3 11.4.6.4.5 1-.3 1.5-.9.6.5.9 3.8.9 5.2 0 5.2 0 5.3-63.6 0-35.1.3-64.1.6-64.6.3-.4.2-6.6-.2-13.7-.6-11.8-.8-12.8-2.5-12.4-1.1.3-2.1-.1-2.5-1.1-.7-1.8-5.9-2.2-6.9-.6m-67.4 4c0 3.3.1 3.4 1 1.1.6-1.6.6-2.8-.1-3.5q-1.05-1.05-.9 2.4m-11.7.4c-.9 2.3 0 5.1 1.7 5.4 1.9.3 3.6-3.1 1.9-3.6-.8-.3-.7-.8.1-1.8.9-1.1.7-1.4-1-1.4-1.2 0-2.4.6-2.7 1.4M358 200.7c0 14.5.4 21.3 1 20.3.5-.8 1-1.1 1.1-.5 0 .5.4.1.9-1s.9-10.7.9-21.3c.1-18.6 0-19.2-1.9-19.2s-2 .7-2 21.7M258.8 183c-1.5 5.1-1 23.3.7 22.6 1.2-.4 1.5.4 1.4 4.2-.1 4.2-.2 4.4-.9 1.7-.5-1.9-.8 1.3-.9 9 0 8 .2 11.5.9 10.5.6-1 .7 7.2.4 23.1-.5 20.3-.4 24.7.7 25.1 1.7.6 2.5-92.5.9-96.5-.7-1.8-.9-1.3-1.1 2.8l-.2 5-.6-5c-.5-4.2-.7-4.6-1.3-2.5m1.9 38.2c-.2 1.3-.4.5-.4-1.7-.1-2.2.1-3.2.4-2.3.2 1 .2 2.8 0 4M220.5 184c-.4.6-1.1.8-1.6.4-.6-.3-1.7.4-2.6 1.6-.8 1.2-2.1 1.9-2.7 1.7-1.8-.7-3.1.3-5 4-1.4 2.8-1.6 7.3-1.6 32.6 0 29.4 0 29.4 2.7 28.9 2.5-.5 2.5-.6.8-1.3-1.4-.5-.7-.8 2.5-.8 3.3-.1 4.1.2 3 .9-1.3.8-1.2 1 .3 1 1 0 1.7.8 1.7 2.1 0 1.1.4 1.7 1 1.4.6-.4.8-1.5.5-2.6-1.3-4 2.3-8.3 3.8-4.7q.6 1.5.6 0c.1-1.4 4.1-1.7 4.1-.2 0 .5.7 1 1.5 1s1.5-.5 1.5-1c0-.6.5-1 1.1-1 .5 0 .8.3.6.7-1 1.6 1.8 3 3.1 1.6.8-.8.9-1.3.2-1.3-.5 0-1-.5-1-1 0-.6.6-1 1.3-1q1.35 0 .9-3c-.2-1.7-.8-3-1.3-3s-.9-.5-.9-1c0-.6.7-1 1.5-1s1.5-.5 1.5-1.1c0-.5-.5-.7-1.2-.3-.8.5-.9.2-.5-.9.3-1 .2-1.7-.3-1.7-2 0-1-4.8 1.1-5.3 2.3-.6 1.7-2.7-.7-2.7-.8 0-1.4-1-1.4-2.5 0-1.4.5-2.5 1.1-2.5.8 0 .8-.4 0-1.4-.9-1.1-.9-1.5.1-1.9s1-.6.1-.6c-2.1-.2-1.7-7.1.5-7.1 1.6-.1 1.6-.1 0-1.4-2.1-1.6-2.4-3.8-.4-3 .8.3 1.7.1 2.1-.5.3-.6.1-1.1-.5-1.1s-.9-.4-.5-.9c.3-.5-.3-1.2-1.2-1.4-1.7-.4-1.7-.5 0-.6.9 0 1.7-.6 1.7-1.1 0-.9-1.3-1.4-3.1-1.2-.4.1-.4-2.4-.2-5.5.7-8-.2-10.6-3.2-9.9-1.3.3-2.7.2-3-.4-.8-1.3-7.2-1.3-8 0m-9.3 8.9c-.9 2.2-1.9 3.8-2 3.6-.7-.6 1.9-7.5 2.8-7.5.5 0 .1 1.8-.8 3.9m13.6 0c.3 1.5 0 2.1-.8 1.6-1.3-.8-7 1.3-7 2.6 0 .5-.4.9-1 .9-1.4 0-1.2-3.2.4-5.5 2.1-3 8-2.8 8.4.4m-10.2 22.9c-.7.6-3.6-2.4-3.6-3.8 0-3.4 2.5-3.6 3.3-.2.4 1.9.5 3.7.3 4m13.2 8.5c.3 2.2-.1 2.7-1.7 2.7-1.7 0-2.1-.6-2.1-3.1 0-4 3.3-3.7 3.8.4m.2 9.7c0 3.3-.3 4-2 4-2.7 0-2.9-6.6-.2-7.3.9-.3 1.8-.5 2-.6.1 0 .2 1.7.2 3.9m-5 .5c0 2.4-.5 3.5-1.5 3.5s-1.5-1.1-1.5-3.5.5-3.5 1.5-3.5 1.5 1.1 1.5 3.5m0 8.5c0 2.9-.4 4-1.5 4s-1.5-1.1-1.5-4 .4-4 1.5-4 1.5 1.1 1.5 4m4.8-.3c-.5 5.7-3.8 6-3.8.4 0-3.5.3-4.1 2.1-4.1 1.7 0 2 .5 1.7 3.7M80.5 186.9c-.3.6-.5 3.4-.5 6.3.1 2.9-.1 29-.5 58-.8 55.1-.7 56.6 3.3 55 2.3-.8 4.2-2.8 3.5-3.6-.3-.3-.5-22.1-.3-48.3.5-58 .4-61.8-.6-64.1-.4-.9-.8-2.1-.8-2.7-.1-1.4-3.3-1.8-4.1-.6m346.7.3c-.8.8-1.2 5.9-1.2 16.2 0 14.5.9 20 2.4 16 .6-1.5.8-33.4.2-33.4-.1 0-.7.5-1.4 1.2M43 192.8c0 2.9.4 5.2.9 5.2.6 0 .8-2 .4-4.8-.7-6.4-1.3-6.6-1.3-.4"/><path d="M19 237c0 43 0 43-5.5 43S8 280 8 285s0 5 7.4 5c4 0 9.4.3 12 .6 4.5.7 4.6.6 4.6-2 0-1.4-.4-2.6-.8-2.6-.5 0-.8-1.4-.8-3 0-1.7.3-3 .7-3s.4-1.2 0-2.8c-.5-2.1-.6-40.6-.1-50.7.1-1.1-.2-4.1-.6-6.8s-.3-4.7.3-4.7c1.8 0 1.1-3.8-1-4.8-1.2-.6-1.6-1.1-.9-1.1 1.7-.1 1.6-6.8-.2-7.8-.8-.4-3-2.3-5-4.1-1.9-1.7-3.8-3.2-4.1-3.2s-.5 19.3-.5 43m484.4-22.3c.3 10.9.6 31.9.6 46.8.1 31.7 1.2 44.9 2 23.5.3-7.4.7-30.7.8-51.8.3-38.2.3-38.2-1.9-38.2-2.1 0-2.1 0-1.5 19.7m-360.7-18c-.4.3-.7 2.8-.7 5.5 0 2.6-.4 4.8-1 4.8-.5 0-1-2-1-4.5s-.4-4.5-1-4.5c-.5 0-1 2.2-1 5 0 4.7-1.2 6.6-2.3 3.7-.3-.6-.6.2-.6 2-.1 1.7-.5 3.4-1 3.8-.5.3-1 10.1-1 22-.1 21.6-.1 21.6 2.7 21.1 1.5-.2 4.2-.5 6.1-.5 3.3-.1 3.3-.1 3.1-8.9-.1-4.8-.2-9.3-.1-10 .2-2.6 2.6-.5 3.2 2.9.6 3.1.6 3 .8-1.5.1-4.3-.1-4.8-1.8-4.3-2.7.7-3.1-.9-3.1-12.7q0-10.2 1.2-11.4c.9-.9.9-1.5.2-2-.5-.4-1.1-3-1.3-5.7-.3-5.4-.4-5.8-1.4-4.8m-.7 16c0 1.4-.3 2.3-.7 1.9-1-1-1.1-4.6-.1-4.6.4 0 .8 1.2.8 2.7m-4 1.3c0 1.6-.4 3-.8 3s-.9-1.4-1-3c-.1-1.7.2-3 .8-3 .5 0 1 1.3 1 3m-95 51.6c0 38.7.3 58.3 1 57.9.5-.3 1-3.9 1-7.8 0-6.1.3-7.4 2-8.5 2.4-1.4 2.7-4 .4-3.8-1.6.1-3.1-10.5-1.7-12.8.4-.6.6-2.3.4-3.8-.2-2.3.1-2.6 1.9-2.3 3.1.6 4.6-3.7 1.6-4.9-1.1-.5-2.4-.8-2.8-.8-.5.1-.8-8.7-.7-19.5 0-10.9.4-19 .8-17.9.7 1.7.8 1.7 2.4.1 2-1.9 1.4-3.5-1.4-3.5-1.8 0-1.9-.8-1.9-12.4 0-12.9-.6-18.6-2.1-18.6-.5 0-.9 25.8-.9 58.6M167 218q0 3 1.5 3t1.5-3-1.5-3-1.5 3m1.4 32.5c0 5.5.1 7.6.3 4.7s.2-7.4 0-10-.3-.2-.3 5.3"/><path d="M147.8 246.7c.5 5.9 1 6.3 1.1 1 .1-2.6-.3-4.7-.7-4.7s-.6 1.7-.4 3.7m166.3 6.5c0 .7.4 2.2.9 3.3.7 1.7.9 1.5.9-1.3.1-1.7-.3-3.2-.9-3.2-.5 0-1 .6-.9 1.2m-8.1.6c0 1.9 1.2 4.2 2.2 4.2 1.4 0 .5-4.3-.9-4.8-.7-.2-1.3.1-1.3.6m4.1.4c0 .7.4 2.2.8 3.2.7 1.9.8 1.8 1.4-.4.3-1.3.4-2.7.1-3.2-.8-1.2-2.4-1-2.3.4M403 257c0 2.5 2 2.7 2.1.2 0-1 .3-1.2.6-.5.7 1.8 2.3 1.6 2.3-.2 0-.9-.9-1.5-2.5-1.5-1.8 0-2.5.5-2.5 2m-234.7 15.5c0 3.3.2 4.5.4 2.7s.2-4.5 0-6-.4 0-.4 3.3m219-.8c-3.7.7-2.6 2 2.2 2.7 2.5.4 4.5 1.1 4.5 1.5s1.8.8 3.9.9c3.4.2 3.9 0 3.4-1.6-.3-1.3-1.1-1.8-2.2-1.5-.9.2-3-.3-4.6-1.1-3.1-1.6-3.3-1.7-7.2-.9m15.4 0c-1.9 1.8-.5 3.3 3.1 3.2 2 0 3.1-.3 2.5-.6-.7-.2-1.3-1.1-1.3-1.9 0-1.4-3.1-2-4.3-.7m-142.6 23c.1 6 .5 11.9.9 13.3.5 1.5.8-2.6.9-10.8s-.3-13.2-.9-13.2-1 4.2-.9 10.7M8 315c0 12.6.2 23 .4 23 .3 0 1.6-.4 3.1-1 1.7-.6 2.4-.6 2 0s1 .9 3.5.7c2.7-.1 3.9-.6 3.5-1.5-.2-.6 0-1.2.4-1.2.5 0 1.2.7 1.5 1.6.9 2.3 5.7 1.4 6.7-1.4.8-2.1.6-2.2-3.9-2.4-4.7-.1-4.7-.1.3-.7s5-.6 5.2-10c.2-5.2.8-10 1.4-10.7.9-1.1.7-1.4-.7-1.4-1.8-.1-1.8-.1-.1-1.4.9-.7 1.7-2.2 1.6-3.2 0-1.8-.1-1.8-.8 0-.7 1.9-.8 1.9-1.4-.3-.3-1.5 0-2.4 1-2.8 1.1-.4 1.2-.8.2-1.4-.7-.4-1.2-2.5-1.1-4.8.2-4.1.2-4.1-11.3-4.1H8zm579-20.6c0 1.9 1.7 2.9 2.5 1.6.3-.5 0-1-.7-1-.9 0-.9-.3.2-1 1.3-.8 1.2-1-.2-1-1 0-1.8.6-1.8 1.4m-391.1 7.8c-.2 18.3 0 26.1 1.1 27.2.8.8.9.6.4-.8-.6-1.5-.4-1.7.6-1.1s1.1.4.4-.6c-1.4-2.2-1.1-9.9.4-9.9.6 0 1.2-.6 1.2-1.3 0-.8.4-.7 1 .3.9 1.3 1.1 1.3 2 0 1.6-2.4 1.2-2.9-2.5-3.6-2.7-.5-3.3-.9-2.5-1.9.5-.6.6-1.6.2-2-.4-.5 0-.6.8-.3.8.2 2.3-.4 3.3-1.4 1.3-1.4 1.4-1.8.3-1.8-.8 0-1.6.5-1.8 1.1-.4 1.2-3.8.1-3.8-1.2 0-.5 1.4-.9 3-.9q3 0 3-1.5c0-.8-.9-1.5-2-1.5s-2-.5-2-1c0-.6-.7-1-1.5-1-1 0-1.5 1.1-1.6 3.2m-115 6.5c0 .5-.2 1.6-.4 2.6s0 3.1.5 4.7c.6 2.1.4 3.2-.6 4.1-1 .8-1.1 1.6-.4 2.9 1.3 2.4 1.3 4.3 0 3.5-1.4-.9-1.3.8.2 2.3 1.4 1.4 5.2 1.6 4.3.2-.3-.6-.1-1 .6-1 .8 0 .8-.4-.1-1.5-.7-.8-1.6-1.2-2.1-.9-1.5.9-1-.8.5-2 1.8-1.3 2.8-13 1.2-14.6-1.2-1.2-3.6-1.4-3.7-.3m179.8 4c-1.1 1-.8 10.3.3 10.3.6 0 1-2.5 1-5.5 0-5.6-.1-6-1.3-4.8M61.3 317c0 2.5.2 3.5.4 2.2.2-1.2.2-3.2 0-4.5-.2-1.2-.4-.2-.4 2.3m501.7-2c0 .5.6 1.1 1.3 1.4.6.2.3.4-.8.3-1.1-.2-2.6-.7-3.4-1.1-.9-.6-1.8-.3-2.6.7-1.5 2.1-2.6 2.2-1.9.2.4-.8.2-1.5-.4-1.5-1 0-2 7.7-1.4 11.6.3 2.1 4.4 2.5 16.8 1.6 2.4-.2 3.8-5.8 2.2-8.7-.5-.8-.4-2.3.2-3.5 1-1.9.8-2-4.5-1.9-3 .1-5.5.5-5.5.9m28 14.4c0 1.4 4.9 2.6 10.8 2.6 2.5 0 3.2-.4 3.2-2 0-1.8-.7-2-7-2-5.3 0-7 .3-7 1.4m-342.7 2c0 1 1.5 1.4 4.8 1.4 3.4 0 4.6-.4 4.3-1.3-.7-1.8-9.1-1.8-9.1-.1m104.5-.7c.6.2 1 .9.6 1.4-.3.5.7.9 2.3.9 2.8-.1 2.8-.1.3-1.5-1.4-.8-2.9-1.4-3.5-1.4-.5 0-.4.3.3.6m21.2.3c0 .6-1 1.1-2.2 1.1-1.3.1.4.5 3.7.9 6.6.7 7.4.5 5.7-1.2-1.4-1.4-7.2-2.1-7.2-.8m65.5.5c-5 1.3-5 1.3 1.5.9 4.8-.2 5.7-.1 3.5.5-2.6.7-2.2.9 2.3.8 5.7-.1 5.8-.2 3.8-2.3-1.7-1.7-4.4-1.7-11.1.1m23.5-.5c-1.1.7-.4 1 2.8 1 2.3 0 4.2.4 4.2 1 0 .5.8 1 1.7 1 1.5 0 1.5-.2.3-1.4-2-1.9-7.2-2.8-9-1.6m-306.4 1.5c2.2 1.6 3.8 2 2.9.6-.3-.5.3-1.2 1.2-1.4 1-.3 0-.5-2.1-.6-3.7-.1-3.8 0-2 1.4m-57.6.4c-5.1 1-1.3 2.1 6.7 1.9 4.7-.1 6-.4 5.6-1.4-.5-1.5-5.9-1.7-12.3-.5m420.9.5c1.1 1.3 10.1 2.7 10.1 1.6 0-1.7-2.9-3-6.8-3-3.7 0-4.2.2-3.3 1.4m18.8 0c-1.6 1.3-1.3 1.4 2.8 1.8 5 .4 5.3.1 2.8-1.8-2.3-1.7-3.3-1.7-5.6 0M234 339.2c0 3.5.2 3.8 2.8 3.7 6.4-.2 12.2-1.1 11.7-1.9-.7-1.1 3.2-3.3 4.4-2.6.5.3 1.1-.1 1.4-.9.8-2-1.9-2.6-11.7-2.4-8.6.2-8.6.2-8.6 4.1m131.5-3.2c-.3.5-.1 1.9.6 3.1.9 1.7.8 2-.2 1.4q-1.35-.9-.6.9c.6 1.5.2 1.7-2.4 1.4-1.8-.2-3 .1-2.8.7s4.1 1 8.7 1c6.7 0 7.9.2 6.6 1.2-.9.7-2.1 1-2.5.7-.5-.3-.9.2-.9 1 0 .9-.7 1.6-1.5 1.6-1.8 0-1.9 1.2-.3 2.8.9.9.8 1.2-.7 1.2-1.8.1-1.8.2-.4 1 1.8 1 17 .7 18.8-.5.6-.3 1.1-.2 1.1.3 0 .6.9.8 1.9.5 1.9-.5 1.9-.5 0-2.4-1-1-1.9-2.4-1.9-3.1 0-.9.3-.9 1.2 0 3.1 3.1 14.8 1.2 14.8-2.5 0-.3-3.8-.2-8.5.1-5.6.4-8.5.3-8.5-.4 0-.6 3.9-1 10.8-.9 5.9.1 10 .3 9 .6-1.8.5-3.3 4.8-2.2 6.5.5.7 0 .9-1.4.6-1.2-.4-2.2-.2-2.2.3s4.7.9 10.5.9c9.6 0 13.8-1.2 8.3-2.3-1.5-.3-1.2-.4.8-.4 2.2.1 3 .5 2.7 1.4-.4 1 .9 1.3 5.3 1.2 4.3-.1 5.2-.3 3.4-.8-1.4-.5-3.3-.7-4.3-.5s-1.5-.1-1.1-.7c.3-.6.8-.8 1.1-.5s1.3.1 2.3-.4 2-.7 2.3-.3c.9.8 7.7 1.1 7.7.4 0-1.2 6.8-1.2 7.5 0 .6.8 1 .7 1.6-.2.6-1 .9-1.1.9-.2 0 .7.5 1.3 1.1 1.3.5 0 .7-.5.3-1.2-.5-.7-.2-.9.7-.6.8.3 2.3.2 3.4-.2s2.6-.3 3.3.2c.8.8 1.2.6 1.2-.5s.8-1.4 2.9-1.1c1.6.3 3.2 0 3.5-.5 1.1-1.8 5.5.8 5.6 3.1 0 .5-1.6.8-3.5.8s-3.5.4-3.5 1 3.5 1 8.5 1c5.3 0 8.5-.4 8.5-1.1 0-.5-.5-.7-1.1-.4-.6.4-2.1-.3-3.5-1.6-2.4-2.2-3.4-4.6-1.4-3.4.6.3 1 0 1-.7q0-1.2 1.8.6c1.2 1.4 1.4 2 .4 2.3-.6.3-1 .9-.6 1.4.6 1 2.7-.7 3.8-3.1.3-.9.4-.5.2.7-.2 1.3 0 2.5.5 2.8.4.3.6 1.2.2 2-.3.8-.1 1.5.4 1.5 1.7 0 2.3-1.3 1.2-2.6-1-1.3.6-3.2 1.8-2 .3.3 1.2-.1 2-.9 1.1-1.2 1.9-1.2 3.5-.4 1.5.8 2.2.8 2.8-.1s.9-.9 1.2.1c.5 1.2.9 1.2 2.8.1 1.2-.8 1.9-.9 1.5-.3-.4.7.7 1.1 2.9 1.1 2 0 3.6.4 3.6 1 0 .5-.7 1-1.6 1-3.6 0-1.1 4.5 2.6 4.7 3.5.1 3.5.1.3-.5-4.8-1-2.8-3.8 2.4-3.3 4.6.4 4.9.6 3.3 2.6-1.1 1.3-.7 1.5 3.1 1.5 4.4 0 4.4 0 1.9-2-2.5-1.9-2.5-2-.3-2 1.2 0 2.4.4 2.7.9.6.9 4.1.6 9.6-.9 3.5-.9 3.5-.9 0-.8-13 .1-15.8-.2-16.2-2-.5-1.8-.3-1.9 5.2-1.2.8.1.2.6-1.5 1-3 .8-3 .8.3.9 1.7 0 3.2-.4 3.2-.9 0-1.5 2.6-1.2 4.3.4.9.9 1.9 1.1 2.8.5 1.2-.8 1.2-1.1-.1-2-1.2-.8-1-.9.8-.4 1.4.4 2.2.2 2.2-.6s.4-.8 1.6.2c1.3 1 1.7 1 2.4-.1s1.2-1.1 2.2-.2c.8.6 2.4 1 3.6.7 1.2-.2 2.2.1 2.2.7 0 .7.6.6 1.5-.2.8-.7 1.5-1.1 1.6-.9.6 3.1.6 3.8-.1 3.4-.5-.3-1.1-.1-1.5.5-.4.7 3.3 1 10.7.9 6.2 0 10.4-.4 9.4-.8-1.4-.5-1.6-1-.8-1.5.7-.4 1.2-.4 1.2.1 0 .4.5.1 1-.7.8-1.2 1-1 1 .8 0 2.2.3 2.3 5.3 1.8 3.1-.4 4.7-.2 3.8.3-1.1.7-1.1.9 0 1.4 1 .4.8.6-.4.6-1 .1-1.6.5-1.3.9.6 1 6.6.9 8.3-.1.6-.4 1.4-.3 1.7.2.7 1.1-4.8 2.5-8.6 2.2-1.6-.1-2.8.2-2.8.8 0 .9 2.8 1.6 5.3 1.2.4 0 .7.3.7.9s-4.1 1-10.2 1c-5.9 0-9.7.4-9 .9.7.4 3.7.7 6.5.6 2.9-.1 5.8.2 6.5.8.8.6 1.2.6 1.2-.2 0-.7.8-1.1 1.8-1 3.1.3 8.7-.3 7-.8-3.2-.8-1.9-2.3 1.9-2.3 2.9 0 3.4.3 2.5 1.2-1.7 1.7-1.5 2.8.5 2.8.9 0 1.4.2 1.1.5-1.1 1.1-52.6 1.7-53.2.6-.7-1 10.3-1.8 19.2-1.3 1.7.1 3.2-.3 3.2-.8 0-.6-1.6-1-3.5-1-2.1 0-3.5-.5-3.5-1.3 0-.9-.2-.9-.9.1-.6 1.1-4.7 1.3-19.4 1-10.2-.1-18.3.1-18 .5.3.5-.3.8-1.3.7-3.5-.4-15.9.3-13.6.7 1.2.2 2 .9 1.7 1.4-.4.5.6.9 2.2.9 2.2 0 2.5-.2 1.3-1-1-.7 3.7-1 14.3-.9 9.5 0 15.5.4 15.2 1-.4.5-6.2.9-13 .9s-12.6.4-12.9.8c-.5.9 69.3.6 79.7-.3 6.6-.5 7.8 1 1.5 1.9-2.4.3-23.9.8-47.8 1.2-23.9.3-43.7.8-43.9 1-.6.6 71.5.1 90.9-.6 15.5-.5 15.5-.5 15.8-4.1.3-3.3 0-3.7-3-4.6-3.2-1.1-3.2-1.1-.6-1.2 3.4-.1 4.5-1.8 1.6-2.4-2.3-.4-2.3-.4 0-.6 2-.1 2.2-.6 2.2-6.1 0-6 0-6-3.9-6-2.2 0-4.2.5-4.4 1.2-.3.8-.6.5-.6-.5-.1-1.1-.8-1.8-1.8-1.6-3.6.3-4.3-.2-4.3-3.1 0-3-.1-3-5.5-3s-5.5 0-5.5 3 0 3-9.2 3.1c-6.1 0-8.6.3-7.3.9 1.9.8 1.9.9-.2.9-1.2.1-2.4-.5-2.7-1.2-.5-.9-.7-1-1.2 0-.3.7-1 1.3-1.5 1.3-.6 0-.8-.4-.4-.9.3-.5-.9-1.1-2.7-1.3-3.1-.3-3.3-.5-3-3.6.2-3.2.2-3.2-7.3-3.2-4.6 0-7.5.4-7.5 1.1 0 .5-.4.7-1 .4-.6-.4-1 .5-1 1.9 0 2-.5 2.6-2.2 2.7-1.3.1-3 .3-3.8.4s-2.1.3-2.8.4c-.8 0-1 .6-.6 1.3s-.1.6-1.2-.3c-2.7-2.4-41.4-2.7-41.4-.4 0 .8-.4 1.5-1 1.5-.5 0-1-.7-1-1.6 0-1.2-1-1.5-4.7-1.4-2.7.1-5.2.1-5.8 0-.5-.1-3.9-.1-7.4 0-6.4.2-6.4.2-5.8-3.4s.6-3.6-10.4-3.6c-10.9 0-10.9 0-10.9 3.5 0 3.4-.2 3.5-3.7 3.6-2.1.1-4.2 0-4.8-.1-.5-.1-10.1-.3-21.2-.4-20.3-.1-20.3-.1-20.3-4 0-3.7-.1-3.8-1.4-2-.8 1-1.8 1.6-2.2 1.1-.4-.4-.2-.7.4-.7.7 0 1.2-.4 1.2-.8 0-1.3-16.7-1.4-17.5-.2m146.3 9.7c-1.5.2-4.2.2-6 0s-.6-.4 2.7-.4 4.8.2 3.3.4m73.7.2c1.4.6.5.9-3 .9-3.5.1-4.6-.1-3.5-.8 1.8-1.1 3.7-1.2 6.5-.1M387 348.1c0 .4-.8 1-1.7 1.2-1.1.3-.7.5 1 .6 1.5 0 2.7.5 2.7 1 0 1-3.8 1.8-10.7 2-4.5.2-5.3-.1-5.2-1.6 0-1 .3-1.3.5-.7.7 1.6 8.4-.4 7.8-2-.2-.6.8-1.1 2.6-1.2 1.6-.1 3 .2 3 .7m127 1.9c0 .5-.7.6-1.7.3-1.1-.4-1.4-.3-.9.5.4.7.1 1.2-.8 1.2-1.9 0-2.1-1.6-.3-2.3 2.1-.9 3.7-.8 3.7.3m77.5 2.9c-3.7.5-4.4.8-2.5 1.2 1.4.3.1.5-2.9.6-2.9 0-4.8-.3-4.1-.7 1-.6.8-.9-.5-1.1-1-.2 1.9-.4 6.6-.5 6.6-.1 7.4 0 3.4.5m11 1.1c1.6.1 1.7.2.5.9-.8.5-3.3.5-5.5.1s-3-.8-1.7-.9c1.2 0 2.2-.6 2.2-1.3 0-.9.3-.9 1.2 0 .7.7 2.1 1.2 3.3 1.2m-6 10c-2.7 1.2-3.5 1.2-3.5 0 0-.6 1.2-1 2.8-.9 2.4 0 2.5.1.7.9m7 3c.4.6-1 1-3.4 1-2.3 0-4.1-.5-4.1-1 0-.6 1.5-1 3.4-1s3.8.4 4.1 1m-501.3-30c-.4.3-.8 1.7-.9 3.2-.2 3 1.1 3.6 6.5 3 3.7-.5 3.9-2.7.2-2.7-1.3 0-2.6-.7-2.8-1.4-.3-.8 0-1.1.7-.7.6.4 1.1.1 1.1-.8 0-1.4-3.2-1.8-4.8-.6m39.8 2.5c0 3.5 0 3.5 4.8 3.6 2.6.1 5.3.1 6 0 .6-.1 1.2.2 1.2.7s-1.5 1-3.2.9c-7.1 0-9.8.3-9.8 1.3 0 .6 5.3 1 13.9 1 8.3 0 14.2-.4 14.6-1 .3-.6 2.2-1 4.2-1 6.8 0 2.6-1-5-1.2-4.1-.1-7.3-.6-7.1-1 .3-.4-3.2-.8-7.8-.8-5.2 0-8.9-.5-9.6-1.2-2.1-2.1-1.3-2.6 2.9-2.1 2.6.4 4.4.2 4.8-.6 1-1.6 4.3-.2 3.7 1.6-.5 1.1.2 1.3 2.7 1 2.4-.2 3.3-.9 3.5-2.5.3-2.1.1-2.2-9.7-2.2-10.1 0-10.1 0-10.1 3.5m43 0c0 3.6 0 3.6 5.5 3.4s5.5-.2 5.5-3.6c0-3.3 0-3.3-5.5-3.3s-5.5 0-5.5 3.5"/><path d="M361.7 336.6c-.8.8.1 2.4 1.4 2.4.5 0 .9-.7.9-1.5 0-1.5-1.2-2-2.3-.9m-319.6 4.6c0 2.8.2 3 .9 1.3.8-1.8.9-1.8.9-.2.1 2.7 2.1 1 2.1-1.9 0-1.7-.5-2.4-2-2.4-1.6 0-2 .6-1.9 3.2m-33.4-1.5c-2 1.9-.5 3.3 3.8 3.3 3.8 0 4.5-.3 4.5-2 0-2-6.6-3.1-8.3-1.3M23 341c0 1.1.5 2 1.2 2 .6 0 .8-.3.5-.7-.4-.3.1-1.2 1.1-1.9 1.6-1.2 1.5-1.3-.5-1.4-1.6 0-2.3.6-2.3 2m156.3 2.6c0 .9 1.1 1.4 3.1 1.3 1.7 0 2.4-.3 1.6-.6s-2.2-.9-3.1-1.4c-1.1-.5-1.6-.3-1.6.7m-64.6.9c-1.1 1.1-4.8 1.5-14.8 1.8-10.3.2-8.6.3 7.4.5 13.3.1 20.7-.2 20.7-.8s-2-1-4.4-1c-2.5 0-4.8-.5-5.1-1-.9-1.4-2.1-1.2-3.8.5m89-.4c.8.8 1.6.8 3 0 1.6-.9 1.4-1-1.1-1.1-2.2 0-2.7.3-1.9 1.1M132 346c0 .5 1.6 1 3.5 1s3.5-.5 3.5-1c0-.6-1.6-1-3.5-1s-3.5.4-3.5 1m145 3.1c0 .5 1.1.9 2.5.9 3.3 0 3.3-1.5 0-1.6-1.4-.1-2.5.2-2.5.7m-178.5 1c.7 1.1 9.9.8 11.1-.4.4-.4-2.1-.7-5.5-.7-4.1 0-6 .4-5.6 1.1m41.7-.1c1.8 1.1 6.8 1 6.8-.2 0-.4-1.9-.8-4.2-.8-3.3.1-3.9.3-2.6 1m8.1-.3c.9.8 18.6.7 19.4-.1.4-.3-4-.6-9.7-.6s-10 .3-9.7.7M463 351c0 .5-2.1 1-4.7 1-2.7 0-5.5.5-6.3 1-1 .7.6 1 5.5 1 6.4 0 7.1-.2 7.2-2 .1-1.1-.2-2-.8-2-.5 0-.9.4-.9 1m77-.1c0 .7-.7 1.1-1.5.8-.8-.4-1.7-.2-2 .3s1 .9 3 .8 3.2-.4 2.8-.7c-.4-.4-1.1-1-1.5-1.5-.5-.5-.8-.4-.8.3M96 353c0 .5 1.7 1 3.8.9 3 0 3.3-.2 1.7-.9-2.8-1.2-5.5-1.2-5.5 0m38 0c-1 .6 3.3 1 12.3 1 7.6 0 13.6-.4 13.3-.8-.7-1.2-23.8-1.3-25.6-.2m113.8-.3c1.8.2 4.5.2 6 0s0-.4-3.3-.4-4.5.2-2.7.4m188.2.7c0 .8.7 1.6 1.5 2 .8.3 1.5 0 1.5-.6s1-.2 2.3 1c2.5 2.4 3.7 2.8 3.7 1.2 0-.6-.7-1-1.5-1s-1.5-.4-1.5-.8c0-.8-4.3-3.2-5.5-3.2-.3 0-.5.6-.5 1.4m8.6-.5c-.3.5.6 1.1 1.9 1.4 2.9.5 4.3-.8 1.9-1.7-2.2-.8-3.2-.8-3.8.3m-84 1.6c-.4 1.2-1.8 1.5-5.1 1.4-2.4-.2-4.8 0-5.1.4-.6.6 10.4 1.3 16.1.9 3.5-.1 5.2.7 3.5 1.8-2.5 1.6-.7 1.9 11.5 2 18.5.2 21.9.1 21.1-.7-.4-.4-4.2-.6-8.6-.5-6.5.3-8 .1-8.8-1.4-.7-1.3-2.7-1.8-8.8-2-6-.3-8.2-.8-9.1-2.1-1.2-1.6-1.3-1.6-1.3 0 0 1.1-.8 1.7-2.5 1.7-1.8 0-2.3-.4-1.9-1.5.4-.8.4-1.5.1-1.5s-.8.7-1.1 1.5m-74.1.3c-6.5.5-6.6 2.2-.2 2.2 6 0 7.2 1 3.5 2.8-1.9.8-.9 1 5 1 4-.1 7.5-.5 7.8-.9.3-.5-1-.7-2.8-.5s-3.9-.1-4.7-.7c-1.2-1-1.3-.9-.6.2.6 1 .4 1.2-.4.7-2.2-1.4-.1-2.1 6.2-2.2 12.9-.3 15-.4 14.3-1.2-.9-.8-21.9-1.9-28.1-1.4m109 .1c-.6.5-2.3 1.1-4 1.4-1.6.2.4.4 4.5.5 4.1 0 6.8-.2 6-.5s-1.8-1.1-2.2-1.7c-.5-.8-.8-.7-.8.1 0 .7-.5 1.3-1.1 1.3-.5 0-.7-.5-.4-1 .8-1.3-.8-1.3-2-.1m-160 1.1c-.3.5.3 1 1.4 1s2.3-.5 2.6-1c.3-.6-.3-1-1.4-1s-2.3.4-2.6 1m16.5 0c0 .5 1.4 1 3 1 1.7 0 3-.5 3-1 0-.6-1.3-1-3-1-1.6 0-3 .4-3 1m222.6 0c-1.2.4-1.2.7 0 1.8.8.7 1.4.8 1.4.3s1.9-1.1 4.3-1.3c4.2-.3 4.2-.3 0-.8-2.3-.3-4.9-.3-5.7 0m78.8.1c-.5.8 1.3 1 6 .7 3.6-.2 6.6 0 6.6.4s-.7.8-1.5.8-1.5.4-1.5 1 2.6 1 5.7 1c5.7 0 5.7 0 3.3-1.7s-2.4-1.7 0-2.4c1.4-.3-2.1-.7-7.7-.7-6.5-.1-10.4.2-10.9.9m-436.7.6c1.8.2 5 .2 7 0 2.1-.2.7-.4-3.2-.4-3.8 0-5.5.2-3.8.4m51.1 0c2.9.2 7.4.2 10 0s.2-.3-5.3-.3-7.6.1-4.7.3m21.6.1c.5.8 7.6.4 7.6-.4 0-.2-1.8-.4-4.1-.4-2.2 0-3.8.4-3.5.8m273.6.1c0 .4 1.3.8 3 .7 3.9-.1 3.9-1.6 0-1.6-1.6 0-3 .4-3 .9m59.8.3c-.3.8-3.7 1.4-9.4 1.8-13.5.8-4.3 1.6 11.6 1 7.4-.3 10.9-.7 7.8-.8-5.4-.2-7.5-1.4-4.5-2.5.6-.3-.2-.6-2-.6-1.7-.1-3.3.4-3.5 1.1"/><path d="M558 359c0 .5.9 1 2.1 1 1.1 0 1.7-.5 1.4-1-.3-.6-1.3-1-2.1-1s-1.4.4-1.4 1m-498.5.7c11.7.7 52.5.7 52.5 0 0-.4-12.9-.6-28.7-.5-15.9.1-26.5.3-23.8.5m53.5.3c0 .5 1.2 1 2.8 1 2.1 0 2.4-.2 1.2-1-2-1.3-4-1.3-4 0m7 0c0 1 1.3 1.1 11 1.2 8.7.1 10.7-.2 8.5-1.2-2.9-1.2-19.5-1.2-19.5 0m113.3-.3c3.7.2 6.6.7 6.3 1.1s1.1.6 3 .4c6.8-.8 2-2.2-6.9-2-8.3.2-8.5.2-2.4.5m13.9-.1c1.1 1 11.7 1.4 12.3.4.4-.6-2-1-6.1-1-3.7 0-6.5.3-6.2.6m13.8.4c0 .5.9 1 2.1 1 1.1 0 1.7-.5 1.4-1-.3-.6-1.3-1-2.1-1s-1.4.4-1.4 1m69.3-.2c-4.3.7-2.3 1.7 3.2 1.7 3 0 5.5-.2 5.5-.5 0-.4 1.7-.4 3.8-.2 2 .3 3.4.2 3.1-.2-.7-.7-12.5-1.4-15.6-.8m18.2.1c-1.6.7-1 1 2.5 1.2 6.3.5 16-.1 16-1.1s-16-1.1-18.5-.1m126.5.1c-2 .6-1.4.8 2.5.8 3.7.1 4.5-.2 3-.8-2.4-1-2.3-1-5.5 0m-23.2.7c1.2.2 3 .2 4 0 .9-.3-.1-.5-2.3-.4-2.2 0-3 .2-1.7.4m15 0c1.2.2 3 .2 4 0 .9-.3-.1-.5-2.3-.4-2.2 0-3 .2-1.7.4M45 363c0 .5 1.1 1 2.5 1s2.5-.5 2.5-1c0-.6-1.1-1-2.5-1s-2.5.4-2.5 1m10 0c2 1.3 29 1.3 29 0 0-.6-5.7-1-15.2-1-10.3 0-14.8.4-13.8 1m30.5 0c.4.6 11.1 1 30.7 1 16.6 0 29.9-.2 29.7-.4-1.1-.9-61-1.6-60.4-.6m149.5 0c-12.1.4-14.5.6-7.8.8 6.6.1 9.8.6 10.1 1.4.3 1 .7 1 1.9 0 1.3-1 1.7-1 2.1 0q.6 1.5.6 0c.1-.7 1.4-1.2 3.2-1.2 2.1 0 2.8.4 2.3 1.2-.6 1-.4 1 .8 0 1.1-.9 1.8-1 2.3-.2.3.6 1.2.7 1.8.3.7-.4 4.8-1 9.2-1.3l8-.6-8.5-.5c-4.7-.2-16.4-.2-26 .1m228.3-.4c.4.8-1.4 1.1-6.1 1.1-13.2-.1-21.7.3-20.6 1.1 1.8 1.1 31.4.3 31.4-.9 0-.6-.5-.7-1-.4-.6.4-1.8.1-2.7-.7-.9-.7-1.4-.8-1-.2M173 363.8c0 .5 1.4.7 3 .4 1.7-.2 3-.6 3-.8s-1.3-.4-3-.4c-1.6 0-3 .4-3 .8m23.3-.1c2.6.2 6.7.2 9 0s.2-.3-4.8-.3c-4.9 0-6.8.1-4.2.3m88.5 0c3.4.2 9 .2 12.5 0 3.4-.2.6-.3-6.3-.3s-9.7.1-6.2.3m20.4.7c1 1.1 1.6 1.1 2.7.2 1.1-.8 1.3-.8.8 0-.7 1.3 11.5 1.2 16.8 0 2.1-.5 2.6-.5 1.6.2-1.1.8-.8 1 1.2.9 1.5-.1 2.7-.8 2.7-1.5 0-.9-3.4-1.2-13.5-1.2-11.6 0-13.4.2-12.3 1.4m26.8-.4c0 .6 1.1.8 2.6.4 1.6-.4 2.5-.3 2.1.2-.3.6.3 1 1.3 1s1.6-.6 1.3-1.3c-.6-1.5-7.3-1.8-7.3-.3m13.8-.3c2.3.2 4 .8 3.7 1.4-.4.5.4.9 1.7.9 1.6 0 1.9-.3 1-.8-.7-.5.8-.9 3.8-1 3.3 0 5 .3 5 1.1s.3.7.9-.2c.6-.8 1.9-1.2 3.5-.9 1.5.3 2.9.2 3.1-.2.3-.5-5.7-.8-13.3-.7-7.5 0-11.8.2-9.4.4m29.2.3c0 .5 1.6.9 3.5.8s3.2-.5 2.9-1c-.7-1.1-6.4-1-6.4.2"/><path d="M388 364c0 .5 2 1 4.5 1s4.5.4 4.5 1c0 .7-21.9 1.1-63.2 1.2-34.8.1-55.5.4-45.9.5 10.8.2 18 .8 18.8 1.4.9.8 1.3.8 1.3 0 0-.7 2.3-1.1 6.3-1.1 4.4 0 5.8.3 4.7 1-.9.6-1 1-.3 1 .6 0 1.5-.5 1.8-1 .8-1.3 10.6-1.1 12.3.3.8.6 1.2.6 1.2-.2 0-.6.7-1.1 1.5-1.1s1.5.5 1.5 1.1c0 .8.4.8 1.3.1 1.8-1.4 23.8-1.4 25.6.1 1.2.9 1.3.9.7-.1s3.6-1.2 20.9-1.1c11.8.1 21.8.6 22.1 1.1.3.4.9.6 1.4.3s1.9-.1 3.1.6c1.2.6 2.4.7 2.8.3.9-1.3 6.1-1.6 7.5-.5.8.7 1.2.5 1.3-.8.1-1.5-.4-1.8-3-1.6-4.8.5-13.7-.6-13.7-1.7 0-.5 2.1-.9 4.8-.7 7.9.4 21.6-.1 20.9-.7-1.1-1.2-44.7-1.5-44.7-.4m16.7 2.3c.3.4-.8.7-2.5.7-1.8 0-3.2-.4-3.2-.9 0-1.1 4.6-.8 5.7.2M472 364c0 .6 1.1 1 2.5 1s2.5-.4 2.5-.8-1.1-.9-2.5-1-2.5.3-2.5.8m-409 2.1c-1.9.4 3 .8 11 .9 40.3.7 48 .7 48-.1 0-1-53.8-1.7-59-.8m100.3 1.6c19.6.2 51.8.2 71.5 0 19.6-.1 3.5-.2-35.8-.2s-55.4.1-35.7.2"/><path d="M428 367.9c0 .5 1.4.9 3 .9 1.7-.1 3-.5 3-1 0-.4-1.3-.8-3-.8-1.6 0-3 .4-3 .9m15.6.7c-.3.7.2 1.1 1.2 1 .9-.2 1.7-.7 1.9-1.3.5-1.4-2.5-1.2-3.1.3m31.2-.9c1.2.2 3 .2 4 0 .9-.3-.1-.5-2.3-.4-2.2 0-3 .2-1.7.4m9.5 0c2 .2 5.4.2 7.5 0 2-.2.3-.4-3.8-.4s-5.8.2-3.7.4m16 0c1.5.2 3.7.2 5 0 1.2-.2 0-.4-2.8-.4-2.7 0-3.8.2-2.2.4M26 370c0 .5 1.1 1 2.5 1s2.5-.5 2.5-1c0-.6-1.1-1-2.5-1s-2.5.4-2.5 1m6 0c0 .6 2.5 1 5.5 1 7.2 0 7.2-1.7 0-1.9-3.1 0-5.5.3-5.5.9m17.7.2c-.7.4 17.7.7 40.8.6s40-.3 37.5-.5c-10.1-.7-77.3-.7-78.3-.1"/></svg>