<svg xmlns="http://www.w3.org/2000/svg" viewBox="0 0 868 500" fill="currentColor">
<g transform="translate(0,500) scale(0.1,-0.1)" stroke="none">
<path d="M4932 4938 c-16 -16 -15 -28 4 -49 16 -17 15 -21 -9 -52 -27 -35 -35
-58 -41 -114 -2 -18 -9 -40 -16 -48 -10 -12 -10 -18 0 -30 7 -9 11 -40 9 -84
-2 -38 0 -73 4 -77 21 -21 5 -114 -31 -182 -8 -15 -898 -18 -916 -3 -21 18
-40 101 -28 124 7 14 10 87 9 206 -3 184 -3 184 -47 222 -45 38 -45 38 -71 13
-37 -36 -41 -61 -43 -291 -2 -169 -5 -205 -18 -220 -9 -10 -18 -29 -20 -43 -5
-37 -45 -51 -156 -54 -53 -2 -140 -8 -192 -14 -52 -6 -167 -18 -255 -27 -88
-9 -172 -22 -187 -30 -33 -17 -54 2 -50 45 2 16 -1 31 -7 35 -6 3 -11 21 -11
38 0 18 -4 39 -9 47 -6 8 -7 18 -5 22 3 5 7 49 8 98 2 67 7 95 20 109 9 10 22
44 28 75 14 67 -5 97 -65 101 -47 3 -53 8 -51 49 2 42 -18 65 -41 46 -19 -16
-19 -40 0 -66 13 -19 12 -23 -10 -44 -27 -25 -38 -161 -15 -175 8 -5 8 -11 0
-20 -6 -7 -13 -54 -16 -103 -5 -90 -5 -90 26 -112 32 -23 37 -39 18 -58 -9 -9
-15 -8 -28 3 -21 19 -64 -22 -77 -74 -5 -19 -15 -37 -23 -41 -8 -4 -24 -12
-35 -17 -12 -6 -41 -14 -65 -18 -57 -9 -282 -58 -423 -92 -133 -32 -144 -27
-151 72 -2 33 -5 62 -6 65 -1 3 -2 21 -2 40 0 19 -3 39 -8 45 -4 5 -1 41 6 79
8 38 12 77 8 85 -4 9 -8 22 -10 30 -1 8 -19 30 -38 50 -32 33 -34 38 -20 52
13 14 13 17 -1 29 -31 26 -55 -14 -26 -44 23 -25 23 -25 -2 -58 -14 -18 -40
-44 -56 -56 -38 -28 -38 -38 -4 -74 26 -27 27 -31 27 -154 1 -126 1 -126 -37
-157 -25 -22 -37 -40 -37 -58 0 -26 -63 -88 -84 -81 -4 1 -14 -2 -20 -8 -7 -5
-16 -7 -19 -3 -4 3 -14 0 -23 -8 -9 -7 -24 -14 -33 -14 -9 -1 -26 -2 -38 -3
-12 -1 -35 -13 -51 -27 -17 -14 -37 -23 -45 -20 -8 4 -40 -5 -72 -19 -71 -32
-81 -32 -100 -2 -17 26 -19 142 -3 152 4 3 8 15 8 26 0 12 8 30 17 40 34 37
24 118 -19 167 -21 22 -38 48 -38 56 0 27 -1 30 -17 47 -23 26 -47 4 -39 -35
5 -22 0 -36 -19 -59 -25 -30 -26 -31 -24 -209 2 -123 -1 -182 -9 -192 -7 -8
-10 -16 -7 -19 3 -3 -1 -11 -10 -18 -8 -7 -15 -21 -15 -31 0 -10 -20 -40 -45
-66 -45 -47 -45 -47 -68 -25 -21 22 -22 30 -22 191 0 166 0 168 -28 209 -15
23 -24 42 -21 42 4 0 1 7 -6 15 -19 23 -39 1 -34 -38 2 -18 -1 -57 -7 -87 -6
-30 -12 -124 -14 -209 -4 -152 -5 -155 -32 -183 -26 -27 -27 -31 -25 -132 3
-104 3 -104 -42 -141 -38 -31 -44 -41 -40 -64 7 -33 -14 -53 -76 -74 -126 -43
-185 -68 -205 -87 -12 -11 -24 -18 -26 -16 -3 3 -25 7 -50 9 -25 2 -51 7 -57
11 -24 15 -131 -64 -111 -83 2 -2 -4 -9 -13 -15 -13 -8 -24 -5 -47 12 -66 49
-61 174 -61 -1458 l0 -1480 4290 0 4290 0 -2 1497 c-3 1497 -3 1497 -43 1520
-32 18 -50 22 -90 17 -27 -3 -54 -6 -60 -5 -12 0 -184 59 -199 69 -6 3 -20 8
-30 9 -11 2 -25 8 -33 14 -7 6 -13 8 -13 4 0 -5 -9 0 -20 10 -17 15 -18 20 -5
39 14 21 11 25 -40 73 -55 52 -55 52 -53 108 1 31 6 59 10 61 5 3 6 10 3 15
-4 5 -8 28 -11 51 -3 24 -13 52 -22 63 -35 41 -43 66 -40 129 1 35 -3 70 -9
78 -19 24 -24 105 -8 118 20 17 19 24 -9 57 -24 27 -24 27 -3 55 20 27 20 29
4 45 -24 24 -69 -16 -47 -42 11 -13 10 -19 -9 -39 -15 -16 -20 -31 -16 -47 3
-13 1 -69 -5 -124 -6 -55 -11 -117 -12 -137 -2 -56 -25 -73 -65 -48 -41 24
-64 60 -65 100 -1 23 -10 38 -40 61 -38 31 -46 55 -29 88 5 9 11 77 12 150 2
132 2 132 -31 166 -54 56 -60 40 -61 -154 -1 -290 -7 -298 -177 -231 -59 24
-143 55 -187 70 -136 46 -165 68 -165 122 0 15 -16 37 -47 64 -48 42 -48 42
-29 63 19 21 19 22 -4 46 -19 20 -21 27 -11 39 7 8 11 26 9 39 -1 13 4 36 11
51 13 24 13 29 -8 57 -21 29 -22 32 -6 49 11 12 13 20 6 25 -6 3 -11 13 -11
22 0 9 -9 26 -20 38 -20 22 -20 22 9 63 44 60 19 77 -34 22 -22 -22 -44 -40
-51 -40 -17 0 -35 -25 -38 -54 -1 -14 -6 -29 -9 -32 -3 -4 0 -16 8 -28 11 -15
15 -52 15 -145 0 -102 3 -128 17 -143 15 -17 15 -19 -3 -39 -10 -12 -18 -29
-16 -38 1 -10 -6 -25 -17 -35 -18 -17 -25 -16 -148 14 -70 17 -135 33 -143 37
-8 3 -18 5 -23 5 -4 -1 -49 7 -100 17 -50 11 -112 23 -137 27 -24 3 -53 11
-65 17 -11 5 -27 13 -35 17 -8 4 -19 23 -25 43 -5 19 -18 44 -29 56 -17 18
-19 40 -21 198 -4 219 -5 227 -49 272 -31 33 -33 38 -20 55 12 17 12 22 -3 38
-29 32 -54 -10 -30 -49 5 -8 -3 -19 -19 -30 -15 -9 -40 -35 -55 -56 -28 -38
-28 -38 -8 -70 10 -18 19 -48 19 -68 0 -23 7 -42 20 -54 19 -17 19 -20 4 -36
-10 -12 -14 -25 -9 -36 10 -23 15 -56 19 -113 2 -39 -2 -49 -34 -84 -37 -40
-37 -40 -181 -23 -197 22 -332 36 -474 48 -66 6 -134 12 -152 13 -40 4 -63 22
-63 51 0 12 -9 33 -20 47 -10 14 -21 37 -24 52 -3 15 -10 34 -16 41 -8 10 -8
15 0 20 8 5 8 10 0 20 -6 8 -7 16 -2 19 5 3 10 29 10 58 0 29 3 88 6 130 4 49
2 79 -4 83 -8 5 -7 11 1 21 13 16 -6 48 -23 38 -5 -3 -18 2 -29 12 -18 16 -18
18 -3 35 26 29 -7 64 -34 37z m-465 -2563 c12 -9 26 -15 30 -14 58 10 154
-122 151 -207 -1 -19 -5 -37 -10 -40 -4 -3 -4 -14 2 -24 8 -16 14 -699 6 -768
-1 -13 -17 -35 -35 -49 -32 -25 -32 -25 -72 7 -40 32 -40 32 -64 10 -15 -14
-25 -18 -30 -10 -5 8 -11 8 -21 -1 -11 -9 -12 -15 -3 -26 10 -11 15 -11 31 4
28 25 73 -17 45 -44 -15 -16 -18 -16 -35 0 -18 16 -20 16 -37 -3 -12 -13 -22
-17 -28 -11 -5 5 -15 7 -21 5 -7 -3 -21 4 -31 16 -17 18 -20 19 -36 4 -12 -11
-19 -12 -24 -4 -5 8 -12 7 -25 -5 -15 -14 -18 -14 -30 0 -10 12 -16 13 -27 4
-10 -9 -18 -8 -33 6 -11 10 -23 15 -27 12 -12 -13 -44 25 -32 39 7 9 11 142
12 402 2 302 5 392 15 405 9 10 10 17 2 22 -17 10 -11 116 9 160 21 46 102
118 124 109 8 -3 18 -1 22 5 10 17 147 14 172 -4z m1310 -37 c33 -14 123 -97
123 -113 0 -7 11 -22 24 -34 27 -26 42 -94 28 -131 -5 -13 -5 -40 -1 -60 4
-19 9 -184 11 -365 3 -330 3 -330 -41 -382 -24 -29 -47 -51 -50 -50 -4 1 -23
-15 -43 -36 -38 -40 -63 -44 -96 -14 -18 16 -20 16 -37 -3 -16 -17 -20 -18
-34 -6 -24 20 -57 13 -91 -19 -41 -39 -62 -27 -68 41 -2 27 -8 54 -13 60 -11
13 -3 74 11 88 6 6 3 17 -7 28 -13 14 -14 21 -5 30 15 15 16 90 0 106 -8 8 -8
15 2 27 8 10 9 19 3 28 -21 25 -10 153 15 179 24 26 29 53 11 64 -8 4 -8 9 0
17 6 6 11 32 11 58 0 26 -5 51 -11 55 -8 4 -8 9 0 17 6 6 11 32 11 57 0 34 5
52 20 65 25 23 8 54 -17 33 -13 -10 -19 -8 -34 11 -21 25 -27 105 -9 116 6 4
17 23 26 43 19 47 41 71 79 88 38 17 145 18 182 2z m-2632 -11 c11 -6 29 -10
41 -8 28 3 45 -20 46 -61 0 -24 8 -40 32 -60 27 -24 29 -29 19 -47 -8 -13 -9
-22 -2 -26 6 -4 7 -11 1 -18 -10 -12 -8 -84 2 -95 4 -3 -4 -16 -15 -28 -18
-20 -20 -26 -9 -39 11 -13 10 -19 -4 -34 -15 -16 -15 -19 -1 -31 14 -12 14
-15 -1 -31 -16 -18 -16 -20 0 -38 11 -12 13 -21 7 -25 -6 -4 -8 -13 -5 -20 3
-8 1 -17 -5 -21 -18 -11 -12 -47 11 -72 21 -23 21 -23 0 -46 -27 -29 -28 -64
-2 -97 19 -25 19 -25 -1 -46 -13 -14 -17 -24 -10 -29 6 -3 11 -18 11 -32 0
-15 7 -34 15 -43 14 -15 14 -18 0 -30 -8 -7 -15 -18 -15 -25 0 -30 -30 -39
-54 -16 -21 19 -24 20 -36 6 -12 -14 -16 -13 -41 11 -27 26 -30 26 -47 11 -17
-15 -19 -15 -35 0 -22 22 -49 -1 -49 -41 0 -49 -41 -56 -77 -12 -12 14 -18 12
-51 -14 -30 -24 -40 -27 -48 -17 -8 9 -10 155 -9 462 2 450 2 450 30 497 34
57 52 74 62 58 5 -8 19 -1 40 20 18 18 38 30 43 26 5 -3 15 1 22 9 14 17 105
18 135 2z m3917 -352 c32 33 60 -802 27 -841 -13 -16 -49 6 -49 31 0 7 -7 18
-15 25 -11 9 -12 16 -5 25 8 9 4 21 -15 43 -20 23 -22 32 -12 40 19 16 20 72
2 92 -14 15 -14 18 0 30 20 16 20 84 -1 100 -31 27 -72 -62 -43 -96 7 -9 6
-18 -3 -33 -10 -17 -10 -25 0 -42 11 -18 11 -24 -4 -40 -9 -10 -13 -19 -9 -19
4 0 0 -9 -10 -20 -18 -20 -18 -20 -42 2 -20 18 -21 24 -9 37 17 20 15 93 -2
114 -9 10 -10 17 -2 22 5 3 10 21 10 40 0 49 46 102 70 80 15 -14 19 -13 39 9
14 15 19 26 12 30 -7 5 -7 13 1 26 10 15 9 23 -6 39 -18 20 -18 22 -3 39 20
22 22 73 5 90 -9 10 -9 15 3 27 24 25 12 81 -23 106 -29 21 -25 55 6 43 7 -3
19 2 26 11 12 14 15 14 30 0 9 -8 19 -13 22 -10z m-5250 2 c27 24 67 -10 43
-37 -25 -28 -22 -341 4 -364 13 -12 21 -14 26 -6 5 8 11 8 21 -1 11 -9 12 -15
3 -25 -8 -10 -15 -11 -24 -4 -8 7 -19 2 -35 -15 -21 -23 -25 -24 -40 -10 -15
14 -18 14 -30 0 -16 -19 6 -53 23 -36 7 7 16 6 29 -6 24 -22 27 -223 3 -243
-11 -9 -19 -9 -28 -2 -7 6 -33 9 -57 7 -67 -5 -71 2 -71 124 1 58 1 113 1 121
-1 8 2 72 4 142 3 75 1 130 -4 133 -15 9 -9 88 8 107 8 10 16 33 17 52 2 38
12 59 25 51 4 -3 13 2 21 11 11 13 14 13 28 0 13 -14 17 -14 33 1z"/>
</g>
</svg>
