<svg xmlns="http://www.w3.org/2000/svg" viewBox="0 0 468 622" fill="currentColor">
<g transform="translate(0,622) scale(0.1,-0.1)"
stroke="none">
<path d="M2571 5920 c-30 -17 -59 -30 -66 -30 -29 0 -142 -127 -180 -204 -36
-71 -40 -85 -37 -144 2 -62 0 -68 -36 -121 -52 -74 -59 -120 -33 -199 26 -77
26 -86 -1 -109 -30 -24 -52 -86 -40 -110 29 -54 20 -76 -38 -93 -116 -35 -192
-89 -296 -211 -55 -64 -104 -108 -181 -161 -171 -119 -167 -117 -299 -129 -65
-6 -171 -23 -238 -39 -154 -38 -326 -56 -367 -39 -18 7 -47 38 -76 81 -26 38
-59 79 -74 91 -15 12 -44 43 -64 70 -22 28 -44 47 -56 47 -40 0 -37 -57 6
-108 51 -60 40 -66 -97 -56 -241 17 -304 9 -265 -34 9 -10 17 -24 17 -30 0 -6
18 -21 40 -32 25 -13 40 -27 40 -39 0 -25 95 -61 295 -111 28 -7 70 -21 95
-30 76 -30 83 -32 155 -35 39 -1 140 -11 225 -20 134 -16 180 -16 325 -7 l170
10 135 62 c230 103 283 131 348 177 l62 44 0 -59 c0 -68 6 -79 32 -55 14 13
21 14 30 5 17 -17 44 -16 29 1 -8 10 -7 21 2 40 13 29 27 36 27 13 0 -14 29
-31 37 -22 3 2 0 13 -6 24 -23 43 -9 45 32 4 42 -42 57 -50 57 -33 0 5 -8 11
-18 13 -19 5 -79 108 -63 108 11 0 75 -78 84 -102 7 -20 22 -23 32 -8 3 5 -6
19 -20 32 -14 12 -25 30 -25 40 0 11 -12 30 -26 43 -14 13 -24 29 -22 36 2 7
26 -15 53 -47 28 -32 54 -61 59 -63 4 -2 16 -13 25 -24 58 -74 105 -117 115
-107 8 8 3 18 -19 35 -16 13 -27 26 -25 28 3 2 30 20 60 40 30 21 77 53 103
73 81 59 138 88 147 74 9 -15 30 -5 30 14 0 6 19 29 43 49 24 20 46 40 50 43
3 3 3 -3 0 -15 -3 -12 -3 -21 0 -21 9 0 57 88 57 103 0 8 7 17 15 21 8 3 15
13 15 22 0 13 3 14 15 4 8 -6 23 -9 35 -5 32 10 10 -54 -26 -77 -6 -4 -15 -29
-19 -55 -7 -50 -67 -196 -92 -225 -16 -18 30 -121 52 -115 17 5 55 89 55 122
0 16 6 42 14 57 12 23 12 27 0 32 -19 7 -18 26 1 26 8 0 15 -6 15 -14 0 -18
66 -76 85 -76 8 0 15 -8 15 -17 0 -14 5 -12 25 10 14 15 32 27 40 27 8 0 21
10 30 23 l16 22 25 -30 c14 -16 47 -58 75 -92 27 -35 84 -90 127 -124 144
-113 294 -219 319 -225 81 -21 301 30 364 83 10 9 45 13 103 13 76 0 88 2 93
18 2 10 22 24 46 33 48 16 61 45 26 57 -20 8 -19 10 24 31 26 13 47 29 47 36
0 7 10 19 22 27 44 29 17 48 -69 49 -135 2 -152 16 -162 144 -7 79 -14 95 -41
95 -25 0 -34 -35 -28 -101 3 -32 -2 -77 -13 -122 -11 -39 -19 -79 -19 -89 0
-27 -44 -32 -126 -14 -41 9 -98 16 -127 16 -83 0 -145 37 -268 160 -62 61
-119 129 -139 164 -47 83 -118 165 -179 206 -50 34 -51 36 -45 73 4 26 1 45
-10 62 -9 13 -16 31 -16 40 0 8 -5 15 -11 15 -6 0 -7 8 -3 23 18 51 0 131 -52
242 -28 61 -44 119 -44 164 0 57 -41 204 -81 288 -32 67 -75 108 -149 140 -25
11 -53 27 -62 37 -74 74 -183 92 -267 46z m59 -130 c0 -5 -7 -10 -15 -10 -8 0
-15 5 -15 10 0 6 7 10 15 10 8 0 15 -4 15 -10z m261 -363 c-8 -8 -11 -5 -11 9
0 27 14 41 18 19 2 -9 -1 -22 -7 -28z m-287 -122 c5 -14 -2 -45 -10 -45 -15 0
-92 45 -88 52 9 15 91 9 98 -7z m295 -214 c25 -16 27 -39 6 -47 -8 -4 -15 -15
-15 -25 0 -10 -4 -19 -9 -19 -11 0 -51 97 -46 113 2 7 10 32 16 57 l13 45 7
-55 c5 -39 13 -59 28 -69z m-459 47 c0 -5 -4 -8 -10 -8 -5 0 -10 10 -10 23 0
21 19 6 20 -15z m25 -88 c-4 -12 -9 -19 -12 -17 -3 3 -2 15 2 27 4 12 9 19 12
17 3 -3 2 -15 -2 -27z m665 -212 c7 -18 4 -28 -16 -45 -35 -32 -64 -27 -32 5
6 6 9 15 5 19 -11 11 -56 -18 -63 -41 -11 -35 -44 -49 -44 -18 0 29 29 62 55
62 14 0 29 9 35 20 14 27 48 26 60 -2z m-962 -117 c3 -21 -13 -51 -27 -51 -19
0 -31 55 -14 68 23 16 37 11 41 -17z m-38 -140 c0 -11 -39 -59 -40 -49 0 14
23 58 32 58 4 0 8 -4 8 -9z"/>
<path d="M2910 4608 c-14 -22 -18 -42 -14 -60 4 -19 -1 -37 -14 -55 -11 -16
-23 -39 -27 -53 -4 -14 -14 -33 -22 -42 -16 -18 -11 -48 7 -48 5 0 10 9 10 19
0 11 11 32 24 46 28 30 84 225 65 225 -5 0 -18 -15 -29 -32z"/>
<path d="M2818 4508 c-6 -55 7 -71 33 -39 32 39 21 81 -21 81 -4 0 -10 -19
-12 -42z"/>
<path d="M2560 4365 c-14 -16 -10 -18 14 -9 9 3 16 10 16 15 0 14 -16 11 -30
-6z"/>
<path d="M2690 4351 c-24 -7 -24 -8 13 -20 42 -14 53 -10 44 14 -7 16 -17 17
-57 6z"/>
<path d="M2758 4279 c-38 -20 -46 -33 -28 -44 18 -11 47 5 59 31 15 35 13 36
-31 13z"/>
<path d="M2240 4220 c0 -10 110 -63 117 -56 2 2 -12 17 -32 35 -34 30 -85 42
-85 21z"/>
<path d="M2693 4178 c2 -7 7 -13 12 -13 5 0 10 6 13 13 2 6 -4 12 -13 12 -9 0
-15 -6 -12 -12z"/>
<path d="M3021 4139 c-6 -18 -9 -34 -7 -36 2 -2 9 10 16 27 7 17 10 33 8 36
-3 3 -11 -9 -17 -27z"/>
<path d="M2115 4023 c10 -191 14 -206 41 -179 7 8 43 18 79 21 71 8 83 20 33
33 -38 10 -48 31 -19 39 12 3 21 10 21 15 0 6 -9 7 -22 3 -41 -12 -63 -11 -63
5 0 8 7 15 15 16 8 0 42 7 75 14 l60 15 -55 5 c-30 3 -70 1 -87 -4 -18 -5 -36
-6 -40 -2 -11 11 19 26 46 24 13 -2 26 3 28 10 3 8 -8 12 -37 12 -37 0 -41 2
-35 21 7 20 -18 59 -37 59 -6 0 -7 -45 -3 -107z"/>
<path d="M3001 4076 c-7 -8 -10 -20 -6 -27 4 -6 2 -15 -5 -19 -8 -5 -9 -10 -1
-14 14 -9 46 53 33 66 -5 5 -14 3 -21 -6z"/>
<path d="M2607 4074 c-12 -12 4 -24 34 -24 16 0 29 5 29 10 0 6 -6 10 -14 10
-8 0 -21 2 -28 5 -8 3 -17 3 -21 -1z"/>
<path d="M2989 3995 c-4 -47 -4 -65 2 -65 11 0 17 48 8 62 -5 7 -9 9 -10 3z"/>
<path d="M2606 3911 c-9 -14 4 -40 24 -51 25 -13 50 -2 50 21 0 29 -60 53 -74
30z"/>
<path d="M2955 3800 c-7 -12 2 -30 16 -30 5 0 9 9 9 20 0 21 -15 27 -25 10z"/>
<path d="M2129 3762 c-5 -13 -9 -29 -9 -36 0 -7 -11 -44 -24 -82 -14 -38 -34
-109 -46 -159 -11 -49 -32 -112 -46 -138 -14 -26 -23 -54 -21 -61 3 -8 0 -22
-7 -32 -14 -20 -15 -24 -42 -164 -12 -64 -13 -93 -5 -119 6 -22 7 -40 1 -52
-11 -20 -3 -375 9 -399 11 -21 12 -298 1 -305 -5 -3 -6 -13 -3 -21 3 -8 0 -26
-7 -38 -8 -17 -9 -33 -2 -59 6 -22 7 -39 1 -43 -5 -3 -9 -22 -9 -43 0 -22 -6
-44 -15 -51 -8 -6 -13 -15 -12 -19 1 -4 -13 -32 -32 -61 -21 -32 -35 -68 -37
-93 -2 -29 -11 -49 -34 -72 -36 -37 -52 -92 -43 -147 5 -37 5 -38 -25 -38 -69
0 -102 -93 -102 -285 0 -129 -2 -144 -20 -160 -23 -21 -25 -37 -8 -64 26 -41
57 60 49 159 -10 123 -4 145 39 144 28 0 36 -5 38 -22 4 -27 37 -29 70 -6 28
19 44 10 36 -23 l-7 -25 79 7 c88 8 96 11 73 28 -8 7 -22 27 -30 45 -12 27
-18 32 -38 27 -14 -4 -30 0 -40 9 -23 20 -93 38 -105 26 -37 -37 -88 10 -63
57 15 28 24 30 78 25 57 -5 61 4 19 41 -32 29 -36 50 -20 109 13 46 36 59 106
61 65 1 66 5 14 37 -40 25 -50 40 -27 40 32 1 42 17 27 45 -13 25 -13 29 9 46
13 11 21 25 17 34 -3 9 8 28 28 48 29 29 31 35 18 44 -14 9 -15 15 -3 51 8 22
11 54 8 70 -3 16 -3 32 0 36 3 3 6 29 5 58 0 29 5 62 12 73 21 33 26 65 10 65
-19 0 -18 27 2 38 10 6 13 12 6 16 -7 4 -7 18 0 42 5 20 6 43 2 52 -4 10 -6
26 -5 36 2 13 -2 17 -12 13 -16 -6 -32 42 -19 54 11 10 303 107 362 120 44 10
267 86 289 99 34 20 -29 10 -91 -14 -35 -14 -97 -32 -138 -41 -41 -10 -96 -23
-121 -31 -39 -12 -57 -12 -130 -1 -84 14 -85 16 -19 37 69 23 67 21 43 31 -30
11 -29 25 2 33 14 4 25 14 25 23 0 14 -10 15 -75 9 -67 -6 -74 -5 -68 10 5 13
2 15 -13 11 -56 -17 -77 -20 -70 -8 4 6 18 11 31 11 13 0 32 8 42 18 30 31 84
58 176 87 98 31 112 46 18 19 -43 -12 -82 -15 -132 -12 -39 3 -86 2 -105 -2
-19 -4 -36 -4 -39 0 -6 9 10 15 68 25 43 7 41 25 -4 25 -40 0 -37 18 6 36 46
19 37 36 -11 22 -69 -19 -56 13 20 48 42 19 46 23 25 23 -19 1 -28 8 -33 24
-9 32 -8 37 8 37 20 0 28 16 31 61 2 32 -1 39 -16 39 -27 0 -24 37 3 46 27 8
47 32 48 57 0 10 4 16 10 12 5 -3 7 -12 3 -20 -7 -19 5 -19 50 0 56 23 55 35
-4 35 -45 0 -50 2 -39 15 10 13 9 15 -10 15 -16 0 -20 4 -16 16 3 9 6 22 6 30
0 8 15 21 34 29 43 18 50 29 36 56 -9 16 -9 24 -1 32 9 9 6 16 -11 29 l-23 18
23 0 c26 0 29 15 5 25 -16 6 -14 9 10 21 15 8 27 19 27 24 0 6 11 10 24 10 14
0 28 5 31 11 5 7 -13 9 -55 7 -55 -2 -63 -6 -71 -26z m21 -122 c0 -11 -7 -20
-15 -20 -13 0 -14 4 -5 20 6 11 13 20 15 20 3 0 5 -9 5 -20z m0 -955 c0 -2 -9
-9 -20 -15 -24 -13 -50 -2 -29 11 15 9 49 12 49 4z m-275 -1365 c0 -8 -8 -16
-17 -18 -13 -2 -18 3 -18 18 0 15 5 20 18 18 9 -2 17 -10 17 -18z"/>
<path d="M2270 3775 c0 -8 6 -15 14 -15 8 0 16 7 20 15 4 10 -1 15 -14 15 -11
0 -20 -7 -20 -15z"/>
<path d="M2956 3731 c-12 -13 -14 -21 -6 -26 7 -4 7 -11 2 -18 -10 -14 -9 -57
1 -74 4 -7 3 -14 -3 -18 -21 -13 -9 -25 25 -25 31 0 35 -3 35 -25 0 -21 5 -25
27 -25 l27 0 -32 -30 c-34 -31 -32 -41 2 -15 11 8 26 15 33 15 17 0 17 -20 1
-20 -7 0 -24 -9 -38 -20 -14 -11 -32 -20 -40 -20 -12 0 -16 -10 -16 -35 0 -19
1 -35 2 -35 1 0 20 10 43 22 46 24 63 18 36 -13 -13 -13 -27 -18 -41 -15 -15
4 -29 -3 -48 -24 -15 -17 -36 -30 -49 -30 -31 0 -60 -23 -62 -49 -1 -11 2 -21
7 -21 4 0 8 7 8 15 0 19 27 32 73 33 26 1 44 8 55 22 l17 20 29 -25 29 -25
-21 -23 c-12 -13 -22 -31 -22 -40 0 -9 -4 -17 -10 -17 -5 0 -10 -4 -10 -10 0
-5 20 2 45 16 38 21 45 22 45 9 0 -9 -20 -35 -45 -58 -63 -59 -61 -76 7 -66
30 5 58 16 65 26 7 9 16 14 19 10 10 -9 -39 -67 -53 -62 -6 2 -35 -6 -63 -18
-49 -20 -53 -21 -65 -4 -21 29 -57 9 -67 -38 -2 -11 -10 -19 -17 -17 -6 1 -39
-13 -72 -33 -33 -19 -67 -35 -75 -35 -8 0 -31 -8 -52 -17 -20 -9 -46 -20 -57
-25 -61 -23 83 9 162 37 115 40 126 24 21 -29 -40 -20 -62 -34 -48 -30 14 3
42 9 64 11 50 7 40 -12 -11 -22 -21 -3 -61 -17 -90 -31 -28 -13 -57 -24 -63
-24 -18 0 -70 -30 -70 -40 0 -6 16 -10 35 -10 19 0 35 -4 35 -10 0 -5 10 -10
23 -9 l22 0 -22 11 c-41 20 -15 51 39 47 18 -1 41 2 50 6 9 4 21 4 26 1 5 -3
18 1 28 9 10 8 30 15 42 15 15 0 26 7 29 20 3 11 9 20 14 20 5 0 9 12 9 26 0
15 12 36 31 53 l30 28 -30 6 c-41 8 -32 32 17 45 20 5 54 17 75 26 42 18 57
-3 17 -24 -32 -17 -23 -26 32 -28 63 -3 67 -6 42 -39 -26 -35 -40 -39 -47 -13
-10 40 -44 25 -37 -17 14 -77 20 -86 54 -79 60 12 88 69 65 135 -8 21 -8 35
-1 44 17 20 20 220 5 290 -8 34 -19 83 -24 110 -6 26 -23 67 -39 91 -17 24
-30 52 -30 61 0 10 -6 23 -14 29 -8 6 -32 46 -54 88 -38 75 -40 77 -56 59z"/>
<path d="M2611 3699 c-18 -6 -31 -12 -28 -15 6 -6 87 14 87 21 0 7 -20 5 -59
-6z"/>
<path d="M2700 3672 c0 -4 5 -13 12 -20 9 -9 5 -12 -17 -12 -17 0 -46 -4 -65
-9 -19 -5 -60 -12 -90 -16 -65 -7 -92 -25 -38 -25 52 0 71 -9 57 -26 -14 -17
11 -30 37 -20 15 6 15 8 -1 26 -21 23 -21 22 75 40 95 17 92 15 78 45 -10 23
-48 36 -48 17z"/>
<path d="M2215 3609 c-4 -6 -5 -13 -1 -16 8 -9 96 7 96 18 0 13 -87 11 -95 -2z"/>
<path d="M2330 3610 c0 -13 11 -13 30 0 12 8 11 10 -7 10 -13 0 -23 -4 -23
-10z"/>
<path d="M2713 3583 c-15 -3 -23 -12 -23 -24 0 -11 -7 -22 -15 -25 -26 -10
-16 -25 13 -18 91 20 118 44 49 44 -29 0 -30 1 -11 15 10 8 17 14 14 13 -3 0
-15 -3 -27 -5z"/>
<path d="M2215 3541 c-3 -5 -1 -12 5 -16 13 -8 50 3 50 16 0 12 -47 12 -55 0z"/>
<path d="M2289 3512 c-9 -1 -26 -21 -39 -43 l-22 -41 31 16 c45 24 69 76 30
68z"/>
<path d="M2563 3499 c-18 -5 -34 -13 -37 -18 -7 -11 86 8 99 20 12 11 -19 10
-62 -2z"/>
<path d="M2722 3478 c3 -7 15 -15 27 -16 16 -3 22 1 19 10 -3 7 -15 15 -27 16
-16 3 -22 -1 -19 -10z"/>
<path d="M2643 3474 c-23 -10 -14 -34 12 -34 14 0 25 5 25 10 0 6 3 9 8 8 4
-2 9 2 12 7 5 11 -37 17 -57 9z"/>
<path d="M2555 3431 c-10 -17 11 -21 31 -6 18 14 18 14 -3 15 -12 0 -24 -4
-28 -9z"/>
<path d="M2485 3400 c-3 -5 1 -10 9 -10 8 0 18 5 21 10 3 6 -1 10 -9 10 -8 0
-18 -4 -21 -10z"/>
<path d="M2609 3341 l-24 -20 25 -9 c32 -12 63 -4 56 15 -3 8 -6 19 -6 24 0
15 -26 10 -51 -10z"/>
<path d="M2720 3295 c-14 -8 -20 -14 -15 -14 6 0 21 6 35 14 14 8 21 14 15 14
-5 0 -21 -6 -35 -14z"/>
<path d="M2140 3275 c0 -8 5 -15 10 -15 6 0 10 7 10 15 0 8 -4 15 -10 15 -5 0
-10 -7 -10 -15z"/>
<path d="M2985 3271 c-8 -15 3 -31 21 -31 9 0 14 7 12 17 -4 20 -24 28 -33 14z"/>
<path d="M2600 3245 c-19 -7 -44 -14 -56 -14 -23 -1 -62 -26 -53 -35 8 -8 169
45 169 55 0 12 -18 10 -60 -6z"/>
<path d="M2925 3231 c-6 -5 -33 -16 -62 -25 -65 -21 -76 -35 -52 -60 17 -17
19 -18 19 -3 0 9 7 17 15 17 25 0 65 23 65 37 0 7 11 13 25 13 16 0 25 6 25
15 0 16 -21 20 -35 6z"/>
<path d="M2600 3200 c0 -5 -12 -16 -27 -24 -23 -13 -25 -15 -8 -15 11 0 28 11
38 24 10 14 13 25 7 25 -5 0 -10 -4 -10 -10z"/>
<path d="M2907 3136 c-8 -8 -23 -15 -33 -15 -51 1 -73 -14 -54 -36 19 -23 5
-43 -35 -51 -39 -7 -53 -20 -37 -36 7 -7 29 -1 69 20 32 16 70 35 86 41 15 6
27 18 27 28 0 10 9 24 20 31 11 7 20 17 20 22 0 15 -47 12 -63 -4z"/>
<path d="M2295 3096 c-41 -17 -145 -38 -174 -34 -17 2 -24 -2 -27 -18 -3 -20
-2 -20 59 -7 116 25 190 48 195 61 5 15 -15 15 -53 -2z"/>
<path d="M2330 3025 c-16 -9 -19 -14 -9 -15 8 0 24 7 35 15 24 18 7 19 -26 0z"/>
<path d="M2422 2991 c-11 -7 -11 -9 2 -14 19 -8 74 2 82 14 7 11 -67 11 -84 0z"/>
<path d="M2696 2984 c-11 -27 -7 -37 9 -24 16 14 20 40 6 40 -5 0 -12 -7 -15
-16z"/>
<path d="M3000 2854 c0 -9 5 -14 12 -12 18 6 21 28 4 28 -9 0 -16 -7 -16 -16z"/>
<path d="M2350 2850 c0 -5 10 -10 23 -10 18 0 19 2 7 10 -19 13 -30 13 -30 0z"/>
<path d="M2357 2790 c-71 -12 -72 -23 -2 -15 59 7 114 25 70 24 -11 -1 -42 -5
-68 -9z"/>
<path d="M2884 2761 c18 -20 18 -21 0 -27 -11 -3 -33 -12 -51 -20 -17 -8 -45
-17 -62 -20 -37 -8 -41 -24 -6 -24 14 0 29 -8 35 -20 6 -11 15 -18 21 -14 7 4
6 10 -1 19 -8 10 -6 15 9 20 24 7 44 -2 36 -16 -10 -16 19 -9 41 9 32 27 40
60 17 78 -17 15 -17 15 5 11 15 -4 22 -1 19 6 -2 7 -21 13 -42 15 -39 3 -39 3
-21 -17z"/>
<path d="M3068 2763 c8 -14 62 -27 62 -14 0 9 -36 30 -53 31 -14 0 -16 -4 -9
-17z"/>
<path d="M3180 2740 c0 -5 -10 -18 -22 -30 -25 -23 -22 -31 10 -19 19 7 34 59
17 59 -3 0 -5 -4 -5 -10z"/>
<path d="M2410 2670 c0 -13 11 -13 30 0 12 8 11 10 -7 10 -13 0 -23 -4 -23
-10z"/>
<path d="M2544 2643 c-21 -8 -75 -16 -119 -18 -97 -4 -161 -23 -79 -24 27 -1
55 -6 62 -13 9 -9 16 -8 30 5 11 10 35 17 57 17 67 0 165 21 165 35 0 18 -65
17 -116 -2z"/>
<path d="M2260 2640 c-11 -7 -6 -10 22 -10 20 0 40 5 43 10 8 13 -45 13 -65 0z"/>
<path d="M2899 2631 c-20 -4 -53 -15 -73 -25 -38 -18 -95 -31 -201 -46 -33 -4
-76 -15 -95 -23 -25 -11 -59 -14 -115 -12 -86 4 -145 -2 -145 -15 0 -12 68
-33 80 -25 38 24 380 9 380 -16 0 -4 38 -7 84 -8 47 -1 93 -4 103 -7 15 -5 16
-4 3 5 -13 10 -13 13 3 25 12 9 14 16 7 21 -6 4 -8 15 -5 26 4 11 9 36 11 56
3 20 7 40 10 44 6 10 5 10 -47 0z m-19 -86 c22 -26 -15 -45 -87 -43 -54 1 -84
18 -33 18 10 0 21 4 24 9 3 4 17 6 31 3 18 -3 25 0 25 12 0 20 24 21 40 1z"/>
<path d="M3070 2615 c7 -8 18 -15 24 -15 18 -1 56 -37 56 -53 0 -8 -17 -25
-37 -37 -21 -13 -33 -25 -27 -27 21 -7 83 41 84 65 0 13 5 32 10 43 10 18 8
19 -28 13 -31 -5 -40 -3 -45 10 -4 9 -16 16 -28 16 -18 0 -19 -2 -9 -15z"/>
<path d="M2200 2580 c0 -5 15 -10 33 -10 24 0 28 3 17 10 -20 13 -50 13 -50 0z"/>
<path d="M2160 2550 c-8 -5 -12 -12 -9 -15 8 -8 39 5 39 16 0 11 -11 11 -30
-1z"/>
<path d="M2333 2553 c9 -2 25 -2 35 0 9 3 1 5 -18 5 -19 0 -27 -2 -17 -5z"/>
<path d="M2193 2503 c-25 -10 -12 -24 19 -21 37 4 52 28 16 27 -12 0 -29 -3
-35 -6z"/>
<path d="M2374 2461 c-2 -3 -29 -6 -61 -7 -31 -2 -61 -8 -67 -14 -8 -8 24 -9
114 -5 131 7 176 12 167 21 -7 7 -147 11 -153 5z"/>
<path d="M2560 2460 c0 -5 10 -10 23 -10 18 0 19 2 7 10 -19 13 -30 13 -30 0z"/>
<path d="M3140 2449 c-8 -5 -32 -14 -52 -19 -21 -6 -38 -15 -38 -20 0 -14 16
-12 40 2 16 10 24 10 40 0 17 -11 20 -9 26 13 8 31 3 37 -16 24z"/>
<path d="M2150 2430 c-11 -7 -7 -10 17 -10 17 0 35 5 38 10 8 13 -35 13 -55 0z"/>
<path d="M2758 2424 c-3 -3 -21 -5 -39 -6 -45 0 -71 -7 -64 -19 3 -5 38 -6 78
-3 55 5 77 2 92 -9 25 -19 -5 -23 -215 -32 -157 -6 -200 -17 -197 -49 2 -21
-17 -28 -125 -41 -68 -9 -59 -25 13 -25 37 0 58 -4 54 -10 -3 -5 2 -10 11 -10
10 0 15 3 11 6 -3 3 7 17 24 31 16 14 29 30 29 37 0 8 10 11 29 8 16 -2 45 5
69 17 l42 21 20 -20 c13 -13 33 -20 56 -20 31 0 35 -2 24 -15 -10 -12 -10 -15
4 -15 9 0 16 4 16 9 0 5 3 17 7 27 5 15 1 16 -40 10 -42 -6 -71 4 -49 18 26
16 119 18 134 3 28 -28 68 -33 68 -8 0 20 44 51 73 51 20 0 41 -26 27 -35 -5
-3 -10 -11 -10 -16 0 -14 47 19 54 38 9 22 -11 33 -59 33 -40 1 -40 1 -15 15
23 13 21 14 -46 15 -39 0 -73 -3 -76 -6z"/>
<path d="M2578 2393 c12 -2 30 -2 40 0 9 3 -1 5 -23 4 -22 0 -30 -2 -17 -4z"/>
<path d="M2213 2375 c0 -16 10 -18 45 -9 33 9 27 24 -11 24 -23 0 -34 -5 -34
-15z"/>
<path d="M2095 2373 c-11 -3 -24 -9 -30 -15 -13 -13 56 0 70 13 10 10 -5 10
-40 2z"/>
<path d="M3032 2364 c4 -20 34 -41 44 -31 8 8 -24 47 -38 47 -5 0 -8 -7 -6
-16z"/>
<path d="M3125 2339 c-4 -6 -5 -13 -2 -16 7 -7 27 6 27 18 0 12 -17 12 -25 -2z"/>
<path d="M2150 2290 c-8 -5 -25 -10 -37 -10 -13 0 -23 -5 -23 -11 0 -6 9 -8
23 -3 12 4 47 13 77 20 54 12 54 12 15 13 -22 0 -47 -4 -55 -9z"/>
<path d="M3121 2266 c-12 -14 -5 -46 10 -46 5 0 9 14 9 30 0 34 -3 36 -19 16z"/>
<path d="M2517 2253 c-14 -14 -6 -19 28 -18 53 2 70 25 19 25 -23 0 -44 -3
-47 -7z"/>
<path d="M2223 2223 c-13 -2 -23 -8 -23 -12 0 -11 92 -1 105 10 9 9 -40 10
-82 2z"/>
<path d="M2130 2200 c-8 -5 -12 -12 -8 -15 9 -9 48 4 48 16 0 12 -21 11 -40
-1z"/>
<path d="M2554 2193 c-46 -4 -51 -6 -47 -23 3 -12 -1 -22 -11 -26 -19 -7 -22
-26 -3 -23 6 1 25 -1 41 -6 23 -6 32 -4 43 11 13 17 15 17 23 3 14 -23 260
-27 260 -4 0 8 5 15 11 15 8 0 8 5 -1 15 -7 8 -18 15 -25 15 -7 0 -15 7 -19
15 -5 15 -123 18 -272 8z"/>
<path d="M2174 2154 c3 -9 6 -25 6 -36 0 -16 5 -19 24 -14 14 3 28 2 31 -4 7
-12 62 -13 69 -2 9 15 -60 61 -83 55 -12 -3 -21 -1 -21 6 0 6 -7 11 -16 11
-11 0 -14 -5 -10 -16z"/>
<path d="M3055 2160 c3 -5 19 -10 35 -10 17 0 33 -7 39 -17 11 -20 15 -4 5 21
-4 11 -19 16 -46 16 -23 0 -37 -4 -33 -10z"/>
<path d="M2393 2143 c-22 -8 -14 -18 17 -19 19 -1 30 4 30 12 0 14 -23 17 -47
7z"/>
<path d="M2343 2095 c-8 -23 2 -28 44 -20 l38 7 -25 14 c-33 18 -49 17 -57 -1z"/>
<path d="M2724 2058 c-3 -4 18 -8 46 -8 30 0 49 4 45 9 -7 12 -84 10 -91 -1z"/>
<path d="M2221 2041 c-23 -15 22 -33 53 -21 15 5 46 7 70 4 26 -3 47 0 51 6 4
6 -11 10 -42 10 -26 0 -64 3 -83 5 -19 3 -41 2 -49 -4z"/>
<path d="M3110 1954 c-7 -21 -23 -49 -36 -60 -45 -40 -34 -45 56 -23 11 3 14
-3 12 -23 -1 -16 2 -28 7 -28 17 0 25 49 11 65 -7 8 -10 26 -6 39 4 16 -1 32
-13 47 l-18 23 -13 -40z"/>
<path d="M2191 1976 c10 -8 89 -13 89 -5 0 5 -21 9 -47 9 -25 0 -44 -2 -42 -4z"/>
<path d="M2176 1921 c-7 -10 17 -21 45 -21 26 0 24 16 -3 24 -31 8 -36 8 -42
-3z"/>
<path d="M2420 1910 c0 -5 6 -10 14 -10 8 0 18 5 21 10 3 6 -3 10 -14 10 -12
0 -21 -4 -21 -10z"/>
<path d="M2320 1890 c0 -5 9 -10 19 -10 11 0 23 5 26 10 4 6 -5 10 -19 10 -14
0 -26 -4 -26 -10z"/>
<path d="M2680 1890 c0 -5 7 -10 15 -10 8 0 15 5 15 10 0 6 -7 10 -15 10 -8 0
-15 -4 -15 -10z"/>
<path d="M2510 1850 c0 -5 7 -10 15 -10 8 0 15 5 15 10 0 6 -7 10 -15 10 -8 0
-15 -4 -15 -10z"/>
<path d="M3083 1796 c-31 -20 -42 -36 -25 -36 11 0 68 48 62 53 -3 2 -20 -5
-37 -17z"/>
<path d="M3131 1789 c-21 -20 -22 -24 -8 -34 9 -6 16 -23 15 -36 -5 -84 2
-148 17 -143 9 4 15 0 15 -10 0 -12 10 -16 35 -16 42 0 42 -3 10 -38 -30 -32
-31 -42 -5 -42 13 0 20 -7 20 -20 0 -15 7 -20 25 -20 14 0 25 -4 25 -9 0 -5
11 -12 25 -15 32 -8 34 -50 3 -102 l-22 -37 27 18 c15 9 27 21 27 26 0 5 4 9
9 9 5 0 7 -19 4 -42 -12 -88 -149 -231 -270 -282 -133 -56 -198 -88 -185 -93
15 -6 66 13 104 39 14 10 33 18 41 18 19 0 78 27 141 64 54 32 150 142 168
193 30 82 70 3 53 -105 -12 -82 -9 -93 31 -128 21 -19 41 -34 46 -34 4 0 8 -9
8 -20 0 -11 6 -20 14 -20 19 0 27 -36 19 -85 -6 -36 -5 -39 10 -27 26 22 68
-31 61 -75 -7 -35 5 -43 26 -17 8 8 25 14 39 12 31 -4 41 -59 21 -119 -12 -35
-11 -38 39 -100 40 -50 51 -71 51 -99 0 -48 9 -55 36 -29 l23 21 11 -43 c7
-24 16 -55 20 -69 4 -14 3 -35 -3 -48 -10 -22 18 -57 48 -57 6 0 10 -5 10 -10
0 -6 -8 -9 -17 -8 -11 2 -18 -6 -20 -20 -4 -30 -95 -39 -115 -11 -11 16 -13
14 -13 -18 0 -46 9 -52 48 -32 28 14 34 13 69 -6 21 -11 48 -20 60 -20 16 0
25 -8 29 -25 6 -24 10 -25 73 -25 36 0 83 4 104 9 21 5 39 5 43 0 3 -5 29 -9
57 -9 48 1 50 2 33 15 -19 14 -19 15 7 15 17 0 27 -5 27 -15 0 -18 38 -20 93
-4 49 13 43 33 -14 39 -24 3 -49 8 -55 12 -5 4 -35 1 -65 -7 -29 -7 -46 -13
-36 -14 19 -1 24 -21 5 -21 -7 0 -22 7 -32 15 -22 16 -65 10 -82 -11 -10 -13
-13 -12 -18 1 -4 11 -14 14 -31 10 -14 -3 -36 -7 -50 -10 -26 -6 -55 41 -55
89 1 20 1 20 15 2 15 -20 83 -15 97 7 5 8 15 4 32 -12 18 -17 32 -22 50 -17
24 6 38 36 17 36 -5 0 -11 7 -13 16 -3 17 -173 30 -183 13 -10 -16 -25 -10
-25 10 0 10 -11 34 -24 53 -16 24 -22 44 -19 62 3 15 -1 36 -11 51 -21 32 -21
35 12 35 15 0 44 5 66 11 27 8 41 8 49 0 8 -8 8 -11 -1 -11 -7 0 -12 -4 -12
-8 0 -5 14 -9 30 -9 17 0 30 3 30 7 0 4 24 6 53 6 28 -1 52 3 52 7 0 13 29 27
58 27 17 0 26 4 22 11 -5 7 -70 8 -204 4 l-197 -5 -43 90 c-24 50 -48 93 -53
96 -20 12 -27 52 -15 84 14 37 -14 70 -59 70 -52 0 -146 128 -142 193 0 12
-20 58 -45 102 -25 44 -52 106 -60 138 -9 33 -23 67 -32 77 -12 14 -15 29 -10
66 6 39 1 67 -20 134 -38 116 -48 134 -126 219 -39 43 -69 84 -71 99 -4 34
-19 37 -47 11z m49 -93 c0 -42 -18 -20 -24 29 -5 37 -4 38 9 21 8 -11 15 -33
15 -50z m1189 -1672 c10 -9 -35 -3 -49 6 -11 8 -7 9 15 4 17 -4 32 -8 34 -10z"/>
<path d="M2656 1775 c4 -8 10 -12 15 -9 14 8 10 24 -6 24 -9 0 -12 -6 -9 -15z"/>
<path d="M2040 1770 c0 -12 147 -12 175 0 13 6 -14 9 -77 9 -59 1 -98 -3 -98
-9z"/>
<path d="M3061 1695 c-19 -49 -21 -55 -16 -55 9 0 36 62 32 73 -3 7 -10 -1
-16 -18z"/>
<path d="M2408 1688 c-17 -20 -16 -38 2 -38 8 0 24 49 18 56 -2 1 -11 -7 -20
-18z"/>
<path d="M2070 1674 c-34 -15 -34 -16 -13 -26 27 -13 73 -2 73 16 0 8 6 17 13
19 6 3 1 6 -13 6 -14 0 -41 -7 -60 -15z"/>
<path d="M2313 1673 c-9 -3 -8 -11 3 -29 21 -31 34 -31 34 0 0 24 -15 36 -37
29z"/>
<path d="M2650 1641 c0 -11 49 -21 55 -11 3 4 -5 10 -18 14 -30 8 -37 7 -37
-3z"/>
<path d="M2805 1633 c19 -18 123 -55 147 -51 18 3 10 9 -37 26 -69 27 -125 40
-110 25z"/>
<path d="M2432 1596 c-28 -14 -23 -30 11 -34 21 -3 27 1 27 17 0 25 -9 30 -38
17z"/>
<path d="M2240 1590 c0 -5 9 -10 21 -10 11 0 17 5 14 10 -3 6 -13 10 -21 10
-8 0 -14 -4 -14 -10z"/>
<path d="M1840 1568 c0 -21 17 -41 28 -34 6 3 13 2 17 -4 4 -6 11 -8 16 -4 5
3 25 0 44 -6 19 -6 45 -10 57 -8 15 2 -4 12 -55 27 -43 13 -80 28 -83 33 -8
12 -24 10 -24 -4z"/>
<path d="M2630 1535 c0 -34 43 -83 77 -88 57 -10 103 -8 103 3 0 31 -23 45
-68 42 -40 -3 -51 0 -71 22 -23 24 -41 33 -41 21z"/>
<path d="M2873 1526 c-28 -13 -29 -24 -5 -33 61 -23 18 -119 -63 -139 -29 -7
-30 -10 -9 -32 42 -42 -13 -138 -101 -178 -16 -7 -25 -13 -19 -14 21 0 89 31
111 52 19 18 34 20 102 19 73 -2 81 0 108 25 21 19 23 24 8 19 -54 -20 -65
-18 -65 8 0 29 -23 52 -45 43 -20 -7 -20 -3 16 88 l31 79 -22 28 c-11 16 -16
29 -10 29 6 0 8 5 5 10 -7 12 -12 11 -42 -4z"/>
<path d="M2060 1514 c0 -9 5 -14 12 -12 18 6 21 28 4 28 -9 0 -16 -7 -16 -16z"/>
<path d="M2165 1460 c28 -12 65 -12 65 0 0 6 -19 10 -42 9 -33 0 -38 -2 -23
-9z"/>
<path d="M2700 1355 c0 -8 7 -15 15 -15 8 0 15 7 15 15 0 8 -7 15 -15 15 -8 0
-15 -7 -15 -15z"/>
<path d="M2045 1320 c-4 -7 -3 -16 2 -21 12 -12 45 0 40 15 -5 15 -34 19 -42
6z"/>
<path d="M2120 1270 c0 -13 28 -25 38 -16 3 4 0 11 -8 16 -20 13 -30 12 -30 0z"/>
<path d="M2170 1261 c0 -18 62 -46 105 -47 22 -1 65 -4 95 -8 67 -9 48 9 -27
25 -26 5 -66 14 -88 19 -22 4 -50 11 -62 15 -14 5 -23 3 -23 -4z"/>
<path d="M2507 1171 c6 -22 32 -36 45 -23 15 15 -3 42 -27 42 -18 0 -22 -4
-18 -19z"/>
<path d="M2314 1159 c-8 -13 13 -29 39 -29 21 0 23 26 1 34 -23 9 -32 7 -40
-5z"/>
<path d="M2600 1160 c0 -5 7 -10 15 -10 8 0 15 5 15 10 0 6 -7 10 -15 10 -8 0
-15 -4 -15 -10z"/>
<path d="M2016 1111 c-18 -20 -19 -54 -2 -55 9 -1 44 51 45 67 2 14 -26 7 -43
-12z"/>
<path d="M1900 1091 c0 -11 5 -23 10 -26 6 -3 10 3 10 14 0 11 -4 23 -10 26
-5 3 -10 -3 -10 -14z"/>
<path d="M2347 1103 c-13 -12 -7 -23 13 -23 11 0 20 7 20 15 0 15 -21 21 -33
8z"/>
<path d="M2915 1105 c-5 -2 -22 -6 -37 -9 -31 -7 -37 -30 -12 -40 31 -12 61
-6 90 19 21 18 25 25 12 25 -9 0 -22 2 -30 4 -7 3 -17 3 -23 1z"/>
<path d="M2220 1091 c0 -16 19 -23 40 -16 30 10 24 25 -10 25 -16 0 -30 -4
-30 -9z"/>
<path d="M2147 1070 c6 -24 28 -26 37 -4 9 23 8 24 -18 24 -19 0 -23 -4 -19
-20z"/>
<path d="M1756 993 c-7 -26 -2 -75 10 -97 9 -15 12 -8 18 39 3 31 4 61 1 66
-10 14 -23 11 -29 -8z"/>
<path d="M3358 1002 c-10 -2 -18 -8 -18 -13 0 -13 27 -11 35 2 9 13 4 16 -17
11z"/>
<path d="M2740 977 c0 -14 -5 -27 -12 -29 -7 -3 -4 -12 11 -27 15 -15 28 -20
39 -15 9 3 33 12 52 19 46 17 44 33 -5 52 -76 28 -85 28 -85 0z"/>
<path d="M1567 979 c-10 -6 -40 -14 -65 -17 -62 -9 -103 -81 -99 -172 l2 -55
49 -7 c73 -10 86 -37 29 -59 -20 -7 -28 -6 -38 7 -23 32 -93 -40 -180 -186
-84 -139 -104 -205 -83 -271 l17 -52 -50 -57 c-53 -61 -95 -74 -224 -70 -32 1
-37 -2 -27 -12 13 -13 122 -17 182 -6 19 4 38 7 42 7 4 1 9 9 13 20 3 10 18
21 33 24 33 7 57 55 47 95 -25 98 -10 133 31 76 10 -14 29 -37 42 -50 12 -14
22 -35 23 -47 0 -12 3 -16 6 -9 11 26 36 13 30 -17 -3 -15 -2 -32 4 -38 15
-15 -1 -44 -21 -38 -30 10 -51 -4 -39 -26 12 -23 156 -28 177 -7 9 9 15 9 24
0 7 -7 38 -12 69 -12 l57 0 18 60 c26 82 34 79 49 -17 6 -37 10 -43 31 -43 21
0 24 3 18 25 -3 14 2 46 12 75 17 48 20 51 50 48 20 -1 38 4 49 16 13 12 14
17 4 15 -8 -2 -24 1 -37 5 -17 6 -27 3 -36 -10 -21 -28 -49 -11 -41 25 3 16 2
32 -3 35 -5 3 -7 18 -4 32 4 25 3 26 -19 20 -13 -4 -44 -12 -68 -17 -24 -5
-57 -16 -74 -24 -63 -31 -87 -22 -87 35 0 49 -12 66 -24 34 -3 -9 -6 -28 -6
-43 0 -14 -7 -36 -15 -49 -9 -12 -15 -30 -13 -39 2 -14 -3 -18 -26 -16 -34 3
-41 8 -30 25 5 7 10 24 12 37 2 13 13 42 24 65 20 39 24 66 31 227 3 56 18 89
42 89 7 0 18 7 25 15 8 10 31 15 70 15 72 0 98 21 62 50 -12 10 -22 28 -22 39
0 12 -6 21 -14 21 -7 0 -19 7 -26 15 -8 10 -24 13 -53 9 -70 -8 -95 28 -67 95
13 33 14 33 64 26 28 -3 61 -13 74 -21 30 -19 42 -10 42 31 0 71 -23 97 -63
74z m-17 -930 c7 -11 9 -23 6 -26 -8 -9 -36 17 -36 33 0 21 18 17 30 -7z"/>
<path d="M2067 863 c-15 -14 -6 -24 20 -21 34 4 43 28 11 28 -14 0 -28 -3 -31
-7z"/>
<path d="M2445 790 c-23 -11 -32 -19 -22 -19 18 -1 77 25 77 34 0 8 -13 4 -55
-15z"/>
<path d="M2885 728 c-61 -35 -49 -73 24 -73 33 0 65 -6 74 -13 18 -15 53 -8
60 12 7 18 -45 40 -90 39 -30 -1 -32 1 -27 23 7 27 -8 31 -41 12z"/>
<path d="M2215 710 c-17 -7 -15 -9 12 -9 17 -1 35 4 38 9 7 12 -22 12 -50 0z"/>
<path d="M2540 701 c0 -23 43 -56 64 -48 20 8 8 57 -14 57 -10 0 -25 3 -34 6
-11 4 -16 0 -16 -15z"/>
<path d="M2140 690 c-8 -5 -26 -10 -40 -11 -14 0 -19 -3 -12 -6 19 -7 82 6 82
17 0 13 -11 12 -30 0z"/>
<path d="M4008 682 c-21 -2 -38 -7 -38 -13 0 -12 77 -12 85 0 8 13 -4 17 -47
13z"/>
<path d="M4350 680 c-12 -7 -12 -12 -2 -22 9 -9 15 -9 24 0 16 16 -2 34 -22
22z"/>
<path d="M1670 665 c0 -8 5 -15 10 -15 6 0 10 7 10 15 0 8 -4 15 -10 15 -5 0
-10 -7 -10 -15z"/>
<path d="M1925 670 c-8 -13 25 -13 45 0 12 8 9 10 -12 10 -15 0 -30 -4 -33
-10z"/>
<path d="M3900 670 c0 -5 11 -10 25 -10 14 0 25 5 25 10 0 6 -11 10 -25 10
-14 0 -25 -4 -25 -10z"/>
<path d="M1801 656 c-15 -18 1 -30 29 -21 24 8 26 21 4 29 -21 8 -20 8 -33 -8z"/>
<path d="M3105 640 c-9 -15 -1 -23 21 -18 15 3 16 4 1 16 -11 9 -17 10 -22 2z"/>
<path d="M2165 589 c-22 -11 -67 -28 -100 -39 -51 -16 -55 -19 -27 -19 34 -1
40 -9 20 -29 -8 -8 -9 -12 -1 -12 6 0 22 13 36 29 13 16 47 42 76 56 48 26 61
36 44 35 -5 -1 -26 -10 -48 -21z"/>
<path d="M3059 593 c-6 -28 -3 -183 4 -183 4 0 7 43 7 95 0 79 -5 119 -11 88z"/>
<path d="M740 580 c-8 -5 -25 -10 -38 -10 -13 0 -21 -4 -18 -8 8 -13 89 1 94
16 4 14 -17 16 -38 2z"/>
<path d="M4105 580 c-17 -7 -14 -9 13 -9 20 -1 31 3 27 9 -7 12 -13 12 -40 0z"/>
<path d="M4216 581 c-33 -13 1 -24 51 -16 24 3 43 8 41 9 -9 9 -76 14 -92 7z"/>
<path d="M492 573 c-47 -9 -16 -28 39 -24 60 3 70 8 49 21 -15 10 -47 11 -88
3z"/>
<path d="M1965 520 c-3 -5 1 -10 9 -10 8 0 18 5 21 10 3 6 -1 10 -9 10 -8 0
-18 -4 -21 -10z"/>
<path d="M2890 515 c-6 -8 -9 -20 -5 -27 4 -7 0 -5 -8 5 -27 32 -43 -4 -23
-53 9 -22 16 -51 16 -65 0 -33 16 -40 31 -14 12 23 19 169 8 169 -4 0 -12 -7
-19 -15z"/>
<path d="M1760 510 c-21 -7 -17 -8 20 -9 32 0 41 2 30 9 -17 11 -16 11 -50 0z"/>
<path d="M305 503 c-37 -9 -40 -23 -4 -23 43 0 69 14 44 24 -9 3 -17 5 -18 5
-1 -1 -11 -3 -22 -6z"/>
<path d="M0 472 c0 -19 20 -20 108 -6 54 8 26 24 -44 24 -55 0 -64 -3 -64 -18z"/>
<path d="M684 469 c-3 -6 3 -13 15 -16 57 -15 22 -22 -182 -37 -40 -3 -55 -11
-43 -23 13 -14 249 -12 281 2 l30 13 -30 12 c-51 20 -8 40 87 40 43 0 78 4 78
9 0 13 -228 13 -236 0z"/>
<path d="M1615 441 c-65 -36 -77 -47 -60 -61 12 -10 22 -6 57 26 63 55 63 68
3 35z"/>
<path d="M4453 428 c-34 -16 -28 -27 16 -26 55 1 73 14 38 27 -16 6 -29 11
-30 10 -1 0 -12 -5 -24 -11z"/>
<path d="M4580 430 c-27 -9 -27 -9 39 -16 40 -5 43 -4 32 10 -14 17 -32 19
-71 6z"/>
<path d="M78 413 c-42 -6 -34 -21 15 -28 23 -3 51 -8 62 -10 11 -2 24 -4 28
-4 5 -1 5 -5 2 -11 -3 -5 7 -12 22 -15 15 -3 41 -10 56 -15 19 -6 37 -5 52 2
18 8 39 8 78 0 58 -12 100 -6 94 12 -2 7 -26 10 -65 8 -33 -1 -63 2 -67 8 -3
5 -17 10 -31 10 -14 0 -22 4 -19 10 9 14 57 9 77 -8 16 -13 18 -13 24 2 3 9
12 16 20 16 8 0 14 7 14 15 0 15 -278 21 -362 8z"/>
<path d="M3305 390 c-8 -13 15 -13 35 0 12 8 11 10 -7 10 -12 0 -25 -4 -28
-10z"/>
<path d="M4440 380 c0 -5 12 -10 26 -10 14 0 23 4 19 10 -3 6 -15 10 -26 10
-10 0 -19 -4 -19 -10z"/>
<path d="M125 350 c-3 -5 -3 -15 1 -22 4 -6 -1 -17 -11 -25 -18 -13 -18 -13
-1 -13 22 0 45 27 46 53 0 18 -25 24 -35 7z"/>
<path d="M3583 324 c-3 -8 -12 -13 -19 -10 -17 6 -18 -10 -3 -53 20 -57 48
-22 49 62 0 21 -19 23 -27 1z"/>
<path d="M1987 293 c-4 -3 0 -14 9 -24 16 -18 2 -79 -18 -79 -5 0 -8 -4 -8
-10 0 -18 38 -10 66 13 l27 24 -22 22 c-23 23 -9 40 24 27 8 -3 19 2 24 12 8
16 4 18 -43 20 -29 1 -56 -1 -59 -5z"/>
<path d="M3412 284 c3 -5 13 -43 23 -86 15 -66 21 -77 41 -81 29 -5 29 -9 0
44 -13 24 -29 61 -36 81 -6 21 -16 41 -22 44 -6 4 -9 3 -6 -2z"/>
<path d="M2645 266 c-11 -8 -14 -15 -7 -20 12 -7 42 3 42 14 0 16 -17 19 -35
6z"/>
<path d="M3132 268 c-19 -19 -14 -29 8 -16 20 13 27 28 12 28 -4 0 -13 -5 -20
-12z"/>
<path d="M1888 253 c12 -2 32 -2 45 0 12 2 2 4 -23 4 -25 0 -35 -2 -22 -4z"/>
<path d="M1920 210 c0 -5 9 -10 20 -10 11 0 20 5 20 10 0 6 -9 10 -20 10 -11
0 -20 -4 -20 -10z"/>
<path d="M4055 201 c-10 -18 15 -22 42 -7 l28 15 -32 1 c-17 0 -34 -4 -38 -9z"/>
<path d="M4179 171 c12 -16 21 -33 21 -38 0 -4 42 -8 92 -8 51 0 109 -3 128
-8 27 -6 32 -5 22 5 -9 9 -9 15 3 28 13 14 6 16 -73 18 -55 2 -94 8 -109 17
-12 8 -41 15 -63 15 l-41 0 20 -29z"/>
<path d="M4470 170 c0 -5 6 -10 13 -10 8 0 7 -4 -3 -10 -12 -8 -11 -10 6 -10
11 0 29 9 39 20 18 20 17 20 -18 20 -21 0 -37 -4 -37 -10z"/>
<path d="M4590 160 c0 -5 9 -10 21 -10 11 0 17 5 14 10 -3 6 -13 10 -21 10 -8
0 -14 -4 -14 -10z"/>
<path d="M215 150 c-8 -13 15 -13 35 0 12 8 11 10 -7 10 -12 0 -25 -4 -28 -10z"/>
<path d="M3110 129 c0 -8 18 -33 41 -54 25 -26 38 -46 35 -57 -2 -10 0 -18 5
-18 26 0 5 58 -36 100 -28 27 -45 39 -45 29z"/>
<path d="M410 120 c0 -6 27 -10 61 -10 37 0 58 4 54 10 -3 6 -31 10 -61 10
-30 0 -54 -4 -54 -10z"/>
<path d="M1250 76 c0 -24 17 -28 23 -6 3 13 0 20 -9 20 -8 0 -14 -6 -14 -14z"/>
<path d="M3695 80 c-7 -12 2 -30 16 -30 12 0 12 27 0 35 -5 3 -12 1 -16 -5z"/>
<path d="M2837 51 c-22 -23 -12 -51 17 -51 18 0 22 6 23 35 1 39 -12 44 -40
16z"/>
<path d="M655 47 c-11 -8 -42 -17 -69 -21 -106 -16 -88 -24 52 -25 124 0 143
2 138 15 -3 9 -6 18 -6 20 0 2 -11 4 -25 4 -14 0 -25 -4 -25 -10 0 -5 -4 -10
-9 -10 -5 0 -8 8 -7 17 1 22 -24 27 -49 10z"/>
<path d="M356 23 c-4 -4 -28 -10 -54 -14 -32 -5 -9 -7 71 -6 111 0 144 7 95
21 -32 8 -103 8 -112 -1z"/>
<path d="M2736 23 c-4 -4 -28 -10 -54 -14 -44 -7 -43 -7 17 -6 41 1 66 6 69
15 4 13 -20 17 -32 5z"/>
<path d="M3595 10 c-17 -7 -14 -9 13 -9 20 -1 31 3 27 9 -7 12 -13 12 -40 0z"/>
</g>
</svg>
